<svg xmlns="http://www.w3.org/2000/svg" xmlns:xlink="http://www.w3.org/1999/xlink" viewBox="0 0 682 802.95"><defs><style>.cls-1{fill:url(#Безымянный_градиент_9);}.cls-2{fill:url(#Безымянный_градиент_9-2);}.cls-3,.cls-31,.cls-32{fill:none;}.cls-3{stroke:#ff2020;stroke-width:2px;}.cls-3,.cls-31,.cls-32,.cls-33{stroke-miterlimit:10;}.cls-4{fill:url(#Безымянный_градиент_9-3);}.cls-5{fill:url(#Безымянный_градиент_9-4);}.cls-6{fill:url(#Безымянный_градиент_9-5);}.cls-7{fill:url(#Безымянный_градиент_9-6);}.cls-8{fill:url(#Безымянный_градиент_9-7);}.cls-9{fill:url(#Безымянный_градиент_9-8);}.cls-10{fill:url(#Безымянный_градиент_9-9);}.cls-11{fill:url(#Безымянный_градиент_9-10);}.cls-12{fill:url(#Безымянный_градиент_9-11);}.cls-13{fill:url(#Безымянный_градиент_9-12);}.cls-14{fill:url(#Безымянный_градиент_9-13);}.cls-15{fill:url(#Безымянный_градиент_9-14);}.cls-16{fill:url(#Безымянный_градиент_9-15);}.cls-17{fill:url(#Безымянный_градиент_9-16);}.cls-18{fill:url(#Безымянный_градиент_9-17);}.cls-19{fill:url(#Безымянный_градиент_9-18);}.cls-20{fill:url(#Безымянный_градиент_9-19);}.cls-21{fill:url(#Безымянный_градиент_9-20);}.cls-22{fill:url(#Безымянный_градиент_9-21);}.cls-23{fill:url(#Безымянный_градиент_9-22);}.cls-24{fill:url(#Безымянный_градиент_9-23);}.cls-25{fill:url(#Безымянный_градиент_9-24);}.cls-26{fill:url(#Безымянный_градиент_9-25);}.cls-27{fill:url(#Безымянный_градиент_9-26);}.cls-28{fill:url(#Безымянный_градиент_9-27);}.cls-29{fill:url(#Безымянный_градиент_9-28);}.cls-30,.cls-33{fill:#595959;}.cls-31,.cls-32,.cls-33{stroke:#39b468;}.cls-32{stroke-dasharray:4.03 4.03;}.cls-33{opacity:0.25;}</style><linearGradient id="Безымянный_градиент_9" x1="532.44" y1="632.87" x2="644.6" y2="632.87" gradientUnits="userSpaceOnUse"><stop offset="0" stop-color="#ff2020"/><stop offset="1" stop-color="#ff6969"/></linearGradient><linearGradient id="Безымянный_градиент_9-2" x1="31" y1="633.19" x2="143.16" y2="633.19" xlink:href="#Безымянный_градиент_9"/><linearGradient id="Безымянный_градиент_9-3" x1="355.57" y1="216.03" x2="445.81" y2="216.03" xlink:href="#Безымянный_градиент_9"/><linearGradient id="Безымянный_градиент_9-4" x1="383.34" y1="216.03" x2="418.05" y2="216.03" xlink:href="#Безымянный_градиент_9"/><linearGradient id="Безымянный_градиент_9-5" x1="258.38" y1="89.34" x2="289.62" y2="89.34" xlink:href="#Безымянный_градиент_9"/><linearGradient id="Безымянный_градиент_9-6" x1="407.63" y1="84.13" x2="414.58" y2="84.13" xlink:href="#Безымянный_градиент_9"/><linearGradient id="Безымянный_градиент_9-7" x1="393.75" y1="84.13" x2="400.69" y2="84.13" xlink:href="#Безымянный_градиент_9"/><linearGradient id="Безымянный_градиент_9-8" x1="414.58" y1="94.55" x2="421.52" y2="94.55" xlink:href="#Безымянный_градиент_9"/><linearGradient id="Безымянный_градиент_9-9" x1="400.69" y1="94.55" x2="407.63" y2="94.55" xlink:href="#Безымянный_градиент_9"/><linearGradient id="Безымянный_градиент_9-10" x1="379.86" y1="84.13" x2="386.81" y2="84.13" xlink:href="#Безымянный_градиент_9"/><linearGradient id="Безымянный_градиент_9-11" x1="386.81" y1="94.55" x2="393.75" y2="94.55" xlink:href="#Безымянный_градиент_9"/><linearGradient id="Безымянный_градиент_9-12" x1="365.98" y1="84.13" x2="372.92" y2="84.13" xlink:href="#Безымянный_градиент_9"/><linearGradient id="Безымянный_градиент_9-13" x1="372.92" y1="94.55" x2="379.86" y2="94.55" xlink:href="#Безымянный_градиент_9"/><linearGradient id="Безымянный_градиент_9-14" x1="352.1" y1="84.13" x2="359.04" y2="84.13" xlink:href="#Безымянный_градиент_9"/><linearGradient id="Безымянный_градиент_9-15" x1="359.04" y1="94.55" x2="365.98" y2="94.55" xlink:href="#Безымянный_градиент_9"/><linearGradient id="Безымянный_градиент_9-16" x1="237.55" y1="155.29" x2="445.81" y2="155.29" xlink:href="#Безымянный_градиент_9"/><linearGradient id="Безымянный_градиент_9-17" x1="258.38" y1="155.29" x2="289.62" y2="155.29" xlink:href="#Безымянный_градиент_9"/><linearGradient id="Безымянный_градиент_9-18" x1="407.63" y1="150.08" x2="414.58" y2="150.08" xlink:href="#Безымянный_градиент_9"/><linearGradient id="Безымянный_градиент_9-19" x1="393.75" y1="150.08" x2="400.69" y2="150.08" xlink:href="#Безымянный_градиент_9"/><linearGradient id="Безымянный_градиент_9-20" x1="414.58" y1="160.5" x2="421.52" y2="160.5" xlink:href="#Безымянный_градиент_9"/><linearGradient id="Безымянный_градиент_9-21" x1="400.69" y1="160.5" x2="407.63" y2="160.5" xlink:href="#Безымянный_градиент_9"/><linearGradient id="Безымянный_градиент_9-22" x1="379.86" y1="150.08" x2="386.81" y2="150.08" xlink:href="#Безымянный_градиент_9"/><linearGradient id="Безымянный_градиент_9-23" x1="386.81" y1="160.5" x2="393.75" y2="160.5" xlink:href="#Безымянный_градиент_9"/><linearGradient id="Безымянный_градиент_9-24" x1="365.98" y1="150.08" x2="372.92" y2="150.08" xlink:href="#Безымянный_градиент_9"/><linearGradient id="Безымянный_градиент_9-25" x1="372.92" y1="160.5" x2="379.86" y2="160.5" xlink:href="#Безымянный_градиент_9"/><linearGradient id="Безымянный_градиент_9-26" x1="352.1" y1="150.08" x2="359.04" y2="150.08" xlink:href="#Безымянный_градиент_9"/><linearGradient id="Безымянный_градиент_9-27" x1="359.04" y1="160.5" x2="365.98" y2="160.5" xlink:href="#Безымянный_градиент_9"/><linearGradient id="Безымянный_градиент_9-28" x1="258.38" y1="221.24" x2="289.62" y2="221.24" xlink:href="#Безымянный_градиент_9"/></defs><title>Ресурс 9</title><g id="Слой_2" data-name="Слой 2"><g id="Слой_1-2" data-name="Слой 1"><path id="Forma_1" data-name="Forma 1" class="cls-1" d="M566.7,679.37l-3.37-2a3.42,3.42,0,0,0-3.43-.11,3.83,3.83,0,0,0-1.74,3.47v3.12a6.87,6.87,0,0,0,3,5.67l3.38,1.95a3.77,3.77,0,0,0,1.86.52,3.12,3.12,0,0,0,1.57-.43,3.82,3.82,0,0,0,1.74-3.45V685A6.84,6.84,0,0,0,566.7,679.37Zm-1.22,7.74-2.15-1.24a2.8,2.8,0,0,1-.92-2v-2.08l2.17,1.25a2.77,2.77,0,0,1,.92,1.95Zm.15,2.55,1.07-1.84h0Zm37.88-70.36a2.14,2.14,0,0,0-2.55,3.43l.08,0a52.75,52.75,0,0,1,17.31,23.46,2.13,2.13,0,1,0,4-1.49,57.13,57.13,0,0,0-18.82-25.45Zm11.55-16a32,32,0,0,0-9-3.63V591.8a14,14,0,0,0-6.48-11.23l-47.9-27.74a6.33,6.33,0,0,0-5-.76,3.24,3.24,0,0,0-.53.16.28.28,0,0,1-.13,0h0l-.19.07-10.63,6.16a1.22,1.22,0,0,0-.36.32,5.88,5.88,0,0,0-2.45,5.13V673.89a14.17,14.17,0,0,0,6.5,11.23l47.88,27.72a7.07,7.07,0,0,0,3.48,1,5.29,5.29,0,0,0,1.72-.32l.18-.06.29-.09.22-.14,10.19-5.89.39-.24a.43.43,0,0,0,.11-.12,5.8,5.8,0,0,0,2.66-5.26V680.6a25.31,25.31,0,0,0,10.08,2.32,16.71,16.71,0,0,0,8.49-2.2s0,0,.07-.05h0l10.56-6.13.07,0c6-3.48,9.26-10.63,9.26-20.1C644.6,635.69,631.35,612.78,615.06,603.34Zm-67.24-47.19h.06a2.22,2.22,0,0,1,1.71.4l47.89,27.73a9.94,9.94,0,0,1,4.35,7.53v7.37a17.18,17.18,0,0,0-6.36.9V598A14.16,14.16,0,0,0,589,586.71l-47-27.19ZM590.7,709.5l-.09,0a2.16,2.16,0,0,1-1.66-.41l-47.87-27.72a9.92,9.92,0,0,1-4.37-7.53V574.06l11.49,6.65a2.13,2.13,0,0,0,2.91-2.91,2.24,2.24,0,0,0-.78-.78l-13.62-7.88V564a1.85,1.85,0,0,1,.57-1.66,2.11,2.11,0,0,1,1.67.39l47.89,27.73a9.94,9.94,0,0,1,4.37,7.56v4.21l-8.74,5.06-.07.06a2.23,2.23,0,0,0-.31.15c-6,3.49-9.35,10.64-9.35,20.15a54,54,0,0,0,3.85,19.06l-4.74,13.56a2.16,2.16,0,0,0,1.33,2.73l.12,0,15.61,4.3c.75.88,1.53,1.68,2.3,2.49v17.45l-11.51-6.67a2.18,2.18,0,0,0-2.13,0,2.15,2.15,0,0,0-1.06,1.86,2.12,2.12,0,0,0,1.06,1.84l13.64,7.89v15.73a2.08,2.08,0,0,1-.51,1.62Zm11.13-7.76a1.85,1.85,0,0,1-.57,1.65l-.14.11h-.07l-5.58,3.23v-32.9a46,46,0,0,0,6.36,4.55v23.35ZM622.51,677c-4.7,2.73-11.12,2-18.09-2a46.46,46.46,0,0,1-9.56-7.54l0,0c-1.06-1.08-2.1-2.19-3.1-3.38a2.12,2.12,0,0,0-1.06-.68l-14-3.88,4.23-12.17a2.1,2.1,0,0,0,0-1.48A50.33,50.33,0,0,1,577,627.6c0-7.92,2.55-13.75,7.2-16.46s11.13-2,18.09,2c15.13,8.74,27.44,30,27.44,47.39,0,7.92-2.57,13.77-7.22,16.46Zm10.7-6.21h0l-.63.35,0,0-.42.25A30.82,30.82,0,0,0,634,660.57c0-18.74-13.27-41.66-29.57-51.09a30.78,30.78,0,0,0-10.56-3.92l.49-.28s0,0,.06,0l.75-.43a13.38,13.38,0,0,1,8.48-1.27,26.21,26.21,0,0,1,9.29,3.48c15.12,8.74,27.41,30,27.41,47.38,0,7.89-2.53,13.73-7.13,16.4Z"/><path id="Forma_1-2" data-name="Forma 1" class="cls-2" d="M108.9,679.7l3.37-2a3.37,3.37,0,0,1,3.43-.11,3.77,3.77,0,0,1,1.74,3.46v3.13a6.8,6.8,0,0,1-3,5.66l-3.37,2a3.77,3.77,0,0,1-1.85.52,3,3,0,0,1-1.57-.43,3.79,3.79,0,0,1-1.76-3.45v-3.14A6.81,6.81,0,0,1,108.9,679.7Zm1.22,7.73,2.15-1.24a2.85,2.85,0,0,0,.93-2v-2.09L111,683.39a2.76,2.76,0,0,0-.93,2ZM110,690l-1.07-1.84h0ZM72.11,619.63a2.12,2.12,0,0,1,2.45,3.47,52.8,52.8,0,0,0-17.3,23.46,2.12,2.12,0,0,1-4.09-.38,2,2,0,0,1,.11-1.11,57,57,0,0,1,18.83-25.44Zm-11.56-16a32,32,0,0,1,9-3.63v-7.91A14.07,14.07,0,0,1,76,580.89l47.9-27.73a6.3,6.3,0,0,1,5-.77,2.6,2.6,0,0,1,.54.17l.12,0h0l.18.06,10.63,6.16a1.28,1.28,0,0,1,.37.33,5.84,5.84,0,0,1,2.44,5.12V674.21a14.13,14.13,0,0,1-6.5,11.23L88.78,713.16a7.19,7.19,0,0,1-3.49,1,5.58,5.58,0,0,1-1.72-.33.58.58,0,0,1-.17-.06l-.3-.09-.21-.14-10.2-5.89-.38-.23a.74.74,0,0,1-.12-.13,5.84,5.84,0,0,1-2.66-5.26V680.92a25.31,25.31,0,0,1-10.08,2.32A16.82,16.82,0,0,1,51,681.05a.2.2,0,0,0-.07-.06h0l-10.56-6.12,0,0c-6-3.48-9.28-10.63-9.28-20.1C31,636,44.26,613.1,60.55,603.66Zm67.24-47.19h-.07a2.13,2.13,0,0,0-1.69.41L78.14,584.59a9.84,9.84,0,0,0-4.35,7.53v7.37a17.34,17.34,0,0,1,6.35.9v-2.1A14.17,14.17,0,0,1,86.65,587l47-27.19ZM84.91,709.82l.08,0a2.18,2.18,0,0,0,1.66-.4l47.89-27.73a9.94,9.94,0,0,0,4.35-7.53V574.38L127.4,581a2.13,2.13,0,0,1-2.12-3.69l13.61-7.88v-5.19a1.85,1.85,0,0,0-.57-1.66,2.09,2.09,0,0,0-1.67.4L88.77,590.73a10,10,0,0,0-4.38,7.56v4.21l8.74,5.06s0,.05.07.06l.33.15c6,3.49,9.33,10.64,9.33,20.15A53.93,53.93,0,0,1,99,647l4.72,13.56a2.15,2.15,0,0,1-1.33,2.73l-.12,0-15.61,4.3c-.75.88-1.53,1.68-2.3,2.5v17.44l11.51-6.67a2.13,2.13,0,0,1,3.19,1.86A2.12,2.12,0,0,1,98,684.58l-13.64,7.89V708.2a2.1,2.1,0,0,0,.52,1.62Zm-11.12-7.76a1.85,1.85,0,0,0,.56,1.65c.05,0,.09.08.15.11h0l5.59,3.23v-32.9a47.37,47.37,0,0,1-6.35,4.55v23.35Zm-20.7-24.71c4.71,2.73,11.13,2,18.09-2a47,47,0,0,0,9.58-7.55l0,0c1-1.07,2.08-2.19,3.09-3.38a2,2,0,0,1,1.05-.68L99,659.8l-4.25-12.17a2.15,2.15,0,0,1,0-1.48,50.55,50.55,0,0,0,3.84-18.23c0-7.91-2.57-13.75-7.22-16.45s-11.13-2-18.09,2c-15.13,8.74-27.44,30-27.44,47.39,0,7.92,2.57,13.77,7.22,16.46Zm-10.7-6.21h0l.64.36,0,0,.41.25a30.53,30.53,0,0,1-1.84-10.87c0-18.75,13.26-41.67,29.55-51.1a30.56,30.56,0,0,1,10.56-3.91l-.49-.29h-.06l-.75-.44A13.38,13.38,0,0,0,72,603.88a26,26,0,0,0-9.28,3.48c-15.12,8.74-27.42,30-27.42,47.38,0,7.89,2.54,13.73,7.13,16.4Z"/><circle class="cls-3" cx="104.01" cy="632.88" r="103.01"/><circle class="cls-3" cx="577.99" cy="632.87" r="103.01"/><path class="cls-4" d="M443,208.62l-5-1a6.84,6.84,0,0,1-4.22-10.76l3.15-4.29a3.47,3.47,0,0,0-.35-4.51l-6.8-6.8a3.48,3.48,0,0,0-4.4-.42l-4.22,2.86a6.85,6.85,0,0,1-10.61-4.62l-.81-5.26a3.45,3.45,0,0,0-3.42-2.94h-9.62a3.48,3.48,0,0,0-3.41,2.82L392,180.2a6.83,6.83,0,0,1-10.55,4.37L376,180.88a3.47,3.47,0,0,0-4.4.42l-6.8,6.79a3.47,3.47,0,0,0-.35,4.51l3.15,4.29a6.85,6.85,0,0,1-4.23,10.77l-5,1a3.46,3.46,0,0,0-2.81,3.41v9.61a3.47,3.47,0,0,0,2.94,3.43l5.26.81a6.85,6.85,0,0,1,4.63,10.6l-2.86,4.23a3.46,3.46,0,0,0,.42,4.4l6.79,6.8a3.48,3.48,0,0,0,4.51.35l4.29-3.15a6.85,6.85,0,0,1,10.77,4.22l1,5a3.47,3.47,0,0,0,3.41,2.81h9.61a3.47,3.47,0,0,0,3.43-3l.57-3.69A6.83,6.83,0,0,1,421.11,250l3,2.21a3.47,3.47,0,0,0,4.51-.34l6.8-6.8a3.47,3.47,0,0,0,.42-4.4L433,236.48a6.83,6.83,0,0,1,4.63-10.6l5.25-.81a3.46,3.46,0,0,0,2.94-3.43V212A3.46,3.46,0,0,0,443,208.62Zm-4.13,10-2.31.36a13.79,13.79,0,0,0-9.32,21.36l1.25,1.85-2.66,2.66-.62-.45a13.78,13.78,0,0,0-21.77,9l-.12.75h-3.77l-.42-2.19a13.79,13.79,0,0,0-21.69-8.52l-1.89,1.39-2.66-2.67,1.25-1.85A13.78,13.78,0,0,0,364.82,219l-2.31-.36v-3.77l2.2-.42a13.78,13.78,0,0,0,8.51-21.69l-1.38-1.88,2.66-2.67,3.09,2.09a13.78,13.78,0,0,0,21.26-8.81l.7-3.66h3.77l.36,2.32A13.78,13.78,0,0,0,425,189.48l1.85-1.25,2.67,2.67-1.39,1.88a13.79,13.79,0,0,0,8.52,21.69l2.19.42Z"/><path class="cls-5" d="M400.69,198.68A17.36,17.36,0,1,0,418.05,216,17.37,17.37,0,0,0,400.69,198.68Zm0,27.77A10.42,10.42,0,1,1,411.1,216,10.43,10.43,0,0,1,400.69,226.45Z"/><path class="cls-6" d="M274,73.72a15.62,15.62,0,1,0,15.62,15.62A15.64,15.64,0,0,0,274,73.72ZM274,98a8.68,8.68,0,1,1,8.67-8.68A8.68,8.68,0,0,1,274,98Z"/><circle class="cls-7" cx="411.1" cy="84.13" r="3.47"/><circle class="cls-8" cx="397.22" cy="84.13" r="3.47"/><circle class="cls-9" cx="418.05" cy="94.55" r="3.47"/><circle class="cls-10" cx="404.16" cy="94.55" r="3.47"/><circle class="cls-11" cx="383.34" cy="84.13" r="3.47"/><circle class="cls-12" cx="390.28" cy="94.55" r="3.47"/><circle class="cls-13" cx="369.45" cy="84.13" r="3.47"/><circle class="cls-14" cx="376.39" cy="94.55" r="3.47"/><circle class="cls-15" cx="355.57" cy="84.13" r="3.47"/><circle class="cls-16" cx="362.51" cy="94.55" r="3.47"/><path class="cls-17" d="M445.81,109.79V68.89a16,16,0,0,0-16-16H253.55a16,16,0,0,0-16,16v40.9a15.89,15.89,0,0,0,6.17,12.52,15.92,15.92,0,0,0-6.17,12.53v40.9a15.89,15.89,0,0,0,6.17,12.52,15.92,15.92,0,0,0-6.17,12.53v40.9a16,16,0,0,0,16,16H352.1v-6.95H253.55a9.06,9.06,0,0,1-9.06-9.05v-40.9a9.06,9.06,0,0,1,9.06-9h81.19v-7H253.55a9.06,9.06,0,0,1-9.06-9v-40.9a9.06,9.06,0,0,1,9.06-9H429.82a9.06,9.06,0,0,1,9.05,9v39.54h6.94V134.84a15.93,15.93,0,0,0-6.16-12.53A15.91,15.91,0,0,0,445.81,109.79Zm-192.26,9a9.06,9.06,0,0,1-9.06-9V68.89a9.07,9.07,0,0,1,9.06-9.06H429.82a9.07,9.07,0,0,1,9.05,9.06v40.9a9.06,9.06,0,0,1-9.05,9Z"/><path class="cls-18" d="M258.38,155.29A15.62,15.62,0,1,0,274,139.67,15.64,15.64,0,0,0,258.38,155.29Zm24.29,0a8.68,8.68,0,1,1-8.67-8.68A8.68,8.68,0,0,1,282.67,155.29Z"/><circle class="cls-19" cx="411.1" cy="150.08" r="3.47"/><circle class="cls-20" cx="397.22" cy="150.08" r="3.47"/><circle class="cls-21" cx="418.05" cy="160.5" r="3.47"/><circle class="cls-22" cx="404.16" cy="160.5" r="3.47"/><circle class="cls-23" cx="383.34" cy="150.08" r="3.47"/><circle class="cls-24" cx="390.28" cy="160.5" r="3.47"/><circle class="cls-25" cx="369.45" cy="150.08" r="3.47"/><circle class="cls-26" cx="376.39" cy="160.5" r="3.47"/><circle class="cls-27" cx="355.57" cy="150.08" r="3.47"/><circle class="cls-28" cx="362.51" cy="160.5" r="3.47"/><path class="cls-29" d="M258.38,221.24A15.62,15.62,0,1,0,274,205.62,15.64,15.64,0,0,0,258.38,221.24Zm24.29,0a8.68,8.68,0,1,1-8.67-8.68A8.68,8.68,0,0,1,282.67,221.24Z"/><path class="cls-30" d="M304.25,17.22a6.05,6.05,0,0,1-2.28,5A9.93,9.93,0,0,1,295.63,24,14.85,14.85,0,0,1,289,22.62V18a28.21,28.21,0,0,0,4,1.49,12.31,12.31,0,0,0,3,.43,4.21,4.21,0,0,0,2.5-.63,2.1,2.1,0,0,0,.88-1.85,2,2,0,0,0-.39-1.22,4.28,4.28,0,0,0-1.13-1,29.05,29.05,0,0,0-3-1.58,14.54,14.54,0,0,1-3.21-1.93,7.43,7.43,0,0,1-1.71-2.16,6.12,6.12,0,0,1-.64-2.88,6.06,6.06,0,0,1,2.1-4.88A8.78,8.78,0,0,1,297.2,0a13.58,13.58,0,0,1,3.47.43,22.85,22.85,0,0,1,3.46,1.22L302.54,5.5a23.18,23.18,0,0,0-3.1-1.07,10.07,10.07,0,0,0-2.4-.31,3.17,3.17,0,0,0-2.16.66,2.17,2.17,0,0,0-.75,1.71,2.11,2.11,0,0,0,.3,1.14,3.26,3.26,0,0,0,1,1,30.75,30.75,0,0,0,3.14,1.64A12.47,12.47,0,0,1,303,13.36,6.12,6.12,0,0,1,304.25,17.22Z"/><path class="cls-30" d="M316.19,24a9.22,9.22,0,0,1-6.75-2.38A9,9,0,0,1,307,14.9q0-4.49,2.25-6.95a8,8,0,0,1,6.21-2.45,7.87,7.87,0,0,1,5.9,2.16,8.16,8.16,0,0,1,2.11,6V16H312a4.74,4.74,0,0,0,1.23,3.24,4.34,4.34,0,0,0,3.23,1.17,13.67,13.67,0,0,0,3.06-.33,15.6,15.6,0,0,0,3-1.08v3.78a11.76,11.76,0,0,1-2.73.95A17.08,17.08,0,0,1,316.19,24ZM315.5,9a3.12,3.12,0,0,0-2.43,1,4.64,4.64,0,0,0-1,2.79h6.85A4.07,4.07,0,0,0,318,10,3.19,3.19,0,0,0,315.5,9Z"/><path class="cls-30" d="M337.42,5.5a8.38,8.38,0,0,1,1.65.14l-.37,4.58a5.4,5.4,0,0,0-1.44-.16,5.19,5.19,0,0,0-3.64,1.2,4.35,4.35,0,0,0-1.3,3.35v9.1h-4.88V5.84h3.7l.72,3h.24a6.68,6.68,0,0,1,2.24-2.42A5.58,5.58,0,0,1,337.42,5.5Z"/><path class="cls-30" d="M346.57,23.71,339.76,5.84h5.1L348.31,16a18.74,18.74,0,0,1,.72,3.66h.09a16.71,16.71,0,0,1,.72-3.66l3.44-10.18h5.1l-6.81,17.87Z"/><path class="cls-30" d="M369,24a9.22,9.22,0,0,1-6.75-2.38,9,9,0,0,1-2.43-6.75q0-4.49,2.25-6.95a8,8,0,0,1,6.21-2.45,7.87,7.87,0,0,1,5.9,2.16,8.16,8.16,0,0,1,2.11,6V16H364.79A4.74,4.74,0,0,0,366,19.23a4.34,4.34,0,0,0,3.23,1.17,13.67,13.67,0,0,0,3.06-.33,15.6,15.6,0,0,0,3-1.08v3.78a11.76,11.76,0,0,1-2.73.95A17.08,17.08,0,0,1,369,24ZM368.34,9a3.12,3.12,0,0,0-2.43,1,4.64,4.64,0,0,0-1,2.79h6.85A4.07,4.07,0,0,0,370.8,10,3.19,3.19,0,0,0,368.34,9Z"/><path class="cls-30" d="M390.26,5.5a8.38,8.38,0,0,1,1.65.14l-.37,4.58a5.4,5.4,0,0,0-1.44-.16,5.19,5.19,0,0,0-3.64,1.2,4.35,4.35,0,0,0-1.3,3.35v9.1h-4.87V5.84H384l.72,3h.24a6.68,6.68,0,0,1,2.24-2.42A5.58,5.58,0,0,1,390.26,5.5Z"/><path class="cls-30" d="M59,306H61l-5.61,15.59H53.58L48,306h1.92l3.58,10.09a28.18,28.18,0,0,1,1,3.38,29.31,29.31,0,0,1,1-3.45Z"/><path class="cls-30" d="M65.07,309.9v7.58a3,3,0,0,0,.65,2.13,2.64,2.64,0,0,0,2,.71,3.36,3.36,0,0,0,2.68-1,5.1,5.1,0,0,0,.84-3.28V309.9h1.77v11.69H71.59L71.34,320h-.1a3.47,3.47,0,0,1-1.51,1.32,5,5,0,0,1-2.2.46,4.49,4.49,0,0,1-3.19-1,4.31,4.31,0,0,1-1.06-3.24V309.9Z"/><path class="cls-30" d="M79.12,321.59H77.35V305h1.77Z"/><path class="cls-30" d="M91.41,321.59V314a3.07,3.07,0,0,0-.65-2.13,2.63,2.63,0,0,0-2-.71,3.33,3.33,0,0,0-2.69,1,5,5,0,0,0-.85,3.27v6.13H83.42V309.9h1.44l.28,1.6h.09a3.59,3.59,0,0,1,1.52-1.33,4.92,4.92,0,0,1,2.19-.48,4.41,4.41,0,0,1,3.17,1A4.33,4.33,0,0,1,93.18,314v7.62Z"/><path class="cls-30" d="M102.3,321.8a5.38,5.38,0,0,1-4.09-1.58,6.09,6.09,0,0,1-1.5-4.38,6.77,6.77,0,0,1,1.39-4.49,4.65,4.65,0,0,1,3.74-1.66,4.38,4.38,0,0,1,3.47,1.45,5.54,5.54,0,0,1,1.28,3.81v1.12h-8a4.68,4.68,0,0,0,1,3.12,3.61,3.61,0,0,0,2.78,1.06,9.49,9.49,0,0,0,3.73-.78V321a9,9,0,0,1-1.78.58A9.66,9.66,0,0,1,102.3,321.8Zm-.48-10.63a2.91,2.91,0,0,0-2.25.92,4.22,4.22,0,0,0-1,2.54h6.1a3.9,3.9,0,0,0-.74-2.57A2.64,2.64,0,0,0,101.82,311.17Z"/><path class="cls-30" d="M115.48,309.69a6.6,6.6,0,0,1,1.4.13l-.25,1.64a5.8,5.8,0,0,0-1.28-.16,3.1,3.1,0,0,0-2.42,1.15,4.23,4.23,0,0,0-1,2.87v6.27h-1.77V309.9h1.46l.21,2.17h.08a5.11,5.11,0,0,1,1.57-1.76A3.53,3.53,0,0,1,115.48,309.69Z"/><path class="cls-30" d="M126.79,321.59l-.35-1.67h-.08a4.92,4.92,0,0,1-1.75,1.49,5.28,5.28,0,0,1-2.16.39,3.91,3.91,0,0,1-2.73-.9,3.23,3.23,0,0,1-1-2.54c0-2.36,1.88-3.6,5.66-3.71l2-.07v-.72a3,3,0,0,0-.59-2,2.45,2.45,0,0,0-1.9-.66,7.68,7.68,0,0,0-3.3.9l-.54-1.36a8.34,8.34,0,0,1,1.89-.73,8,8,0,0,1,2.06-.27,4.45,4.45,0,0,1,3.1.93,3.88,3.88,0,0,1,1,3v8Zm-4-1.25a3.56,3.56,0,0,0,2.59-.91,3.34,3.34,0,0,0,1-2.53v-1.06l-1.77.08a6.43,6.43,0,0,0-3,.65,2,2,0,0,0-.93,1.81,1.82,1.82,0,0,0,.58,1.46A2.44,2.44,0,0,0,122.8,320.34Z"/><path class="cls-30" d="M137.73,309.71a4.37,4.37,0,0,1,3.58,1.57,6.92,6.92,0,0,1,1.27,4.45,7,7,0,0,1-1.28,4.48,4.34,4.34,0,0,1-3.57,1.59,5.05,5.05,0,0,1-2.08-.42,3.9,3.9,0,0,1-1.59-1.3h-.12l-.38,1.51H132.3V305h1.76v4c0,.9,0,1.71-.08,2.43h.08A4.23,4.23,0,0,1,137.73,309.71Zm-.25,1.48a3.12,3.12,0,0,0-2.62,1,5.9,5.9,0,0,0-.8,3.5,5.83,5.83,0,0,0,.83,3.53,3.1,3.1,0,0,0,2.63,1.06,2.73,2.73,0,0,0,2.43-1.19,6.13,6.13,0,0,0,.8-3.42,5.9,5.9,0,0,0-.8-3.4A2.85,2.85,0,0,0,137.48,311.19Z"/><path class="cls-30" d="M148,321.59h-1.77V305H148Z"/><path class="cls-30" d="M157.22,321.8a5.38,5.38,0,0,1-4.09-1.58,6.09,6.09,0,0,1-1.5-4.38,6.78,6.78,0,0,1,1.4-4.49,4.63,4.63,0,0,1,3.73-1.66,4.4,4.4,0,0,1,3.48,1.45,5.53,5.53,0,0,1,1.27,3.81v1.12h-8a4.58,4.58,0,0,0,1,3.12,3.59,3.59,0,0,0,2.77,1.06,9.45,9.45,0,0,0,3.73-.78V321a8.68,8.68,0,0,1-1.77.58A9.76,9.76,0,0,1,157.22,321.8Zm-.48-10.63a2.87,2.87,0,0,0-2.24.92,4.22,4.22,0,0,0-1,2.54h6.11a3.9,3.9,0,0,0-.75-2.57A2.64,2.64,0,0,0,156.74,311.17Z"/><path class="cls-30" d="M42.48,348H38.73l-4.09-6.56-1.39,1V348H29.94V332.38h3.31v7.13l1.3-1.83,4.22-5.3h3.66L37,339.28Z"/><path class="cls-30" d="M50.12,348.18a6.15,6.15,0,0,1-4.5-1.59,6,6,0,0,1-1.62-4.5,6.6,6.6,0,0,1,1.5-4.63,5.34,5.34,0,0,1,4.14-1.64,5.26,5.26,0,0,1,3.94,1.44,5.49,5.49,0,0,1,1.4,4v1.57H47.3a3.12,3.12,0,0,0,.82,2.17,2.88,2.88,0,0,0,2.15.78,8.92,8.92,0,0,0,2-.23,10,10,0,0,0,2-.71v2.51a7.56,7.56,0,0,1-1.82.64A11.44,11.44,0,0,1,50.12,348.18Zm-.46-10a2,2,0,0,0-1.62.65,3.07,3.07,0,0,0-.67,1.86h4.56a2.72,2.72,0,0,0-.62-1.86A2.14,2.14,0,0,0,49.66,338.14Z"/><path class="cls-30" d="M56.47,336.05H60l2.24,6.7a8.74,8.74,0,0,1,.4,2.07h.06a9.18,9.18,0,0,1,.46-2.07l2.21-6.7h3.48l-5,13.44a5.8,5.8,0,0,1-2,2.79,5,5,0,0,1-3,.93,7.58,7.58,0,0,1-1.65-.18v-2.58a5.72,5.72,0,0,0,1.28.13,2.31,2.31,0,0,0,1.51-.52,3.51,3.51,0,0,0,1-1.6l.19-.58Z"/><path class="cls-30" d="M86.58,348h-9V332.38h9v2.71H80.91v3.42h5.28v2.71H80.91v4h5.67Z"/><path class="cls-30" d="M92.56,341.88l-3.83-5.83h3.68l2.32,3.79,2.33-3.79h3.69l-3.88,5.83,4.06,6.08h-3.7l-2.5-4.08L92.21,348H88.52Z"/><path class="cls-30" d="M108.13,348.18q-5.56,0-5.57-6.11a6.5,6.5,0,0,1,1.52-4.64,5.65,5.65,0,0,1,4.33-1.61,8.26,8.26,0,0,1,3.71.81l-1,2.52a14.68,14.68,0,0,0-1.42-.51,4.71,4.71,0,0,0-1.33-.2c-1.69,0-2.53,1.21-2.53,3.61s.84,3.49,2.53,3.49a5.67,5.67,0,0,0,1.74-.25,5.9,5.9,0,0,0,1.6-.78v2.78a5,5,0,0,1-1.59.69A8.85,8.85,0,0,1,108.13,348.18Z"/><path class="cls-30" d="M126.06,348h-3.25v-7q0-2.58-1.92-2.58a2.2,2.2,0,0,0-2,.93,5.73,5.73,0,0,0-.6,3V348h-3.25V331.38h3.25v3.38c0,.26,0,.88-.08,1.85l-.07,1h.17a3.76,3.76,0,0,1,3.45-1.75A4.25,4.25,0,0,1,125,337a4.53,4.53,0,0,1,1.09,3.24Z"/><path class="cls-30" d="M137.52,348l-.63-1.62h-.09a4.79,4.79,0,0,1-1.69,1.44,5.55,5.55,0,0,1-2.26.4,3.65,3.65,0,0,1-2.7-1,3.78,3.78,0,0,1-1-2.8,3.15,3.15,0,0,1,1.33-2.8,7.65,7.65,0,0,1,4-1l2.07-.07V340a1.62,1.62,0,0,0-1.86-1.81,8.49,8.49,0,0,0-3.35.86l-1.08-2.19a9.65,9.65,0,0,1,4.56-1.08,5.66,5.66,0,0,1,3.68,1.05,3.85,3.85,0,0,1,1.28,3.17V348Zm-1-5.52-1.26,0a4,4,0,0,0-2.11.52,1.59,1.59,0,0,0-.69,1.42c0,.92.52,1.38,1.57,1.38a2.51,2.51,0,0,0,1.81-.65,2.29,2.29,0,0,0,.68-1.73Z"/><path class="cls-30" d="M154.68,348h-3.25v-7a3.29,3.29,0,0,0-.46-1.93,1.67,1.67,0,0,0-1.46-.65,2.2,2.2,0,0,0-2,.91,5.63,5.63,0,0,0-.61,3V348h-3.25V336.05h2.48l.44,1.52h.18a3.48,3.48,0,0,1,1.5-1.31,5.19,5.19,0,0,1,2.17-.44A4.15,4.15,0,0,1,153.6,337a4.5,4.5,0,0,1,1.08,3.24Z"/><path class="cls-30" d="M168.94,336.05v1.65l-1.86.48a3.25,3.25,0,0,1,.51,1.79,3.63,3.63,0,0,1-1.34,3,5.81,5.81,0,0,1-3.71,1.07l-.59,0-.48-.06a1.1,1.1,0,0,0-.5.86c0,.47.6.7,1.79.7h2a4.65,4.65,0,0,1,3,.84,3,3,0,0,1,1,2.48,3.67,3.67,0,0,1-1.74,3.24,9.13,9.13,0,0,1-5,1.15,6.88,6.88,0,0,1-3.81-.87,2.76,2.76,0,0,1-1.32-2.44,2.53,2.53,0,0,1,.67-1.8,3.82,3.82,0,0,1,2-1,2.22,2.22,0,0,1-.87-.7,1.65,1.65,0,0,1-.37-1,1.67,1.67,0,0,1,.39-1.13,4.26,4.26,0,0,1,1.14-.89,3.29,3.29,0,0,1-1.49-1.3,4.05,4.05,0,0,1-.54-2.12,3.72,3.72,0,0,1,1.26-3,5.51,5.51,0,0,1,3.63-1.07,9.43,9.43,0,0,1,1.19.09c.45.06.75.11.88.14Zm-9.2,13.6a1.18,1.18,0,0,0,.65,1.05,3.5,3.5,0,0,0,1.81.39,6.44,6.44,0,0,0,2.74-.48,1.47,1.47,0,0,0,1-1.31.93.93,0,0,0-.59-.93,4.81,4.81,0,0,0-1.81-.26h-1.69a2.54,2.54,0,0,0-1.49.42A1.31,1.31,0,0,0,159.74,349.65Zm1.19-9.7a2.44,2.44,0,0,0,.44,1.53,1.59,1.59,0,0,0,1.35.57,1.56,1.56,0,0,0,1.34-.57,2.5,2.5,0,0,0,.43-1.53q0-2.16-1.77-2.16C161.52,337.79,160.93,338.51,160.93,340Z"/><path class="cls-30" d="M176.84,348.18a6.11,6.11,0,0,1-4.49-1.59,6,6,0,0,1-1.62-4.5,6.59,6.59,0,0,1,1.49-4.63,5.34,5.34,0,0,1,4.14-1.64,5.26,5.26,0,0,1,3.94,1.44,5.49,5.49,0,0,1,1.4,4v1.57H174a3.12,3.12,0,0,0,.82,2.17,2.88,2.88,0,0,0,2.15.78,8.92,8.92,0,0,0,2-.23,9.83,9.83,0,0,0,2-.71v2.51a7.41,7.41,0,0,1-1.82.64A11.44,11.44,0,0,1,176.84,348.18Zm-.45-10a2,2,0,0,0-1.62.65,3,3,0,0,0-.68,1.86h4.57a2.78,2.78,0,0,0-.63-1.86A2.13,2.13,0,0,0,176.39,338.14Z"/><path class="cls-30" d="M532.45,306h1.95l-5.61,15.59H527L521.41,306h1.92l3.58,10.09a28.18,28.18,0,0,1,1,3.38,29.31,29.31,0,0,1,1-3.45Z"/><path class="cls-30" d="M538.49,309.9v7.58a3,3,0,0,0,.65,2.13,2.63,2.63,0,0,0,2,.71,3.34,3.34,0,0,0,2.68-1,5,5,0,0,0,.85-3.28V309.9h1.77v11.69H545l-.26-1.57h-.09a3.47,3.47,0,0,1-1.51,1.32,5,5,0,0,1-2.2.46,4.47,4.47,0,0,1-3.19-1,4.31,4.31,0,0,1-1.06-3.24V309.9Z"/><path class="cls-30" d="M552.54,321.59h-1.77V305h1.77Z"/><path class="cls-30" d="M564.83,321.59V314a3.07,3.07,0,0,0-.65-2.13,2.66,2.66,0,0,0-2-.71,3.31,3.31,0,0,0-2.68,1,5,5,0,0,0-.86,3.27v6.13h-1.76V309.9h1.43l.29,1.6h.09a3.59,3.59,0,0,1,1.52-1.33,4.89,4.89,0,0,1,2.19-.48,4.43,4.43,0,0,1,3.17,1A4.33,4.33,0,0,1,566.6,314v7.62Z"/><path class="cls-30" d="M575.71,321.8a5.35,5.35,0,0,1-4.08-1.58,6.09,6.09,0,0,1-1.5-4.38,6.77,6.77,0,0,1,1.39-4.49,4.64,4.64,0,0,1,3.73-1.66,4.39,4.39,0,0,1,3.48,1.45A5.54,5.54,0,0,1,580,315v1.12h-8a4.63,4.63,0,0,0,1,3.12,3.6,3.6,0,0,0,2.78,1.06,9.53,9.53,0,0,0,3.73-.78V321a9,9,0,0,1-1.78.58A9.76,9.76,0,0,1,575.71,321.8Zm-.48-10.63a2.9,2.9,0,0,0-2.24.92,4.22,4.22,0,0,0-1,2.54h6.11a4,4,0,0,0-.74-2.57A2.65,2.65,0,0,0,575.23,311.17Z"/><path class="cls-30" d="M588.9,309.69a6.67,6.67,0,0,1,1.4.13l-.25,1.64a5.8,5.8,0,0,0-1.28-.16,3.1,3.1,0,0,0-2.42,1.15,4.23,4.23,0,0,0-1,2.87v6.27h-1.77V309.9H585l.2,2.17h.09a5,5,0,0,1,1.57-1.76A3.53,3.53,0,0,1,588.9,309.69Z"/><path class="cls-30" d="M600.21,321.59l-.35-1.67h-.09a4.82,4.82,0,0,1-1.74,1.49,5.3,5.3,0,0,1-2.17.39,3.88,3.88,0,0,1-2.72-.9,3.23,3.23,0,0,1-1-2.54q0-3.54,5.66-3.71l2-.07v-.72a2.93,2.93,0,0,0-.6-2,2.41,2.41,0,0,0-1.89-.66,7.68,7.68,0,0,0-3.3.9l-.55-1.36a8.61,8.61,0,0,1,1.9-.73,8,8,0,0,1,2.06-.27,4.43,4.43,0,0,1,3.09.93,3.84,3.84,0,0,1,1,3v8Zm-4-1.25a3.57,3.57,0,0,0,2.6-.91,3.33,3.33,0,0,0,.94-2.53v-1.06l-1.77.08a6.42,6.42,0,0,0-3,.65,2,2,0,0,0-.93,1.81,1.82,1.82,0,0,0,.58,1.46A2.43,2.43,0,0,0,596.21,320.34Z"/><path class="cls-30" d="M611.15,309.71a4.38,4.38,0,0,1,3.58,1.57,8.43,8.43,0,0,1,0,8.93,4.31,4.31,0,0,1-3.56,1.59,5,5,0,0,1-2.08-.42,3.9,3.9,0,0,1-1.59-1.3h-.13l-.37,1.51h-1.27V305h1.77v4c0,.9,0,1.71-.08,2.43h.08A4.23,4.23,0,0,1,611.15,309.71Zm-.26,1.48a3.11,3.11,0,0,0-2.61,1,8,8,0,0,0,0,7,3.13,3.13,0,0,0,2.64,1.06,2.75,2.75,0,0,0,2.43-1.19,6.13,6.13,0,0,0,.8-3.42,5.9,5.9,0,0,0-.8-3.4A2.87,2.87,0,0,0,610.89,311.19Z"/><path class="cls-30" d="M621.41,321.59h-1.77V305h1.77Z"/><path class="cls-30" d="M630.64,321.8a5.38,5.38,0,0,1-4.09-1.58,6.09,6.09,0,0,1-1.5-4.38,6.83,6.83,0,0,1,1.39-4.49,4.66,4.66,0,0,1,3.74-1.66,4.38,4.38,0,0,1,3.47,1.45,5.49,5.49,0,0,1,1.28,3.81v1.12h-8a4.63,4.63,0,0,0,1,3.12,3.61,3.61,0,0,0,2.78,1.06,9.49,9.49,0,0,0,3.73-.78V321a8.68,8.68,0,0,1-1.77.58A9.76,9.76,0,0,1,630.64,321.8Zm-.48-10.63a2.91,2.91,0,0,0-2.25.92,4.28,4.28,0,0,0-1,2.54H633a3.9,3.9,0,0,0-.75-2.57A2.64,2.64,0,0,0,630.16,311.17Z"/><path class="cls-30" d="M295.45,434.93h1.19l-5.83,15.58h-1L284,434.93h1.16l3.92,10.61c.6,1.6,1,2.8,1.21,3.6.14-.53.42-1.36.84-2.48Z"/><path class="cls-30" d="M300,438.93v7.5a3.59,3.59,0,0,0,.74,2.54,3,3,0,0,0,2.28.8,4,4,0,0,0,3-1,4.88,4.88,0,0,0,1-3.4v-6.39h1.05v11.58h-.9l-.19-1.59H307c-.76,1.2-2.1,1.81-4,1.81-2.64,0-3.95-1.41-3.95-4.23v-7.57Z"/><path class="cls-30" d="M313.6,450.51h-1.06V433.93h1.06Z"/><path class="cls-30" d="M326.1,450.51V443a3.65,3.65,0,0,0-.73-2.54,3,3,0,0,0-2.28-.8,4,4,0,0,0-3,1,5,5,0,0,0-1,3.41v6.39H318V438.93h.89l.2,1.59h.07c.75-1.21,2.09-1.82,4-1.82,2.62,0,3.94,1.42,3.94,4.24v7.57Z"/><path class="cls-30" d="M336.13,450.73a5,5,0,0,1-3.94-1.56,6.26,6.26,0,0,1-1.41-4.36,6.8,6.8,0,0,1,1.36-4.44,4.51,4.51,0,0,1,3.68-1.67,4,4,0,0,1,3.23,1.43,5.91,5.91,0,0,1,1.18,3.88v.86h-8.35a5.49,5.49,0,0,0,1.12,3.64,3.92,3.92,0,0,0,3.13,1.26,9.88,9.88,0,0,0,1.74-.14,10.17,10.17,0,0,0,1.9-.6v1a8,8,0,0,1-1.81.58A9.45,9.45,0,0,1,336.13,450.73Zm-.31-11.09a3.47,3.47,0,0,0-2.69,1.11,5.18,5.18,0,0,0-1.18,3.18h7.16a5,5,0,0,0-.87-3.15A2.89,2.89,0,0,0,335.82,439.64Z"/><path class="cls-30" d="M348.53,438.7a9,9,0,0,1,1.58.15l-.2,1a6.22,6.22,0,0,0-1.5-.18,2.9,2.9,0,0,0-2.43,1.25,5.09,5.09,0,0,0-1,3.18v6.39H344V438.93h.9L345,441h.08a4.85,4.85,0,0,1,1.52-1.8A3.62,3.62,0,0,1,348.53,438.7Z"/><path class="cls-30" d="M360.05,450.51l-.27-1.83h-.08a5.58,5.58,0,0,1-1.8,1.58,4.77,4.77,0,0,1-2.18.47,3.72,3.72,0,0,1-2.65-.88,3.1,3.1,0,0,1-.95-2.42,3,3,0,0,1,1.41-2.63,7.76,7.76,0,0,1,4.09-1l2.2-.06V443a4,4,0,0,0-.67-2.5,2.6,2.6,0,0,0-2.16-.84,7.23,7.23,0,0,0-3.34.9l-.39-.92a8.77,8.77,0,0,1,3.77-.89,3.77,3.77,0,0,1,2.85,1,4.35,4.35,0,0,1,.95,3.09v7.7Zm-4.27-.74a3.69,3.69,0,0,0,4-4v-1.14l-2,.09a7.53,7.53,0,0,0-3.48.76,2.48,2.48,0,0,0-.38,3.7A2.72,2.72,0,0,0,355.78,449.77Z"/><path class="cls-30" d="M370,438.7a4.42,4.42,0,0,1,3.66,1.53,7,7,0,0,1,1.23,4.48,6.77,6.77,0,0,1-1.3,4.45,4.43,4.43,0,0,1-3.64,1.57,4.78,4.78,0,0,1-2.22-.51,3.93,3.93,0,0,1-1.57-1.45h-.1l-.3,1.74h-.66V433.93h1.06v4.17c0,.62,0,1.2,0,1.72l0,.91h.08a4.24,4.24,0,0,1,1.59-1.54A4.86,4.86,0,0,1,370,438.7Zm0,1a3.42,3.42,0,0,0-2.93,1.18,6.53,6.53,0,0,0-.88,3.87v.18a6.07,6.07,0,0,0,.92,3.76,3.47,3.47,0,0,0,2.87,1.14,3.29,3.29,0,0,0,2.86-1.33,6.36,6.36,0,0,0,1-3.78C373.79,441.34,372.52,439.66,370,439.66Z"/><path class="cls-30" d="M379.72,450.51h-1.06V433.93h1.06Z"/><path class="cls-30" d="M388.82,450.73a5.06,5.06,0,0,1-3.94-1.56,6.26,6.26,0,0,1-1.41-4.36,6.81,6.81,0,0,1,1.37-4.44,4.5,4.5,0,0,1,3.67-1.67,4,4,0,0,1,3.23,1.43,5.92,5.92,0,0,1,1.19,3.88v.86h-8.35a5.49,5.49,0,0,0,1.11,3.64,3.93,3.93,0,0,0,3.13,1.26,8.31,8.31,0,0,0,3.65-.74v1a8.17,8.17,0,0,1-1.81.58A9.55,9.55,0,0,1,388.82,450.73Zm-.31-11.09a3.45,3.45,0,0,0-2.68,1.11,5.18,5.18,0,0,0-1.19,3.18h7.17a5,5,0,0,0-.88-3.15A2.88,2.88,0,0,0,388.51,439.64Z"/><path class="cls-30" d="M515.9,348h-3.76l-4.08-6.56-1.4,1V348h-3.3V332.38h3.3v7.13l1.3-1.83,4.23-5.3h3.66l-5.43,6.9Z"/><path class="cls-30" d="M523.54,348.18a6.15,6.15,0,0,1-4.5-1.59,6,6,0,0,1-1.62-4.5,6.6,6.6,0,0,1,1.5-4.63,5.34,5.34,0,0,1,4.14-1.64,5.23,5.23,0,0,1,3.93,1.44,5.45,5.45,0,0,1,1.41,4v1.57h-7.68a3.07,3.07,0,0,0,.82,2.17,2.86,2.86,0,0,0,2.15.78,8.92,8.92,0,0,0,2-.23,10.28,10.28,0,0,0,2-.71v2.51a7.56,7.56,0,0,1-1.82.64A11.44,11.44,0,0,1,523.54,348.18Zm-.46-10a2,2,0,0,0-1.62.65,3.07,3.07,0,0,0-.67,1.86h4.56a2.68,2.68,0,0,0-.63-1.86A2.1,2.1,0,0,0,523.08,338.14Z"/><path class="cls-30" d="M529.88,336.05h3.56l2.25,6.7a9.27,9.27,0,0,1,.4,2.07h.06a9.18,9.18,0,0,1,.46-2.07l2.21-6.7h3.48l-5,13.44a5.8,5.8,0,0,1-2,2.79,5,5,0,0,1-3,.93,7.58,7.58,0,0,1-1.65-.18v-2.58a5.72,5.72,0,0,0,1.28.13,2.33,2.33,0,0,0,1.51-.52,3.42,3.42,0,0,0,1-1.6l.2-.58Z"/><path class="cls-30" d="M560,348h-9V332.38h9v2.71h-5.67v3.42h5.28v2.71h-5.28v4H560Z"/><path class="cls-30" d="M566,341.88l-3.84-5.83h3.69l2.31,3.79,2.34-3.79h3.69l-3.88,5.83,4.06,6.08h-3.7l-2.51-4.08L565.63,348h-3.69Z"/><path class="cls-30" d="M581.54,348.18c-3.7,0-5.56-2-5.56-6.11a6.5,6.5,0,0,1,1.51-4.64,5.69,5.69,0,0,1,4.34-1.61,8.26,8.26,0,0,1,3.71.81l-1,2.52a14.8,14.8,0,0,0-1.43-.51,4.65,4.65,0,0,0-1.32-.2c-1.69,0-2.53,1.21-2.53,3.61s.84,3.49,2.53,3.49a5.67,5.67,0,0,0,1.74-.25,5.9,5.9,0,0,0,1.6-.78v2.78a5,5,0,0,1-1.59.69A8.88,8.88,0,0,1,581.54,348.18Z"/><path class="cls-30" d="M599.47,348h-3.25v-7q0-2.58-1.92-2.58a2.18,2.18,0,0,0-2,.93,5.73,5.73,0,0,0-.6,3V348h-3.26V331.38h3.26v3.38c0,.26,0,.88-.08,1.85l-.07,1h.17a3.76,3.76,0,0,1,3.45-1.75,4.25,4.25,0,0,1,3.19,1.13,4.53,4.53,0,0,1,1.08,3.24Z"/><path class="cls-30" d="M610.93,348l-.62-1.62h-.09a4.88,4.88,0,0,1-1.69,1.44,5.55,5.55,0,0,1-2.26.4,3.69,3.69,0,0,1-2.71-1,3.82,3.82,0,0,1-1-2.8,3.15,3.15,0,0,1,1.33-2.8,7.62,7.62,0,0,1,4-1l2.07-.07V340a1.62,1.62,0,0,0-1.86-1.81,8.57,8.57,0,0,0-3.36.86l-1.07-2.19a9.65,9.65,0,0,1,4.56-1.08,5.68,5.68,0,0,1,3.68,1.05,3.85,3.85,0,0,1,1.28,3.17V348Zm-.95-5.52-1.26,0a4,4,0,0,0-2.11.52,1.6,1.6,0,0,0-.7,1.42c0,.92.53,1.38,1.58,1.38a2.52,2.52,0,0,0,1.81-.65,2.29,2.29,0,0,0,.68-1.73Z"/><path class="cls-30" d="M628.1,348h-3.25v-7a3.37,3.37,0,0,0-.46-1.93,1.67,1.67,0,0,0-1.46-.65,2.2,2.2,0,0,0-2,.91,5.63,5.63,0,0,0-.61,3V348H617.1V336.05h2.48l.44,1.52h.18a3.48,3.48,0,0,1,1.5-1.31,5.16,5.16,0,0,1,2.17-.44A4.17,4.17,0,0,1,627,337a4.5,4.5,0,0,1,1.08,3.24Z"/><path class="cls-30" d="M642.36,336.05v1.65l-1.86.48A3.25,3.25,0,0,1,641,340a3.63,3.63,0,0,1-1.34,3A5.82,5.82,0,0,1,636,344l-.58,0-.48-.06a1.07,1.07,0,0,0-.5.86c0,.47.6.7,1.79.7h2a4.61,4.61,0,0,1,3,.84,3,3,0,0,1,1,2.48,3.67,3.67,0,0,1-1.74,3.24,9.13,9.13,0,0,1-5,1.15,6.94,6.94,0,0,1-3.82-.87,2.77,2.77,0,0,1-1.31-2.44,2.53,2.53,0,0,1,.67-1.8,3.78,3.78,0,0,1,2-1,2.22,2.22,0,0,1-.87-.7,1.69,1.69,0,0,1,0-2.16,4.26,4.26,0,0,1,1.14-.89,3.24,3.24,0,0,1-1.49-1.3,4.05,4.05,0,0,1-.55-2.12,3.73,3.73,0,0,1,1.27-3,5.51,5.51,0,0,1,3.63-1.07,9.16,9.16,0,0,1,1.18.09c.46.06.76.11.88.14Zm-9.2,13.6a1.18,1.18,0,0,0,.65,1.05,3.49,3.49,0,0,0,1.8.39,6.38,6.38,0,0,0,2.74-.48,1.47,1.47,0,0,0,1-1.31.93.93,0,0,0-.58-.93,4.81,4.81,0,0,0-1.81-.26h-1.69a2.6,2.6,0,0,0-1.5.42A1.3,1.3,0,0,0,633.16,349.65Zm1.19-9.7a2.38,2.38,0,0,0,.44,1.53,1.59,1.59,0,0,0,1.35.57,1.56,1.56,0,0,0,1.34-.57,2.5,2.5,0,0,0,.43-1.53q0-2.16-1.77-2.16C634.94,337.79,634.35,338.51,634.35,340Z"/><path class="cls-30" d="M650.26,348.18a6.15,6.15,0,0,1-4.5-1.59,6,6,0,0,1-1.62-4.5,6.6,6.6,0,0,1,1.5-4.63,5.34,5.34,0,0,1,4.14-1.64,5.26,5.26,0,0,1,3.94,1.44,5.49,5.49,0,0,1,1.4,4v1.57h-7.68a3.12,3.12,0,0,0,.82,2.17,2.88,2.88,0,0,0,2.15.78,8.92,8.92,0,0,0,2-.23,10,10,0,0,0,2-.71v2.51a7.56,7.56,0,0,1-1.82.64A11.44,11.44,0,0,1,650.26,348.18Zm-.46-10a2,2,0,0,0-1.62.65,3.07,3.07,0,0,0-.67,1.86h4.56a2.68,2.68,0,0,0-.63-1.86A2.1,2.1,0,0,0,649.8,338.14Z"/><path class="cls-30" d="M273.39,468.27a7.67,7.67,0,0,1-2.19,5.89q-2.19,2.05-6.33,2h-4.41V460.63h4.89a8.27,8.27,0,0,1,5.93,2A7.4,7.4,0,0,1,273.39,468.27Zm-3.43.08c0-3.34-1.48-5-4.44-5h-1.76v10.15h1.42C268.36,473.48,270,471.77,270,468.35Z"/><path class="cls-30" d="M284.48,476.21l-.63-1.62h-.09a4.73,4.73,0,0,1-1.69,1.43,5.38,5.38,0,0,1-2.26.4,3.65,3.65,0,0,1-2.71-1,3.78,3.78,0,0,1-1-2.79,3.13,3.13,0,0,1,1.33-2.8,7.71,7.71,0,0,1,4-1l2.07-.06v-.52a1.62,1.62,0,0,0-1.86-1.81,8.4,8.4,0,0,0-3.36.86l-1.07-2.2a9.76,9.76,0,0,1,4.56-1.07,5.74,5.74,0,0,1,3.68,1,3.88,3.88,0,0,1,1.28,3.18v7.94Zm-1-5.52-1.26,0a4,4,0,0,0-2.11.51,1.61,1.61,0,0,0-.69,1.43c0,.92.52,1.37,1.57,1.37a2.47,2.47,0,0,0,1.81-.65,2.27,2.27,0,0,0,.68-1.72Z"/><path class="cls-30" d="M295.66,473.83a6.91,6.91,0,0,0,2-.37v2.42a7.32,7.32,0,0,1-3,.54,3.67,3.67,0,0,1-2.84-1,4.33,4.33,0,0,1-.89-3v-5.75h-1.56v-1.37l1.79-1.09.94-2.51h2.08v2.53h3.34v2.44h-3.34v5.75a1.26,1.26,0,0,0,.39,1A1.53,1.53,0,0,0,295.66,473.83Z"/><path class="cls-30" d="M308.23,476.21l-.63-1.62h-.09a4.65,4.65,0,0,1-1.69,1.43,5.35,5.35,0,0,1-2.26.4,3.63,3.63,0,0,1-2.7-1,3.74,3.74,0,0,1-1-2.79,3.13,3.13,0,0,1,1.33-2.8,7.74,7.74,0,0,1,4-1l2.07-.06v-.52a1.62,1.62,0,0,0-1.86-1.81,8.32,8.32,0,0,0-3.35.86l-1.08-2.2a9.76,9.76,0,0,1,4.56-1.07,5.72,5.72,0,0,1,3.68,1,3.88,3.88,0,0,1,1.28,3.18v7.94Zm-1-5.52-1.26,0a4.08,4.08,0,0,0-2.11.51,1.61,1.61,0,0,0-.69,1.43c0,.92.52,1.37,1.57,1.37a2.47,2.47,0,0,0,1.81-.65,2.27,2.27,0,0,0,.68-1.72Z"/><path class="cls-30" d="M329.84,476.21h-9V460.63h9v2.7h-5.67v3.42h5.27v2.71h-5.27v4h5.67Z"/><path class="cls-30" d="M335.82,470.12,332,464.29h3.69l2.31,3.8,2.34-3.8H344l-3.88,5.83,4.07,6.09h-3.7L338,472.13l-2.51,4.08h-3.69Z"/><path class="cls-30" d="M351.38,476.42c-3.71,0-5.56-2-5.56-6.11a6.51,6.51,0,0,1,1.51-4.64,5.68,5.68,0,0,1,4.34-1.6,8.29,8.29,0,0,1,3.71.81l-1,2.51c-.51-.2-1-.37-1.43-.5a4.65,4.65,0,0,0-1.32-.2q-2.54,0-2.54,3.6t2.54,3.5a5.72,5.72,0,0,0,1.74-.25,6.73,6.73,0,0,0,1.6-.78v2.78a5.42,5.42,0,0,1-1.6.69A8.79,8.79,0,0,1,351.38,476.42Z"/><path class="cls-30" d="M369.31,476.21h-3.25v-7q0-2.58-1.92-2.58a2.18,2.18,0,0,0-2,.93,5.68,5.68,0,0,0-.61,3v5.61h-3.25V459.62h3.25V463c0,.27,0,.88-.07,1.86l-.08,1h.17a3.77,3.77,0,0,1,3.46-1.75,4.25,4.25,0,0,1,3.19,1.13,4.5,4.5,0,0,1,1.08,3.24Z"/><path class="cls-30" d="M380.77,476.21l-.63-1.62h-.08a4.73,4.73,0,0,1-1.69,1.43,5.43,5.43,0,0,1-2.27.4,3.64,3.64,0,0,1-2.7-1,3.74,3.74,0,0,1-1-2.79,3.15,3.15,0,0,1,1.32-2.8,7.78,7.78,0,0,1,4-1l2.06-.06v-.52a1.61,1.61,0,0,0-1.85-1.81,8.4,8.4,0,0,0-3.36.86l-1.07-2.2a9.76,9.76,0,0,1,4.56-1.07,5.69,5.69,0,0,1,3.67,1,3.85,3.85,0,0,1,1.28,3.18v7.94Zm-1-5.52-1.25,0a4,4,0,0,0-2.11.51,1.59,1.59,0,0,0-.7,1.43c0,.92.53,1.37,1.58,1.37a2.48,2.48,0,0,0,1.81-.65,2.26,2.26,0,0,0,.67-1.72Z"/><path class="cls-30" d="M397.94,476.21h-3.25v-7a3.41,3.41,0,0,0-.46-1.94,1.68,1.68,0,0,0-1.46-.64,2.21,2.21,0,0,0-2,.91,5.73,5.73,0,0,0-.6,3v5.61h-3.25V464.29h2.48l.44,1.53H390a3.42,3.42,0,0,1,1.5-1.31,5.11,5.11,0,0,1,2.16-.44,4.17,4.17,0,0,1,3.16,1.12,4.51,4.51,0,0,1,1.08,3.25Z"/><path class="cls-30" d="M412.2,464.29v1.65l-1.87.48a3.28,3.28,0,0,1,.52,1.79,3.62,3.62,0,0,1-1.34,3,5.76,5.76,0,0,1-3.72,1.08l-.58,0-.48-.05a1.07,1.07,0,0,0-.5.85c0,.47.59.71,1.79.71h2a4.61,4.61,0,0,1,3,.84,3,3,0,0,1,1,2.47,3.67,3.67,0,0,1-1.74,3.24,9.06,9.06,0,0,1-5,1.15,6.93,6.93,0,0,1-3.81-.87,2.74,2.74,0,0,1-1.31-2.43,2.53,2.53,0,0,1,.67-1.8,3.79,3.79,0,0,1,2-1,2.19,2.19,0,0,1-.87-.69,1.68,1.68,0,0,1-.38-1,1.64,1.64,0,0,1,.4-1.14,4.47,4.47,0,0,1,1.14-.89,3.18,3.18,0,0,1-1.49-1.3,3.93,3.93,0,0,1-.55-2.11,3.73,3.73,0,0,1,1.27-3,5.48,5.48,0,0,1,3.62-1.06,9.3,9.3,0,0,1,1.19.09c.46.06.75.1.88.13Zm-9.2,13.6a1.17,1.17,0,0,0,.65,1.06,3.6,3.6,0,0,0,1.8.38,6.38,6.38,0,0,0,2.74-.48,1.45,1.45,0,0,0,1-1.31.93.93,0,0,0-.58-.93,4.87,4.87,0,0,0-1.82-.25H405.1a2.55,2.55,0,0,0-1.5.42A1.29,1.29,0,0,0,403,477.89Zm1.18-9.7a2.41,2.41,0,0,0,.45,1.54,1.9,1.9,0,0,0,2.69,0,2.54,2.54,0,0,0,.42-1.54c0-1.43-.59-2.15-1.77-2.15S404.18,466.76,404.18,468.19Z"/><path class="cls-30" d="M420.1,476.42a6.15,6.15,0,0,1-4.5-1.59,6,6,0,0,1-1.62-4.49,6.64,6.64,0,0,1,1.5-4.64,5.33,5.33,0,0,1,4.14-1.63,5.25,5.25,0,0,1,3.93,1.44,5.43,5.43,0,0,1,1.41,4v1.58h-7.69a3.14,3.14,0,0,0,.82,2.16,2.9,2.9,0,0,0,2.16.78,8.83,8.83,0,0,0,2-.22,10.19,10.19,0,0,0,2-.72v2.52a7.47,7.47,0,0,1-1.83.63A11.28,11.28,0,0,1,420.1,476.42Zm-.46-10A2.05,2.05,0,0,0,418,467a3,3,0,0,0-.67,1.86h4.56a2.64,2.64,0,0,0-.63-1.86A2.11,2.11,0,0,0,419.64,466.38Z"/><path class="cls-30" d="M61.9,776.59l-1.94-5H53.72l-1.92,5H50l6.16-15.65h1.52l6.13,15.65ZM59.4,770l-1.81-4.83c-.24-.61-.48-1.36-.73-2.25a19.46,19.46,0,0,1-.67,2.25L54.36,770Z"/><path class="cls-30" d="M70,775.34a5.33,5.33,0,0,0,.91-.07,6.82,6.82,0,0,0,.69-.14v1.35a3.25,3.25,0,0,1-.84.23,6.49,6.49,0,0,1-1,.09q-3.39,0-3.39-3.57v-7H64.66v-.85l1.67-.74.74-2.49h1v2.7h3.39v1.38H68.1v6.87a2.31,2.31,0,0,0,.5,1.62A1.72,1.72,0,0,0,70,775.34Z"/><path class="cls-30" d="M78.23,775.34a5.29,5.29,0,0,0,.9-.07c.29,0,.52-.09.7-.14v1.35a3.48,3.48,0,0,1-.85.23,6.49,6.49,0,0,1-1,.09q-3.39,0-3.39-3.57v-7H72.91v-.85l1.67-.74.75-2.49h1v2.7h3.39v1.38H76.35v6.87a2.36,2.36,0,0,0,.5,1.62A1.73,1.73,0,0,0,78.23,775.34Z"/><path class="cls-30" d="M89.89,776.59l-.35-1.67h-.09a4.82,4.82,0,0,1-1.74,1.49,5.3,5.3,0,0,1-2.17.39,3.86,3.86,0,0,1-2.72-.9,3.23,3.23,0,0,1-1-2.54q0-3.54,5.66-3.71l2-.07v-.72a2.93,2.93,0,0,0-.59-2,2.41,2.41,0,0,0-1.89-.66,7.64,7.64,0,0,0-3.3.9l-.55-1.36A8.73,8.73,0,0,1,85,765a8.17,8.17,0,0,1,2.07-.27,4.43,4.43,0,0,1,3.09.93,3.88,3.88,0,0,1,1,3v8Zm-4-1.25a3.58,3.58,0,0,0,2.6-.91,3.33,3.33,0,0,0,.94-2.53v-1.06l-1.77.08a6.42,6.42,0,0,0-3,.65,2,2,0,0,0-.93,1.81,1.82,1.82,0,0,0,.58,1.46A2.41,2.41,0,0,0,85.89,775.34Z"/><path class="cls-30" d="M100.06,776.8a5,5,0,0,1-3.93-1.56,6.42,6.42,0,0,1-1.39-4.42,6.64,6.64,0,0,1,1.41-4.53,5.09,5.09,0,0,1,4-1.6,8,8,0,0,1,1.68.18,5.66,5.66,0,0,1,1.32.43l-.54,1.5a10.17,10.17,0,0,0-1.28-.39,5.86,5.86,0,0,0-1.23-.15q-3.55,0-3.56,4.54a5.38,5.38,0,0,0,.87,3.3,3,3,0,0,0,2.58,1.15,8,8,0,0,0,3-.62v1.56A6.3,6.3,0,0,1,100.06,776.8Z"/><path class="cls-30" d="M108.08,770.61a18.85,18.85,0,0,1,1.39-1.71l3.78-4h2.1l-4.74,5,5.07,6.71h-2.15l-4.12-5.52-1.33,1.15v4.37h-1.75V760h1.75v8.79c0,.4,0,1-.09,1.82Z"/><path class="cls-30" d="M125.87,773.4a2.91,2.91,0,0,1-1.22,2.51,5.62,5.62,0,0,1-3.41.89,7.4,7.4,0,0,1-3.62-.74v-1.64a8.24,8.24,0,0,0,1.8.67,7.34,7.34,0,0,0,1.86.25,4.3,4.3,0,0,0,2.14-.44,1.48,1.48,0,0,0,.74-1.35,1.45,1.45,0,0,0-.59-1.17,9.28,9.28,0,0,0-2.31-1.14,12.82,12.82,0,0,1-2.31-1.06,3.36,3.36,0,0,1-1-1,2.76,2.76,0,0,1-.33-1.38,2.6,2.6,0,0,1,1.16-2.25,5.42,5.42,0,0,1,3.19-.83,9.34,9.34,0,0,1,3.68.77L125,766.9a8.32,8.32,0,0,0-3.18-.73,3.61,3.61,0,0,0-1.9.4,1.2,1.2,0,0,0-.64,1.08,1.31,1.31,0,0,0,.24.8,2.43,2.43,0,0,0,.77.63,17.8,17.8,0,0,0,2,.87,7.61,7.61,0,0,1,2.81,1.52A2.72,2.72,0,0,1,125.87,773.4Z"/><path class="cls-30" d="M145.59,770.73a6.46,6.46,0,0,1-1.44,4.47,5.05,5.05,0,0,1-4,1.6,5.25,5.25,0,0,1-2.78-.74,4.84,4.84,0,0,1-1.88-2.11,7.35,7.35,0,0,1-.66-3.22,6.42,6.42,0,0,1,1.43-4.45,5,5,0,0,1,4-1.59,4.94,4.94,0,0,1,3.9,1.63A6.43,6.43,0,0,1,145.59,770.73Zm-8.9,0a5.55,5.55,0,0,0,.9,3.42,3.09,3.09,0,0,0,2.63,1.17,3.13,3.13,0,0,0,2.64-1.17,5.53,5.53,0,0,0,.9-3.42,5.43,5.43,0,0,0-.9-3.38,3.17,3.17,0,0,0-2.66-1.16,3.11,3.11,0,0,0-2.62,1.14A5.52,5.52,0,0,0,136.69,770.73Z"/><path class="cls-30" d="M157.23,776.59V769a3,3,0,0,0-.65-2.13,2.63,2.63,0,0,0-2-.71,3.35,3.35,0,0,0-2.69,1,5,5,0,0,0-.85,3.27v6.13h-1.77V764.9h1.44l.29,1.6h.08a3.59,3.59,0,0,1,1.52-1.33,5,5,0,0,1,2.19-.48,4.44,4.44,0,0,1,3.18,1A4.33,4.33,0,0,1,159,769v7.62Z"/><path class="cls-30" d="M534.71,776.59l-1.94-5h-6.24l-1.92,5h-1.84l6.16-15.65h1.53l6.13,15.65Zm-2.5-6.59-1.82-4.83q-.35-.92-.72-2.25a21.66,21.66,0,0,1-.67,2.25L527.17,770Z"/><path class="cls-30" d="M542.78,775.34a5.41,5.41,0,0,0,.91-.07,6.82,6.82,0,0,0,.69-.14v1.35a3.23,3.23,0,0,1-.85.23,6.37,6.37,0,0,1-1,.09q-3.39,0-3.39-3.57v-7h-1.68v-.85l1.68-.74.74-2.49h1v2.7h3.39v1.38h-3.39v6.87a2.31,2.31,0,0,0,.5,1.62A1.72,1.72,0,0,0,542.78,775.34Z"/><path class="cls-30" d="M551,775.34a5.33,5.33,0,0,0,.91-.07,6.82,6.82,0,0,0,.69-.14v1.35a3.25,3.25,0,0,1-.84.23,6.49,6.49,0,0,1-1,.09q-3.39,0-3.39-3.57v-7h-1.67v-.85l1.67-.74.75-2.49h1v2.7h3.39v1.38h-3.39v6.87a2.31,2.31,0,0,0,.5,1.62A1.72,1.72,0,0,0,551,775.34Z"/><path class="cls-30" d="M562.7,776.59l-.35-1.67h-.09a4.82,4.82,0,0,1-1.74,1.49,5.33,5.33,0,0,1-2.17.39,3.86,3.86,0,0,1-2.72-.9,3.23,3.23,0,0,1-1-2.54q0-3.54,5.66-3.71l2-.07v-.72a3,3,0,0,0-.59-2,2.42,2.42,0,0,0-1.89-.66,7.68,7.68,0,0,0-3.31.9l-.54-1.36a8.73,8.73,0,0,1,1.89-.73,8.09,8.09,0,0,1,2.06-.27,4.44,4.44,0,0,1,3.1.93,3.88,3.88,0,0,1,1,3v8Zm-4-1.25a3.58,3.58,0,0,0,2.6-.91,3.37,3.37,0,0,0,.94-2.53v-1.06l-1.77.08a6.39,6.39,0,0,0-3,.65,2,2,0,0,0-.94,1.81,1.83,1.83,0,0,0,.59,1.46A2.4,2.4,0,0,0,558.7,775.34Z"/><path class="cls-30" d="M572.87,776.8a5,5,0,0,1-3.93-1.56,6.42,6.42,0,0,1-1.39-4.42,6.64,6.64,0,0,1,1.41-4.53,5.06,5.06,0,0,1,4-1.6,8,8,0,0,1,1.69.18,5.66,5.66,0,0,1,1.32.43l-.54,1.5a10.17,10.17,0,0,0-1.28-.39,5.86,5.86,0,0,0-1.23-.15q-3.56,0-3.56,4.54a5.38,5.38,0,0,0,.87,3.3,3,3,0,0,0,2.57,1.15,8,8,0,0,0,3-.62v1.56A6.32,6.32,0,0,1,572.87,776.8Z"/><path class="cls-30" d="M580.89,770.61a18.85,18.85,0,0,1,1.39-1.71l3.77-4h2.1l-4.73,5,5.06,6.71h-2.14l-4.12-5.52-1.33,1.15v4.37h-1.75V760h1.75v8.79c0,.4,0,1-.09,1.82Z"/><path class="cls-30" d="M598.68,773.4a2.91,2.91,0,0,1-1.22,2.51,5.64,5.64,0,0,1-3.41.89,7.38,7.38,0,0,1-3.62-.74v-1.64a8.24,8.24,0,0,0,1.8.67,7.34,7.34,0,0,0,1.86.25,4.23,4.23,0,0,0,2.13-.44,1.53,1.53,0,0,0,.16-2.52,9.47,9.47,0,0,0-2.31-1.14,13,13,0,0,1-2.32-1.06,3.22,3.22,0,0,1-1-1,2.77,2.77,0,0,1-.34-1.38,2.61,2.61,0,0,1,1.17-2.25,5.39,5.39,0,0,1,3.18-.83,9.35,9.35,0,0,1,3.69.77l-.63,1.44a8.32,8.32,0,0,0-3.18-.73,3.58,3.58,0,0,0-1.9.4,1.2,1.2,0,0,0-.64,1.08,1.31,1.31,0,0,0,.24.8,2.43,2.43,0,0,0,.77.63,17.8,17.8,0,0,0,2,.87,7.7,7.7,0,0,1,2.81,1.52A2.72,2.72,0,0,1,598.68,773.4Z"/><path class="cls-30" d="M618.4,770.73A6.46,6.46,0,0,1,617,775.2a5.05,5.05,0,0,1-4,1.6,5.29,5.29,0,0,1-2.79-.74,4.82,4.82,0,0,1-1.87-2.11,7.35,7.35,0,0,1-.66-3.22,6.46,6.46,0,0,1,1.42-4.45,5.08,5.08,0,0,1,4-1.59,5,5,0,0,1,3.9,1.63A6.43,6.43,0,0,1,618.4,770.73Zm-8.9,0a5.55,5.55,0,0,0,.9,3.42,3.09,3.09,0,0,0,2.63,1.17,3.13,3.13,0,0,0,2.64-1.17,5.53,5.53,0,0,0,.9-3.42,5.43,5.43,0,0,0-.9-3.38,3.17,3.17,0,0,0-2.66-1.16,3.13,3.13,0,0,0-2.63,1.14A5.52,5.52,0,0,0,609.5,770.73Z"/><path class="cls-30" d="M630,776.59V769a3.07,3.07,0,0,0-.65-2.13,2.64,2.64,0,0,0-2-.71,3.32,3.32,0,0,0-2.68,1,5,5,0,0,0-.85,3.27v6.13h-1.77V764.9h1.44l.28,1.6h.09a3.59,3.59,0,0,1,1.52-1.33,4.92,4.92,0,0,1,2.19-.48,4.43,4.43,0,0,1,3.17,1,4.33,4.33,0,0,1,1.07,3.26v7.62Z"/><path class="cls-30" d="M38.42,801.83V786.24h3.3V799.1H48v2.73Z"/><path class="cls-30" d="M61.54,795.85A6.42,6.42,0,0,1,60,800.4,5.57,5.57,0,0,1,55.74,802a6,6,0,0,1-3-.75,5,5,0,0,1-2-2.16,7.23,7.23,0,0,1-.7-3.28,6.39,6.39,0,0,1,1.52-4.54,5.62,5.62,0,0,1,4.29-1.62,6.13,6.13,0,0,1,3,.74,5,5,0,0,1,2,2.15A7.16,7.16,0,0,1,61.54,795.85Zm-8.24,0a4.94,4.94,0,0,0,.59,2.67,2.41,2.41,0,0,0,3.76,0,5.09,5.09,0,0,0,.57-2.68,4.88,4.88,0,0,0-.58-2.66,2.45,2.45,0,0,0-3.76,0A4.93,4.93,0,0,0,53.3,795.85Z"/><path class="cls-30" d="M69.29,802q-5.57,0-5.57-6.11a6.52,6.52,0,0,1,1.52-4.64,5.65,5.65,0,0,1,4.33-1.6,8.26,8.26,0,0,1,3.71.81l-1,2.51c-.51-.2-1-.37-1.42-.5a4.38,4.38,0,0,0-1.33-.2q-2.53,0-2.53,3.6t2.53,3.5a6,6,0,0,0,1.74-.25,6.25,6.25,0,0,0,1.6-.79v2.79a5.49,5.49,0,0,1-1.59.69A8.91,8.91,0,0,1,69.29,802Z"/><path class="cls-30" d="M83.46,801.83l-.63-1.62h-.09a4.75,4.75,0,0,1-1.69,1.43,5.38,5.38,0,0,1-2.26.4,3.65,3.65,0,0,1-2.7-1,3.74,3.74,0,0,1-1-2.79,3.13,3.13,0,0,1,1.33-2.8,7.74,7.74,0,0,1,4-1l2.07-.06v-.52a1.63,1.63,0,0,0-1.86-1.82,8.35,8.35,0,0,0-3.35.87l-1.08-2.2a9.64,9.64,0,0,1,4.56-1.07,5.66,5.66,0,0,1,3.68,1,3.88,3.88,0,0,1,1.28,3.18v7.94Zm-1-5.52-1.26,0a4.08,4.08,0,0,0-2.11.51,1.61,1.61,0,0,0-.69,1.43c0,.91.52,1.37,1.57,1.37a2.47,2.47,0,0,0,1.81-.65,2.28,2.28,0,0,0,.68-1.72Z"/><path class="cls-30" d="M92.54,801.83H89.29V785.24h3.25Z"/><path class="cls-30" d="M115.25,793.89a7.67,7.67,0,0,1-2.19,5.89,9,9,0,0,1-6.33,2.05h-4.41V786.24h4.89a8.27,8.27,0,0,1,5.93,2A7.43,7.43,0,0,1,115.25,793.89Zm-3.44.08c0-3.35-1.47-5-4.43-5h-1.76V799.1H107Q111.81,799.1,111.81,794Z"/><path class="cls-30" d="M123.83,802a6.15,6.15,0,0,1-4.5-1.59,6,6,0,0,1-1.62-4.5,6.61,6.61,0,0,1,1.5-4.63,5.33,5.33,0,0,1,4.14-1.63,5.26,5.26,0,0,1,3.94,1.44,5.45,5.45,0,0,1,1.4,4v1.58H121a3.11,3.11,0,0,0,.82,2.16,2.88,2.88,0,0,0,2.15.78,8.92,8.92,0,0,0,2-.22,10.12,10.12,0,0,0,2-.72v2.52a8,8,0,0,1-1.82.63A11.44,11.44,0,0,1,123.83,802Zm-.46-10a2.05,2.05,0,0,0-1.62.66,3,3,0,0,0-.67,1.85h4.56a2.68,2.68,0,0,0-.62-1.85A2.15,2.15,0,0,0,123.37,792Z"/><path class="cls-30" d="M134.39,801.83l-4.54-11.92h3.4l2.3,6.79a11.54,11.54,0,0,1,.48,2.44h.06a11.18,11.18,0,0,1,.48-2.44l2.3-6.79h3.4l-4.55,11.92Z"/><path class="cls-30" d="M144.05,786.83q0-1.59,1.77-1.59t1.77,1.59a1.58,1.58,0,0,1-.44,1.18,1.88,1.88,0,0,1-1.33.42C144.64,788.43,144.05,787.9,144.05,786.83Zm3.39,15h-3.25V789.91h3.25Z"/><path class="cls-30" d="M155.91,802q-5.57,0-5.57-6.11a6.52,6.52,0,0,1,1.52-4.64,5.67,5.67,0,0,1,4.34-1.6,8.29,8.29,0,0,1,3.71.81L159,793c-.52-.2-1-.37-1.43-.5a4.32,4.32,0,0,0-1.32-.2q-2.53,0-2.54,3.6t2.54,3.5a6,6,0,0,0,1.73-.25,6.1,6.1,0,0,0,1.6-.79v2.79a5.26,5.26,0,0,1-1.59.69A8.85,8.85,0,0,1,155.91,802Z"/><path class="cls-30" d="M167.9,802a6.14,6.14,0,0,1-4.49-1.59,6,6,0,0,1-1.62-4.5,6.66,6.66,0,0,1,1.49-4.63,5.34,5.34,0,0,1,4.15-1.63,5.25,5.25,0,0,1,3.93,1.44,5.41,5.41,0,0,1,1.41,4v1.58h-7.69a3.11,3.11,0,0,0,.82,2.16,2.88,2.88,0,0,0,2.15.78,8.92,8.92,0,0,0,2-.22,9.9,9.9,0,0,0,2-.72v2.52a7.83,7.83,0,0,1-1.82.63A11.44,11.44,0,0,1,167.9,802Zm-.45-10a2.05,2.05,0,0,0-1.62.66,3,3,0,0,0-.68,1.85h4.57a2.73,2.73,0,0,0-.63-1.85A2.12,2.12,0,0,0,167.45,792Z"/><path class="cls-30" d="M512.29,802.74V787.15h3.31V800h6.32v2.73Z"/><path class="cls-30" d="M535.42,796.76a6.43,6.43,0,0,1-1.54,4.55,5.57,5.57,0,0,1-4.27,1.64,6,6,0,0,1-3-.75,5,5,0,0,1-2-2.16,7.24,7.24,0,0,1-.71-3.28,6.35,6.35,0,0,1,1.53-4.54,5.58,5.58,0,0,1,4.28-1.62,6,6,0,0,1,3,.74,5,5,0,0,1,2,2.14A7.24,7.24,0,0,1,535.42,796.76Zm-8.24,0a5,5,0,0,0,.58,2.67,2.07,2.07,0,0,0,1.89.91,2,2,0,0,0,1.87-.9,5.09,5.09,0,0,0,.57-2.68,5,5,0,0,0-.57-2.66,2.46,2.46,0,0,0-3.77,0A4.94,4.94,0,0,0,527.18,796.76Z"/><path class="cls-30" d="M543.16,803q-5.56,0-5.56-6.11a6.51,6.51,0,0,1,1.51-4.64,5.67,5.67,0,0,1,4.34-1.6,8.29,8.29,0,0,1,3.71.81l-1,2.51c-.51-.21-1-.37-1.43-.51a4.63,4.63,0,0,0-1.32-.19q-2.54,0-2.54,3.6t2.54,3.5a6.1,6.1,0,0,0,1.74-.25,6.2,6.2,0,0,0,1.59-.79v2.78a5.06,5.06,0,0,1-1.59.7A9.45,9.45,0,0,1,543.16,803Z"/><path class="cls-30" d="M557.33,802.74l-.63-1.62h-.08a5,5,0,0,1-1.69,1.43,5.43,5.43,0,0,1-2.27.4,3.68,3.68,0,0,1-2.7-1,3.77,3.77,0,0,1-1-2.79,3.15,3.15,0,0,1,1.33-2.8,7.67,7.67,0,0,1,4-1l2.07-.06v-.53a1.62,1.62,0,0,0-1.85-1.81,8.39,8.39,0,0,0-3.36.87l-1.08-2.2a9.65,9.65,0,0,1,4.56-1.08,5.66,5.66,0,0,1,3.68,1,3.86,3.86,0,0,1,1.28,3.17v8Zm-1-5.53-1.26,0a4.08,4.08,0,0,0-2.11.51,1.61,1.61,0,0,0-.69,1.43c0,.91.53,1.37,1.58,1.37a2.46,2.46,0,0,0,1.8-.65,2.25,2.25,0,0,0,.68-1.73Z"/><path class="cls-30" d="M566.42,802.74h-3.25V786.15h3.25Z"/><path class="cls-30" d="M589.12,794.79a7.69,7.69,0,0,1-2.19,5.9,9,9,0,0,1-6.33,2h-4.41V787.15h4.89a8.21,8.21,0,0,1,5.93,2A7.39,7.39,0,0,1,589.12,794.79Zm-3.43.09q0-5-4.44-5h-1.76V800h1.42C584.09,800,585.69,798.3,585.69,794.88Z"/><path class="cls-30" d="M597.7,803a6.14,6.14,0,0,1-4.49-1.59,6,6,0,0,1-1.62-4.5,6.66,6.66,0,0,1,1.49-4.63,5.34,5.34,0,0,1,4.15-1.63,5.24,5.24,0,0,1,3.93,1.43,5.45,5.45,0,0,1,1.41,4v1.58h-7.69a3.16,3.16,0,0,0,.82,2.16,2.88,2.88,0,0,0,2.15.78,9.52,9.52,0,0,0,2-.22,9.9,9.9,0,0,0,2-.72v2.52a7.83,7.83,0,0,1-1.82.63A11.38,11.38,0,0,1,597.7,803Zm-.45-10a2.08,2.08,0,0,0-1.62.65,3.08,3.08,0,0,0-.68,1.86h4.57a2.78,2.78,0,0,0-.63-1.86A2.15,2.15,0,0,0,597.25,792.91Z"/><path class="cls-30" d="M608.26,802.74l-4.54-11.92h3.4l2.3,6.79a11.54,11.54,0,0,1,.48,2.44H610a10,10,0,0,1,.48-2.44l2.29-6.79h3.4l-4.54,11.92Z"/><path class="cls-30" d="M617.92,787.74q0-1.59,1.77-1.59t1.77,1.59a1.54,1.54,0,0,1-.44,1.18,1.88,1.88,0,0,1-1.33.42C618.51,789.34,617.92,788.8,617.92,787.74Zm3.39,15h-3.25V790.82h3.25Z"/><path class="cls-30" d="M629.78,803q-5.56,0-5.56-6.11a6.51,6.51,0,0,1,1.51-4.64,5.68,5.68,0,0,1,4.34-1.6,8.29,8.29,0,0,1,3.71.81l-1,2.51c-.51-.21-1-.37-1.43-.51a4.63,4.63,0,0,0-1.32-.19q-2.54,0-2.54,3.6t2.54,3.5a6.1,6.1,0,0,0,1.74-.25,6.42,6.42,0,0,0,1.6-.79v2.78a5.21,5.21,0,0,1-1.6.7A9.39,9.39,0,0,1,629.78,803Z"/><path class="cls-30" d="M641.78,803a6.15,6.15,0,0,1-4.5-1.59,6,6,0,0,1-1.62-4.5,6.61,6.61,0,0,1,1.5-4.63,5.31,5.31,0,0,1,4.14-1.63,5.24,5.24,0,0,1,3.93,1.43,5.45,5.45,0,0,1,1.41,4v1.58H639a3.16,3.16,0,0,0,.82,2.16,2.9,2.9,0,0,0,2.16.78,9.5,9.5,0,0,0,2-.22,10.19,10.19,0,0,0,2-.72v2.52a7.91,7.91,0,0,1-1.83.63A11.28,11.28,0,0,1,641.78,803Zm-.46-10a2.08,2.08,0,0,0-1.62.65,3,3,0,0,0-.67,1.86h4.56a2.73,2.73,0,0,0-.63-1.86A2.14,2.14,0,0,0,641.32,792.91Z"/><line class="cls-31" x1="255.45" y1="293.16" x2="254.56" y2="294.96"/><line class="cls-32" x1="252.77" y1="298.57" x2="160.78" y2="484.53"/><line class="cls-31" x1="159.89" y1="486.34" x2="159" y2="488.13"/><line class="cls-31" x1="255.45" y1="293.16" x2="239.07" y2="310.22"/><line class="cls-31" x1="282.28" y1="307.15" x2="281.4" y2="308.94"/><line class="cls-32" x1="279.61" y1="312.55" x2="187.62" y2="498.52"/><line class="cls-31" x1="186.73" y1="500.32" x2="185.84" y2="502.11"/><line class="cls-31" x1="201.93" y1="486.01" x2="185.56" y2="503.07"/><line class="cls-31" x1="425.4" y1="293.93" x2="426.29" y2="295.72"/><line class="cls-32" x1="428.08" y1="299.34" x2="520.07" y2="485.3"/><line class="cls-31" x1="520.96" y1="487.11" x2="521.85" y2="488.9"/><line class="cls-31" x1="400.32" y1="308.51" x2="401.21" y2="310.3"/><line class="cls-32" x1="403" y1="313.92" x2="494.99" y2="499.88"/><line class="cls-31" x1="495.88" y1="501.69" x2="496.76" y2="503.48"/><line class="cls-31" x1="425.98" y1="293.16" x2="442.36" y2="310.22"/><line class="cls-31" x1="480.56" y1="486.9" x2="496.93" y2="503.95"/><line class="cls-33" x1="403.47" y1="282.09" x2="523.21" y2="521.69"/><line class="cls-31" x1="448.11" y1="616.17" x2="446.11" y2="616.17"/><line class="cls-32" x1="442.08" y1="616.17" x2="234.61" y2="616.17"/><line class="cls-31" x1="232.59" y1="616.17" x2="230.59" y2="616.17"/><line class="cls-31" x1="252.03" y1="609.53" x2="231.92" y2="616.17"/><line class="cls-31" x1="446.87" y1="646.25" x2="426.76" y2="652.89"/><line class="cls-31" x1="446.4" y1="646.25" x2="444.4" y2="646.25"/><line class="cls-32" x1="440.37" y1="646.25" x2="232.9" y2="646.25"/><line class="cls-31" x1="230.89" y1="646.25" x2="228.89" y2="646.25"/><line class="cls-33" x1="279" y1="279.36" x2="159.26" y2="518.96"/><line class="cls-33" x1="448.54" y1="631.48" x2="230.83" y2="631.48"/></g></g></svg>