<svg xmlns="http://www.w3.org/2000/svg" xmlns:xlink="http://www.w3.org/1999/xlink" viewBox="0 0 501.27 637.44"><defs><style>.cls-1{fill:#fff;}.cls-1,.cls-25{stroke:#70b36c;}.cls-1,.cls-25,.cls-3,.cls-4,.cls-5,.cls-6,.cls-8{stroke-miterlimit:10;}.cls-2{fill:url(#Безымянный_градиент_18);}.cls-25,.cls-3,.cls-4,.cls-5,.cls-8{fill:none;}.cls-3,.cls-8{stroke-width:2px;}.cls-3{stroke:url(#Безымянный_градиент_18-2);}.cls-4,.cls-5,.cls-6{stroke:#39b468;}.cls-5{stroke-dasharray:3.97 3.97;}.cls-6,.cls-9{fill:#595959;}.cls-6{opacity:0.25;}.cls-7{fill:url(#Безымянный_градиент_18-3);}.cls-8{stroke:url(#Безымянный_градиент_18-4);}.cls-10{fill:url(#Безымянный_градиент_18-5);}.cls-11{fill:url(#Безымянный_градиент_18-6);}.cls-12{fill:url(#Безымянный_градиент_18-7);}.cls-13{fill:url(#Безымянный_градиент_18-8);}.cls-14{fill:url(#Безымянный_градиент_18-9);}.cls-15{fill:url(#Безымянный_градиент_18-10);}.cls-16{fill:url(#Безымянный_градиент_18-11);}.cls-17{fill:url(#Безымянный_градиент_18-12);}.cls-18{fill:url(#Безымянный_градиент_18-13);}.cls-19{fill:url(#Безымянный_градиент_18-14);}.cls-20{fill:url(#Безымянный_градиент_18-15);}.cls-21{fill:url(#Безымянный_градиент_18-16);}.cls-22{fill:url(#Безымянный_градиент_18-17);}.cls-23{fill:url(#Безымянный_градиент_18-18);}.cls-24{fill:url(#Безымянный_градиент_18-19);}</style><linearGradient id="Безымянный_градиент_18" x1="113.22" y1="479.31" x2="36.93" y2="555.61" gradientUnits="userSpaceOnUse"><stop offset="0" stop-color="#ffd67c"/><stop offset="1" stop-color="#70b36c"/></linearGradient><linearGradient id="Безымянный_градиент_18-2" x1="73.44" y1="443.83" x2="73.44" y2="590.7" xlink:href="#Безымянный_градиент_18"/><linearGradient id="Безымянный_градиент_18-3" x1="-1811.66" y1="487.5" x2="-1753.25" y2="545.91" gradientTransform="matrix(-1, 0, 0, 1, -1381.47, 0)" xlink:href="#Безымянный_градиент_18"/><linearGradient id="Безымянный_градиент_18-4" x1="407.1" y1="444.29" x2="407.1" y2="591.16" xlink:href="#Безымянный_градиент_18"/><linearGradient id="Безымянный_градиент_18-5" x1="251.34" y1="223.11" x2="231.9" y2="242.55" xlink:href="#Безымянный_градиент_18"/><linearGradient id="Безымянный_градиент_18-6" x1="328.91" y1="148.61" x2="309.46" y2="168.05" xlink:href="#Безымянный_градиент_18"/><linearGradient id="Безымянный_градиент_18-7" x1="171.14" y1="148.61" x2="151.69" y2="168.05" xlink:href="#Безымянный_градиент_18"/><linearGradient id="Безымянный_градиент_18-8" x1="52.91" y1="177.61" x2="33.46" y2="197.05" xlink:href="#Безымянный_градиент_18"/><linearGradient id="Безымянный_градиент_18-9" x1="39.16" y1="81.61" x2="19.71" y2="101.05" xlink:href="#Безымянный_градиент_18"/><linearGradient id="Безымянный_градиент_18-10" x1="145.55" y1="49.11" x2="126.1" y2="68.55" xlink:href="#Безымянный_градиент_18"/><linearGradient id="Безымянный_градиент_18-11" x1="284.05" y1="67.86" x2="264.6" y2="87.3" xlink:href="#Безымянный_градиент_18"/><linearGradient id="Безымянный_градиент_18-12" x1="446.05" y1="67.86" x2="426.6" y2="87.3" xlink:href="#Безымянный_градиент_18"/><linearGradient id="Безымянный_градиент_18-13" x1="487.05" y1="139.86" x2="467.6" y2="159.3" xlink:href="#Безымянный_градиент_18"/><linearGradient id="Безымянный_градиент_18-14" x1="418.57" y1="117.94" x2="411.46" y2="125.06" xlink:href="#Безымянный_градиент_18"/><linearGradient id="Безымянный_градиент_18-15" x1="368.58" y1="170.63" x2="361.15" y2="178.07" xlink:href="#Безымянный_градиент_18"/><linearGradient id="Безымянный_градиент_18-16" x1="321.57" y1="34.69" x2="314.46" y2="41.81" xlink:href="#Безымянный_градиент_18"/><linearGradient id="Безымянный_градиент_18-17" x1="423.61" y1="9.94" x2="416.49" y2="17.06" xlink:href="#Безымянный_градиент_18"/><linearGradient id="Безымянный_градиент_18-18" x1="294.86" y1="5.94" x2="287.74" y2="13.06" xlink:href="#Безымянный_градиент_18"/><linearGradient id="Безымянный_градиент_18-19" x1="105.61" y1="125.69" x2="98.49" y2="132.81" xlink:href="#Безымянный_градиент_18"/></defs><title>Ресурс 12</title><g id="Слой_2" data-name="Слой 2"><g id="Слой_1-2" data-name="Слой 1"><circle class="cls-1" cx="102.05" cy="129.25" r="9"/><circle class="cls-1" cx="318.02" cy="38.25" r="9"/><circle class="cls-1" cx="420.05" cy="13.5" r="9"/><circle class="cls-1" cx="415.02" cy="121.5" r="9"/><circle class="cls-1" cx="364.87" cy="174.35" r="9"/><circle class="cls-1" cx="291.3" cy="9.5" r="9"/><circle class="cls-1" cx="241.62" cy="232.83" r="21.72"/><circle class="cls-1" cx="274.32" cy="77.58" r="21.72"/><circle class="cls-1" cx="319.18" cy="158.33" r="21.72"/><circle class="cls-1" cx="436.32" cy="77.58" r="21.72"/><circle class="cls-1" cx="477.32" cy="149.58" r="21.72"/><circle class="cls-1" cx="161.41" cy="158.33" r="21.72"/><circle class="cls-1" cx="135.82" cy="58.83" r="21.72"/><circle class="cls-1" cx="29.43" cy="91.33" r="21.72"/><circle class="cls-1" cx="43.18" cy="187.33" r="21.72"/><path id="Forma_1" data-name="Forma 1" class="cls-2" d="M76.88,550.19l2.37-1.37a2.39,2.39,0,0,1,2.41-.08,2.7,2.7,0,0,1,1.23,2.44v2.19a4.8,4.8,0,0,1-2.14,4l-2.37,1.37a2.63,2.63,0,0,1-1.31.36,2,2,0,0,1-1.1-.3,2.68,2.68,0,0,1-1.24-2.42v-2.21A4.8,4.8,0,0,1,76.88,550.19Zm.85,5.44,1.52-.87a2,2,0,0,0,.65-1.39v-1.46l-1.51.88a1.91,1.91,0,0,0-.66,1.37Zm-.1,1.79-.75-1.29h0ZM51,508a1.5,1.5,0,0,1,1.73,2.44,37.08,37.08,0,0,0-12.16,16.49,1.5,1.5,0,0,1-2.89-.26,1.6,1.6,0,0,1,.08-.78A40.14,40.14,0,0,1,51,508Zm-8.12-11.23a22.19,22.19,0,0,1,6.31-2.55V488.6a9.92,9.92,0,0,1,4.56-7.89L87.43,461.2a4.46,4.46,0,0,1,3.49-.53,1.73,1.73,0,0,1,.37.11l.09,0h0l.12.05L99,465.18a1.13,1.13,0,0,1,.25.24A4.09,4.09,0,0,1,101,469v77.31a9.92,9.92,0,0,1-4.57,7.9L62.73,573.72a5,5,0,0,1-2.46.72,3.61,3.61,0,0,1-1.21-.23l-.11,0a1.05,1.05,0,0,1-.21-.06l-.16-.1-7.16-4.14-.27-.17-.09-.08a4.13,4.13,0,0,1-1.87-3.71V551.05a17.71,17.71,0,0,1-7.09,1.63,11.89,11.89,0,0,1-6-1.54l0,0h0l-7.43-4.31,0,0c-4.2-2.44-6.52-7.47-6.52-14.13C22.1,519.47,31.42,503.36,42.88,496.72Zm47.28-33.19s0,0,0,0a1.54,1.54,0,0,0-1.19.29l-33.67,19.5a6.93,6.93,0,0,0-3.07,5.29v5.18a12.39,12.39,0,0,1,4.48.64v-1.48A9.92,9.92,0,0,1,61.23,485l33-19.13ZM60,571.37l.06,0a1.53,1.53,0,0,0,1.17-.29l33.68-19.49a7,7,0,0,0,3.06-5.3v-70.2l-8.08,4.67a1.5,1.5,0,0,1-1.5-2.59L98,472.67V469a1.32,1.32,0,0,0-.4-1.17,1.47,1.47,0,0,0-1.18.28l-33.67,19.5a7,7,0,0,0-3.08,5.31v3l6.15,3.55,0,0,.23.11c4.23,2.45,6.56,7.48,6.56,14.17a37.81,37.81,0,0,1-2.7,13.4l3.32,9.54a1.5,1.5,0,0,1-.93,1.92l-.08,0-11,3c-.53.62-1.07,1.18-1.62,1.75v12.28l8.1-4.7A1.5,1.5,0,0,1,70,552.33a1.47,1.47,0,0,1-.75,1.29l-9.59,5.55v11.06a1.51,1.51,0,0,0,.36,1.14Zm-7.82-5.46a1.29,1.29,0,0,0,.4,1.16.87.87,0,0,1,.1.08h0l3.94,2.28V546.29a32.92,32.92,0,0,1-4.48,3.21v16.41ZM37.63,548.54c3.31,1.92,7.83,1.41,12.72-1.43a32.94,32.94,0,0,0,6.74-5.31l0,0c.74-.75,1.46-1.54,2.17-2.38a1.5,1.5,0,0,1,.74-.47l9.89-2.73-3-8.56a1.55,1.55,0,0,1,0-1,35.54,35.54,0,0,0,2.7-12.82c0-5.57-1.81-9.67-5.08-11.57s-7.83-1.4-12.72,1.43c-10.64,6.15-19.29,21.1-19.29,33.33,0,5.56,1.8,9.68,5.07,11.57Zm-7.52-4.37h0l.45.25,0,0,.29.17a21.17,21.17,0,0,1-1.3-7.64c0-13.18,9.33-29.3,20.78-35.93a21.53,21.53,0,0,1,7.43-2.76l-.35-.2h0l-.52-.3a9.43,9.43,0,0,0-6-.9,18.16,18.16,0,0,0-6.52,2.45c-10.64,6.15-19.29,21.11-19.29,33.32,0,5.55,1.79,9.65,5,11.53Z"/><circle class="cls-3" cx="73.44" cy="517.27" r="72.44"/><line class="cls-4" x1="182.86" y1="271.85" x2="181.97" y2="273.64"/><line class="cls-5" x1="180.21" y1="277.2" x2="114.24" y2="410.58"/><line class="cls-4" x1="113.36" y1="412.36" x2="112.47" y2="414.15"/><line class="cls-4" x1="182.86" y1="271.85" x2="170.91" y2="284.3"/><line class="cls-4" x1="202.45" y1="282.06" x2="201.56" y2="283.85"/><line class="cls-5" x1="199.8" y1="287.41" x2="133.82" y2="420.78"/><line class="cls-4" x1="132.94" y1="422.56" x2="132.06" y2="424.36"/><line class="cls-4" x1="143.8" y1="412.6" x2="131.85" y2="425.05"/><line class="cls-6" x1="200.05" y1="261.78" x2="116.13" y2="429.71"/><path id="Forma_1-2" data-name="Forma 1" class="cls-7" d="M399.19,549.43l-2.37-1.37a2.39,2.39,0,0,0-2.41-.08,2.67,2.67,0,0,0-1.23,2.44v2.2a4.78,4.78,0,0,0,2.14,4l2.37,1.37a2.64,2.64,0,0,0,1.31.37,2.14,2.14,0,0,0,1.1-.3,2.7,2.7,0,0,0,1.24-2.43V553.4A4.83,4.83,0,0,0,399.19,549.43Zm-.86,5.44-1.51-.87a2,2,0,0,1-.65-1.38v-1.47l1.52.88a1.92,1.92,0,0,1,.65,1.37Zm.11,1.8.75-1.3h0Zm26.62-49.48a1.5,1.5,0,0,0-1.72,2.45,37,37,0,0,1,12.16,16.49,1.53,1.53,0,0,0,1.16,1,1.5,1.5,0,0,0,1.72-1.24,1.39,1.39,0,0,0-.08-.78,40.19,40.19,0,0,0-13.24-17.89ZM433.19,496a22.78,22.78,0,0,0-6.31-2.55v-5.56a9.93,9.93,0,0,0-4.56-7.9l-33.69-19.5a4.43,4.43,0,0,0-3.48-.54,2.26,2.26,0,0,0-.37.11.16.16,0,0,1-.09,0h0l-.12.05-7.48,4.33a1.13,1.13,0,0,0-.26.23,4.12,4.12,0,0,0-1.71,3.61v77.31a9.92,9.92,0,0,0,4.56,7.89L413.34,573a5.17,5.17,0,0,0,2.45.72,3.77,3.77,0,0,0,1.21-.23l.12,0,.21-.07.15-.09,7.17-4.15.27-.16.09-.09a4.13,4.13,0,0,0,1.87-3.7V550.3a17.88,17.88,0,0,0,7.09,1.63,11.74,11.74,0,0,0,6-1.55l.05,0h0l7.43-4.3,0,0c4.2-2.45,6.52-7.48,6.52-14.14C454,518.71,444.64,502.6,433.19,496Zm-47.28-33.18h0a1.5,1.5,0,0,1,1.19.29l33.67,19.49a6.91,6.91,0,0,1,3.06,5.3V493a12.14,12.14,0,0,0-4.47.63v-1.48a10,10,0,0,0-4.57-7.91l-33-19.12Zm30.15,107.84-.05,0a1.56,1.56,0,0,1-1.17-.29l-33.68-19.5a7,7,0,0,1-3.06-5.29v-70.2l8.08,4.67a1.49,1.49,0,1,0,1.49-2.59l-9.57-5.55v-3.64a1.3,1.3,0,0,1,.4-1.17,1.48,1.48,0,0,1,1.17.27l33.68,19.5a7,7,0,0,1,3.08,5.31v3l-6.15,3.56,0,0-.23.1c-4.23,2.46-6.56,7.49-6.56,14.17a38,38,0,0,0,2.69,13.41L402.81,536a1.51,1.51,0,0,0,.94,1.92l.08,0,11,3c.52.63,1.07,1.18,1.62,1.76V555l-8.1-4.69a1.54,1.54,0,0,0-1.5,0,1.51,1.51,0,0,0,0,2.6l9.6,5.54v11.07a1.5,1.5,0,0,1-.37,1.14Zm7.82-5.46a1.29,1.29,0,0,1-.39,1.16l-.11.08h0l-3.94,2.28V545.54a33.39,33.39,0,0,0,4.47,3.2v16.42Zm14.56-17.38c-3.31,1.92-7.83,1.41-12.72-1.43a33.24,33.24,0,0,1-6.74-5.3l0,0c-.74-.76-1.47-1.55-2.18-2.38a1.47,1.47,0,0,0-.74-.48l-9.88-2.73,3-8.55a1.58,1.58,0,0,0,0-1,35.49,35.49,0,0,1-2.7-12.82c0-5.56,1.8-9.67,5.08-11.57s7.83-1.4,12.72,1.43c10.64,6.15,19.29,21.11,19.29,33.33,0,5.57-1.8,9.68-5.07,11.57Zm7.52-4.36h0l-.45.25,0,0-.29.17a21.67,21.67,0,0,0,1.3-7.65c0-13.18-9.33-29.3-20.78-35.93a21.59,21.59,0,0,0-7.43-2.75l.34-.2h0l.53-.31a9.41,9.41,0,0,1,6-.89,18.4,18.4,0,0,1,6.52,2.44c10.63,6.15,19.29,21.11,19.29,33.32,0,5.55-1.79,9.66-5,11.54Z"/><circle class="cls-8" cx="407.1" cy="517.73" r="72.44"/><line class="cls-4" x1="298.46" y1="274.85" x2="299.35" y2="276.64"/><line class="cls-5" x1="301.11" y1="280.2" x2="367.08" y2="413.58"/><line class="cls-4" x1="367.96" y1="415.36" x2="368.85" y2="417.15"/><line class="cls-4" x1="298.46" y1="274.85" x2="310.41" y2="287.3"/><line class="cls-4" x1="278.87" y1="285.06" x2="279.76" y2="286.85"/><line class="cls-5" x1="281.52" y1="290.41" x2="347.49" y2="423.78"/><line class="cls-4" x1="348.37" y1="425.56" x2="349.26" y2="427.36"/><line class="cls-4" x1="337.52" y1="415.6" x2="349.47" y2="428.05"/><line class="cls-6" x1="281.27" y1="264.78" x2="366.98" y2="436.28"/><line class="cls-4" x1="159.37" y1="504.45" x2="161.37" y2="504.47"/><line class="cls-5" x1="165.34" y1="504.51" x2="314.13" y2="505.83"/><line class="cls-4" x1="316.12" y1="505.84" x2="318.12" y2="505.86"/><line class="cls-4" x1="159.37" y1="504.45" x2="175.87" y2="499.41"/><line class="cls-4" x1="159.64" y1="526.54" x2="161.63" y2="526.56"/><line class="cls-5" x1="165.6" y1="526.59" x2="314.4" y2="527.91"/><line class="cls-4" x1="316.38" y1="527.93" x2="318.38" y2="527.95"/><line class="cls-4" x1="302.6" y1="533.12" x2="319.1" y2="528.08"/><line class="cls-6" x1="158.87" y1="515.33" x2="317.87" y2="516.09"/><path class="cls-9" d="M24.06,298.08H22.49l-4.16-5.54-1.19,1.07v4.47H15.81V286.66h1.33v5.66l5.17-5.66h1.58l-4.6,5Z"/><path class="cls-9" d="M28.65,298.24a3.94,3.94,0,0,1-3-1.16,4.48,4.48,0,0,1-1.1-3.21,5,5,0,0,1,1-3.29,3.41,3.41,0,0,1,2.74-1.22,3.25,3.25,0,0,1,2.55,1.06,4.09,4.09,0,0,1,.94,2.79V294H25.9a3.41,3.41,0,0,0,.76,2.28,2.64,2.64,0,0,0,2,.79,7,7,0,0,0,2.73-.58v1.15a6.17,6.17,0,0,1-2.78.56Zm-.35-7.79a2.12,2.12,0,0,0-1.65.67,3.08,3.08,0,0,0-.72,1.86h4.48a2.89,2.89,0,0,0-.55-1.88A1.94,1.94,0,0,0,28.3,290.45Z"/><path class="cls-9" d="M32.25,289.52h1.39l1.87,4.88a17.65,17.65,0,0,1,.77,2.42h.06c.07-.27.21-.72.43-1.37s.92-2.62,2.12-5.93h1.39l-3.68,9.75a4.79,4.79,0,0,1-1.28,2.05,2.71,2.71,0,0,1-1.79.61,5.13,5.13,0,0,1-1.17-.14v-1a4,4,0,0,0,1,.1,2,2,0,0,0,1.91-1.5l.47-1.22Z"/><path class="cls-9" d="M51.59,298.08H45.22V286.66h6.37v1.18h-5v3.68h4.74v1.17H46.55v4.2h5Z"/><path class="cls-9" d="M55.59,293.7l-3-4.18h1.48l2.26,3.28,2.25-3.28h1.46l-3,4.18,3.13,4.38H58.74l-2.39-3.47-2.43,3.47H52.46Z"/><path class="cls-9" d="M64.93,298.24a3.64,3.64,0,0,1-2.88-1.15,4.69,4.69,0,0,1-1-3.23,4.84,4.84,0,0,1,1-3.32A3.7,3.7,0,0,1,65,289.36a5.73,5.73,0,0,1,1.23.14,3.82,3.82,0,0,1,1,.31l-.4,1.1a7.43,7.43,0,0,0-.94-.29,4.49,4.49,0,0,0-.9-.11c-1.73,0-2.6,1.11-2.6,3.33a4,4,0,0,0,.63,2.42,2.24,2.24,0,0,0,1.89.85,5.72,5.72,0,0,0,2.19-.47v1.15A4.61,4.61,0,0,1,64.93,298.24Z"/><path class="cls-9" d="M74.59,298.08v-5.54a2.21,2.21,0,0,0-.48-1.56,2,2,0,0,0-1.49-.52,2.47,2.47,0,0,0-2,.74,3.75,3.75,0,0,0-.62,2.41v4.47H68.73V285.93H70v3.68a8.33,8.33,0,0,1-.06,1.1H70a2.67,2.67,0,0,1,1.09-1,3.63,3.63,0,0,1,1.61-.35,3.35,3.35,0,0,1,2.36.74,3.17,3.17,0,0,1,.78,2.38v5.58Z"/><path class="cls-9" d="M83.41,298.08l-.26-1.22h-.06A3.55,3.55,0,0,1,81.81,298a3.86,3.86,0,0,1-1.59.29,2.85,2.85,0,0,1-2-.66,2.4,2.4,0,0,1-.72-1.87c0-1.72,1.38-2.63,4.14-2.71l1.46-.05v-.53a2.17,2.17,0,0,0-.44-1.49,1.78,1.78,0,0,0-1.38-.48,5.67,5.67,0,0,0-2.43.66l-.39-1a6.08,6.08,0,0,1,2.89-.73,3.26,3.26,0,0,1,2.27.68,2.8,2.8,0,0,1,.74,2.18v5.84Zm-2.93-.91a2.59,2.59,0,0,0,1.9-.67,2.42,2.42,0,0,0,.7-1.86v-.77l-1.3.06a4.55,4.55,0,0,0-2.23.48,1.43,1.43,0,0,0-.69,1.32,1.34,1.34,0,0,0,.43,1.07A1.73,1.73,0,0,0,80.48,297.17Z"/><path class="cls-9" d="M92.5,298.08v-5.54A2.21,2.21,0,0,0,92,291a2,2,0,0,0-1.49-.52,2.46,2.46,0,0,0-2,.73,3.67,3.67,0,0,0-.63,2.4v4.49h-1.3v-8.56H87.7l.21,1.17H88a2.68,2.68,0,0,1,1.12-1,3.65,3.65,0,0,1,1.6-.35,3.25,3.25,0,0,1,2.33.75,3.18,3.18,0,0,1,.78,2.39v5.58Z"/><path class="cls-9" d="M103.07,289.52v.82l-1.58.19a3.1,3.1,0,0,1,.39.71,2.87,2.87,0,0,1,.17,1,2.54,2.54,0,0,1-.86,2,3.46,3.46,0,0,1-2.36.75,3.38,3.38,0,0,1-.72-.07,1.29,1.29,0,0,0-.83,1.11.55.55,0,0,0,.29.51,2,2,0,0,0,1,.17h1.52a3.41,3.41,0,0,1,2.14.59A2.05,2.05,0,0,1,103,299a2.44,2.44,0,0,1-1.14,2.17,6.08,6.08,0,0,1-3.33.75,4.53,4.53,0,0,1-2.59-.63,2,2,0,0,1-.91-1.76,2,2,0,0,1,.5-1.36,2.62,2.62,0,0,1,1.41-.77,1.35,1.35,0,0,1-.55-.46,1.21,1.21,0,0,1-.22-.73,1.37,1.37,0,0,1,.25-.82,2.62,2.62,0,0,1,.79-.68,2.28,2.28,0,0,1-1.09-.93,2.76,2.76,0,0,1-.41-1.5,2.8,2.8,0,0,1,.84-2.17,3.48,3.48,0,0,1,2.39-.76,4.49,4.49,0,0,1,1.21.16Zm-6.83,10a1.16,1.16,0,0,0,.59,1.05,3.23,3.23,0,0,0,1.68.36,4.78,4.78,0,0,0,2.42-.48,1.51,1.51,0,0,0,.78-1.33,1,1,0,0,0-.43-1,3.29,3.29,0,0,0-1.61-.27H98.11a2,2,0,0,0-1.37.42A1.5,1.5,0,0,0,96.24,299.52Zm.71-7.26a1.74,1.74,0,0,0,.51,1.36,2,2,0,0,0,1.41.46,1.65,1.65,0,0,0,1.9-1.84,1.7,1.7,0,0,0-1.92-1.93,1.91,1.91,0,0,0-1.41.49A2,2,0,0,0,97,292.26Z"/><path class="cls-9" d="M108.05,298.24a3.94,3.94,0,0,1-3-1.16,4.48,4.48,0,0,1-1.1-3.21,5,5,0,0,1,1-3.29,3.41,3.41,0,0,1,2.74-1.22,3.27,3.27,0,0,1,2.55,1.06,4.09,4.09,0,0,1,.94,2.79V294h-5.9a3.36,3.36,0,0,0,.76,2.28,2.64,2.64,0,0,0,2,.79,7,7,0,0,0,2.74-.58v1.15a6.17,6.17,0,0,1-2.78.56Zm-.35-7.79a2.12,2.12,0,0,0-1.65.67,3.08,3.08,0,0,0-.72,1.86h4.47a2.89,2.89,0,0,0-.54-1.88A2,2,0,0,0,107.7,290.45Z"/><path class="cls-9" d="M118.64,298.08l-3.25-8.56h1.39l1.84,5.08c.42,1.19.66,2,.74,2.31h.06q.09-.42.54-1.71t2.05-5.68h1.39l-3.25,8.56Z"/><path class="cls-9" d="M124.27,287.2a.82.82,0,0,1,.22-.65.8.8,0,0,1,1.08,0,1,1,0,0,1,0,1.3.77.77,0,0,1-1.08,0A.85.85,0,0,1,124.27,287.2Zm1.41,10.88h-1.3v-8.56h1.3Z"/><path class="cls-9" d="M133.29,298.08l-.26-1.22H133a3.55,3.55,0,0,1-1.28,1.09,3.86,3.86,0,0,1-1.59.29,2.85,2.85,0,0,1-2-.66,2.4,2.4,0,0,1-.72-1.87c0-1.72,1.38-2.63,4.14-2.71L133,293v-.53a2.17,2.17,0,0,0-.44-1.49,1.78,1.78,0,0,0-1.38-.48,5.67,5.67,0,0,0-2.43.66l-.39-1a6.08,6.08,0,0,1,2.89-.73,3.28,3.28,0,0,1,2.27.68,2.8,2.8,0,0,1,.74,2.18v5.84Zm-2.93-.91a2.59,2.59,0,0,0,1.9-.67,2.46,2.46,0,0,0,.7-1.86v-.77l-1.3.06a4.55,4.55,0,0,0-2.23.48,1.43,1.43,0,0,0-.69,1.32,1.34,1.34,0,0,0,.43,1.07A1.73,1.73,0,0,0,130.36,297.17Z"/><path class="cls-9" d="M34.49,305.86H38a6.87,6.87,0,0,1,3.53.69,2.42,2.42,0,0,1,1.1,2.2,2.78,2.78,0,0,1-.48,1.68,1.92,1.92,0,0,1-1.28.79v.08a2.51,2.51,0,0,1,1.57.9A3,3,0,0,1,43,314a2.93,2.93,0,0,1-1.13,2.44,4.91,4.91,0,0,1-3.07.87H34.49Zm2.42,4.52h1.41a2.59,2.59,0,0,0,1.42-.3,1.12,1.12,0,0,0,.44-1,1,1,0,0,0-.48-.94,3.06,3.06,0,0,0-1.52-.29H36.91Zm0,1.93v3h1.58A2.38,2.38,0,0,0,40,314.9a1.44,1.44,0,0,0,.47-1.17c0-1-.67-1.42-2-1.42Z"/><path class="cls-9" d="M47,317.28H44.65V305.13H47Z"/><path class="cls-9" d="M57.07,312.9A4.72,4.72,0,0,1,56,316.24a4.1,4.1,0,0,1-3.14,1.2,4.44,4.44,0,0,1-2.21-.55,3.71,3.71,0,0,1-1.48-1.58,5.38,5.38,0,0,1-.52-2.41,4.69,4.69,0,0,1,1.12-3.33,4.11,4.11,0,0,1,3.14-1.19,4.46,4.46,0,0,1,2.22.55,3.68,3.68,0,0,1,1.48,1.57A5.31,5.31,0,0,1,57.07,312.9Zm-6,0a3.7,3.7,0,0,0,.43,2,1.53,1.53,0,0,0,1.39.66,1.5,1.5,0,0,0,1.37-.66,4.71,4.71,0,0,0,0-3.91,1.52,1.52,0,0,0-1.38-.64,1.5,1.5,0,0,0-1.37.64A3.52,3.52,0,0,0,51,312.9Z"/><path class="cls-9" d="M62.19,317.44q-4.08,0-4.08-4.48a4.77,4.77,0,0,1,1.11-3.4,4.18,4.18,0,0,1,3.18-1.18,6,6,0,0,1,2.72.6l-.71,1.84c-.37-.15-.72-.27-1-.37a3.3,3.3,0,0,0-1-.14q-1.86,0-1.86,2.64c0,1.7.62,2.56,1.86,2.56a4.28,4.28,0,0,0,1.27-.18,4.9,4.9,0,0,0,1.17-.58v2a3.81,3.81,0,0,1-1.16.51A6.85,6.85,0,0,1,62.19,317.44Z"/><path class="cls-9" d="M68.76,312.53l1-1.33,2.44-2.65h2.69l-3.47,3.79,3.68,4.94H72.39l-2.52-3.54-1,.82v2.72H66.47V305.13h2.38v5.42l-.12,2Z"/><path class="cls-9" d="M79.54,317.44q-4.08,0-4.08-4.48a4.77,4.77,0,0,1,1.11-3.4,4.18,4.18,0,0,1,3.18-1.18,6,6,0,0,1,2.72.6l-.71,1.84c-.37-.15-.72-.27-1-.37a3.3,3.3,0,0,0-1-.14q-1.86,0-1.86,2.64c0,1.7.62,2.56,1.86,2.56a4.28,4.28,0,0,0,1.27-.18,4.9,4.9,0,0,0,1.17-.58v2a3.76,3.76,0,0,1-1.17.51A6.69,6.69,0,0,1,79.54,317.44Z"/><path class="cls-9" d="M91.88,317.28H89.5v-5.1q0-1.89-1.41-1.89a1.61,1.61,0,0,0-1.45.68,4.22,4.22,0,0,0-.44,2.2v4.11H83.82V305.13H86.2v2.47c0,.19,0,.65-.06,1.36l0,.71h.12a2.77,2.77,0,0,1,2.54-1.29,3.1,3.1,0,0,1,2.33.83,3.31,3.31,0,0,1,.8,2.38Z"/><path class="cls-9" d="M97.89,317.44a4.49,4.49,0,0,1-3.3-1.17A4.39,4.39,0,0,1,93.4,313a4.86,4.86,0,0,1,1.1-3.4,4.45,4.45,0,0,1,5.92-.14,4,4,0,0,1,1,2.91v1.16H95.81a2.27,2.27,0,0,0,.61,1.58,2.11,2.11,0,0,0,1.57.58,6.56,6.56,0,0,0,1.5-.17A7.66,7.66,0,0,0,101,315v1.84a6.08,6.08,0,0,1-1.34.47A8.49,8.49,0,0,1,97.89,317.44Zm-.34-7.36a1.52,1.52,0,0,0-1.19.48,2.24,2.24,0,0,0-.49,1.36h3.34a2,2,0,0,0-.46-1.36A1.55,1.55,0,0,0,97.55,310.08Z"/><path class="cls-9" d="M102.88,306.29c0-.78.44-1.16,1.3-1.16s1.3.38,1.3,1.16a1.11,1.11,0,0,1-.33.86,1.33,1.33,0,0,1-1,.31C103.32,307.46,102.88,307.07,102.88,306.29Zm2.49,11H103v-8.73h2.39Z"/><path class="cls-9" d="M115.53,317.28h-2.38v-5.1a2.42,2.42,0,0,0-.34-1.42,1.23,1.23,0,0,0-1.07-.47,1.58,1.58,0,0,0-1.44.67,4.08,4.08,0,0,0-.45,2.21v4.11h-2.38v-8.73h1.82l.32,1.12h.13a2.45,2.45,0,0,1,1.1-1,3.68,3.68,0,0,1,1.59-.33,3,3,0,0,1,2.31.83,3.29,3.29,0,0,1,.79,2.38Z"/><path class="cls-9" d="M358.26,299.08H356.7l-4.16-5.54-1.2,1.07v4.47H350V287.66h1.33v5.66l5.18-5.66h1.57l-4.59,5Z"/><path class="cls-9" d="M362.86,299.24a3.94,3.94,0,0,1-3-1.16,4.48,4.48,0,0,1-1.1-3.21,5,5,0,0,1,1-3.29,3.41,3.41,0,0,1,2.74-1.22,3.27,3.27,0,0,1,2.55,1.06,4.09,4.09,0,0,1,.94,2.79V295h-5.9a3.36,3.36,0,0,0,.76,2.28,2.64,2.64,0,0,0,2,.79,7,7,0,0,0,2.74-.58v1.15a6.17,6.17,0,0,1-2.78.56Zm-.35-7.79a2.12,2.12,0,0,0-1.65.67,3.08,3.08,0,0,0-.72,1.86h4.47a2.89,2.89,0,0,0-.54-1.88A2,2,0,0,0,362.51,291.45Z"/><path class="cls-9" d="M366.46,290.52h1.39l1.87,4.88a19.22,19.22,0,0,1,.77,2.42h.06c.07-.27.21-.72.43-1.37s.92-2.62,2.12-5.93h1.39l-3.68,9.75a4.88,4.88,0,0,1-1.28,2.05,2.73,2.73,0,0,1-1.79.61,5.06,5.06,0,0,1-1.17-.14v-1a4,4,0,0,0,1,.1,2,2,0,0,0,1.9-1.5l.48-1.22Z"/><path class="cls-9" d="M385.8,299.08h-6.37V287.66h6.37v1.18h-5v3.68h4.73v1.17h-4.73v4.2h5Z"/><path class="cls-9" d="M389.8,294.7l-3-4.18h1.48l2.25,3.28,2.25-3.28h1.46l-3,4.18,3.13,4.38H393l-2.4-3.47-2.42,3.47h-1.47Z"/><path class="cls-9" d="M399.14,299.24a3.64,3.64,0,0,1-2.88-1.15,4.69,4.69,0,0,1-1-3.23,4.84,4.84,0,0,1,1-3.32,3.73,3.73,0,0,1,3-1.18,5.75,5.75,0,0,1,1.24.14,3.82,3.82,0,0,1,1,.31l-.4,1.1a7.43,7.43,0,0,0-.94-.29,4.57,4.57,0,0,0-.9-.11q-2.61,0-2.61,3.33a4,4,0,0,0,.64,2.42,2.22,2.22,0,0,0,1.89.85,5.72,5.72,0,0,0,2.19-.47v1.15A4.61,4.61,0,0,1,399.14,299.24Z"/><path class="cls-9" d="M408.79,299.08v-5.54a2.26,2.26,0,0,0-.47-1.56,2,2,0,0,0-1.5-.52,2.45,2.45,0,0,0-2,.74,3.75,3.75,0,0,0-.62,2.41v4.47h-1.3V286.93h1.3v3.68a8.33,8.33,0,0,1-.06,1.1h.08a2.61,2.61,0,0,1,1.09-1,3.63,3.63,0,0,1,1.61-.35,3.31,3.31,0,0,1,2.35.74,3.13,3.13,0,0,1,.79,2.38v5.58Z"/><path class="cls-9" d="M417.62,299.08l-.26-1.22h-.06A3.55,3.55,0,0,1,416,299a3.86,3.86,0,0,1-1.59.29,2.83,2.83,0,0,1-2-.66,2.38,2.38,0,0,1-.73-1.87c0-1.72,1.39-2.63,4.15-2.71l1.45-.05v-.53a2.17,2.17,0,0,0-.43-1.49,1.79,1.79,0,0,0-1.39-.48,5.63,5.63,0,0,0-2.42.66l-.4-1a6.27,6.27,0,0,1,1.39-.54,6,6,0,0,1,1.51-.19,3.28,3.28,0,0,1,2.27.68,2.84,2.84,0,0,1,.74,2.18v5.84Zm-2.93-.91a2.59,2.59,0,0,0,1.9-.67,2.45,2.45,0,0,0,.69-1.86v-.77l-1.29.06a4.55,4.55,0,0,0-2.23.48,1.43,1.43,0,0,0-.69,1.32,1.31,1.31,0,0,0,.43,1.07A1.73,1.73,0,0,0,414.69,298.17Z"/><path class="cls-9" d="M426.71,299.08v-5.54a2.26,2.26,0,0,0-.47-1.56,2,2,0,0,0-1.5-.52,2.49,2.49,0,0,0-2,.73,3.73,3.73,0,0,0-.62,2.4v4.49h-1.3v-8.56h1.06l.21,1.17h.06a2.68,2.68,0,0,1,1.12-1,3.65,3.65,0,0,1,1.6-.35,3.25,3.25,0,0,1,2.33.75,3.18,3.18,0,0,1,.78,2.39v5.58Z"/><path class="cls-9" d="M437.28,290.52v.82l-1.59.19a2.76,2.76,0,0,1,.4.71,2.87,2.87,0,0,1,.17,1,2.54,2.54,0,0,1-.86,2A3.48,3.48,0,0,1,433,296a3.26,3.26,0,0,1-.72-.07,1.29,1.29,0,0,0-.83,1.11.55.55,0,0,0,.29.51,2,2,0,0,0,1,.17h1.52a3.41,3.41,0,0,1,2.14.59,2.05,2.05,0,0,1,.74,1.7,2.44,2.44,0,0,1-1.14,2.17,6.08,6.08,0,0,1-3.33.75,4.53,4.53,0,0,1-2.59-.63,2,2,0,0,1-.91-1.76,2,2,0,0,1,.5-1.36,2.59,2.59,0,0,1,1.41-.77,1.35,1.35,0,0,1-.55-.46,1.21,1.21,0,0,1-.22-.73,1.37,1.37,0,0,1,.25-.82,2.57,2.57,0,0,1,.78-.68,2.3,2.3,0,0,1-1.08-.93,2.69,2.69,0,0,1-.42-1.5,2.8,2.8,0,0,1,.85-2.17,3.48,3.48,0,0,1,2.39-.76,4.49,4.49,0,0,1,1.21.16Zm-6.83,10a1.16,1.16,0,0,0,.59,1.05,3.23,3.23,0,0,0,1.68.36,4.78,4.78,0,0,0,2.42-.48,1.51,1.51,0,0,0,.78-1.33,1,1,0,0,0-.43-1,3.31,3.31,0,0,0-1.62-.27h-1.55a2.07,2.07,0,0,0-1.38.42A1.52,1.52,0,0,0,430.45,300.52Zm.71-7.26a1.74,1.74,0,0,0,.5,1.36,2,2,0,0,0,1.42.46,1.65,1.65,0,0,0,1.9-1.84,1.7,1.7,0,0,0-1.93-1.93,1.88,1.88,0,0,0-1.4.49A2,2,0,0,0,431.16,293.26Z"/><path class="cls-9" d="M442.26,299.24a3.94,3.94,0,0,1-3-1.16,4.48,4.48,0,0,1-1.1-3.21,5,5,0,0,1,1-3.29,3.39,3.39,0,0,1,2.74-1.22,3.27,3.27,0,0,1,2.55,1.06,4.09,4.09,0,0,1,.93,2.79V295h-5.89a3.36,3.36,0,0,0,.76,2.28,2.64,2.64,0,0,0,2,.79,7,7,0,0,0,2.74-.58v1.15a7.3,7.3,0,0,1-1.3.43A7.08,7.08,0,0,1,442.26,299.24Zm-.36-7.79a2.11,2.11,0,0,0-1.64.67,3.08,3.08,0,0,0-.72,1.86H444a2.89,2.89,0,0,0-.54-1.88A2,2,0,0,0,441.9,291.45Z"/><path class="cls-9" d="M452.85,299.08l-3.25-8.56H451l1.84,5.08a22.37,22.37,0,0,1,.73,2.31h.07a15.67,15.67,0,0,1,.54-1.71c.3-.87,1-2.76,2.05-5.68h1.39l-3.25,8.56Z"/><path class="cls-9" d="M458.48,288.2a.82.82,0,0,1,.22-.65.73.73,0,0,1,.54-.21.76.76,0,0,1,.54.21,1,1,0,0,1,0,1.3.73.73,0,0,1-.54.22.7.7,0,0,1-.54-.22A.85.85,0,0,1,458.48,288.2Zm1.4,10.88h-1.29v-8.56h1.29Z"/><path class="cls-9" d="M467.5,299.08l-.26-1.22h-.06A3.55,3.55,0,0,1,465.9,299a3.86,3.86,0,0,1-1.59.29,2.83,2.83,0,0,1-2-.66,2.38,2.38,0,0,1-.73-1.87c0-1.72,1.39-2.63,4.15-2.71l1.45-.05v-.53a2.17,2.17,0,0,0-.43-1.49,1.79,1.79,0,0,0-1.39-.48,5.63,5.63,0,0,0-2.42.66l-.4-1a6.27,6.27,0,0,1,1.39-.54,6,6,0,0,1,1.51-.19,3.28,3.28,0,0,1,2.27.68,2.84,2.84,0,0,1,.74,2.18v5.84Zm-2.93-.91a2.59,2.59,0,0,0,1.9-.67,2.45,2.45,0,0,0,.69-1.86v-.77l-1.29.06a4.55,4.55,0,0,0-2.23.48,1.43,1.43,0,0,0-.69,1.32,1.31,1.31,0,0,0,.43,1.07A1.73,1.73,0,0,0,464.57,298.17Z"/><path class="cls-9" d="M368.7,306.86h3.55a6.87,6.87,0,0,1,3.53.69,2.42,2.42,0,0,1,1.1,2.2,2.78,2.78,0,0,1-.48,1.68,1.92,1.92,0,0,1-1.28.79v.08a2.54,2.54,0,0,1,1.57.9,3,3,0,0,1,.48,1.77,2.93,2.93,0,0,1-1.13,2.44,4.93,4.93,0,0,1-3.07.87H368.7Zm2.42,4.52h1.41a2.59,2.59,0,0,0,1.42-.3,1.12,1.12,0,0,0,.44-1,1,1,0,0,0-.48-.94,3.06,3.06,0,0,0-1.52-.29h-1.27Zm0,1.93v3h1.58a2.35,2.35,0,0,0,1.47-.38,1.42,1.42,0,0,0,.48-1.17c0-1-.68-1.42-2-1.42Z"/><path class="cls-9" d="M381.24,318.28h-2.38V306.13h2.38Z"/><path class="cls-9" d="M391.28,313.9a4.72,4.72,0,0,1-1.12,3.34,4.1,4.1,0,0,1-3.14,1.2,4.46,4.46,0,0,1-2.22-.55,3.68,3.68,0,0,1-1.47-1.58,5.25,5.25,0,0,1-.52-2.41,4.64,4.64,0,0,1,1.12-3.33,4.1,4.1,0,0,1,3.14-1.19,4.46,4.46,0,0,1,2.22.55,3.6,3.6,0,0,1,1.47,1.57A5.18,5.18,0,0,1,391.28,313.9Zm-6,0a3.61,3.61,0,0,0,.43,2,1.77,1.77,0,0,0,2.76,0,3.79,3.79,0,0,0,.41-2,3.67,3.67,0,0,0-.42-1.95,1.81,1.81,0,0,0-2.76,0A3.62,3.62,0,0,0,385.24,313.9Z"/><path class="cls-9" d="M396.4,318.44q-4.08,0-4.08-4.48a4.77,4.77,0,0,1,1.11-3.4,4.18,4.18,0,0,1,3.18-1.18,6,6,0,0,1,2.72.6l-.71,1.84c-.37-.15-.72-.27-1-.37a3.3,3.3,0,0,0-1-.14q-1.86,0-1.86,2.64c0,1.7.62,2.56,1.86,2.56a4.33,4.33,0,0,0,1.27-.18,4.9,4.9,0,0,0,1.17-.58v2a3.76,3.76,0,0,1-1.17.51A6.75,6.75,0,0,1,396.4,318.44Z"/><path class="cls-9" d="M403,313.53l1-1.33,2.45-2.65h2.69l-3.47,3.79,3.68,4.94H406.6l-2.52-3.54-1,.82v2.72h-2.38V306.13h2.38v5.42l-.13,2Z"/><path class="cls-9" d="M413.74,318.44q-4.07,0-4.07-4.48a4.77,4.77,0,0,1,1.11-3.4,4.16,4.16,0,0,1,3.18-1.18,6,6,0,0,1,2.71.6l-.7,1.84c-.37-.15-.72-.27-1.05-.37a3.19,3.19,0,0,0-1-.14q-1.86,0-1.86,2.64c0,1.7.62,2.56,1.86,2.56a4.33,4.33,0,0,0,1.27-.18,4.9,4.9,0,0,0,1.17-.58v2a3.86,3.86,0,0,1-1.17.51A6.79,6.79,0,0,1,413.74,318.44Z"/><path class="cls-9" d="M426.09,318.28H423.7v-5.1c0-1.26-.47-1.89-1.4-1.89a1.61,1.61,0,0,0-1.45.68,4.12,4.12,0,0,0-.44,2.2v4.11H418V306.13h2.39v2.47c0,.19,0,.65-.06,1.36l-.05.71h.12a2.76,2.76,0,0,1,2.53-1.29,3.11,3.11,0,0,1,2.34.83,3.31,3.31,0,0,1,.8,2.38Z"/><path class="cls-9" d="M432.09,318.44a4.49,4.49,0,0,1-3.29-1.17,4.35,4.35,0,0,1-1.19-3.29,4.81,4.81,0,0,1,1.1-3.4,3.9,3.9,0,0,1,3-1.2,3.84,3.84,0,0,1,2.88,1.06,4,4,0,0,1,1,2.91v1.16H430a2.31,2.31,0,0,0,.6,1.58,2.15,2.15,0,0,0,1.58.58,6.41,6.41,0,0,0,1.49-.17,7.43,7.43,0,0,0,1.47-.52v1.84a5.82,5.82,0,0,1-1.33.47A8.6,8.6,0,0,1,432.09,318.44Zm-.33-7.36a1.52,1.52,0,0,0-1.19.48,2.18,2.18,0,0,0-.49,1.36h3.34a2,2,0,0,0-.46-1.36A1.57,1.57,0,0,0,431.76,311.08Z"/><path class="cls-9" d="M437.09,307.29c0-.78.43-1.16,1.3-1.16s1.29.38,1.29,1.16a1.1,1.1,0,0,1-.32.86,1.35,1.35,0,0,1-1,.31C437.52,308.46,437.09,308.07,437.09,307.29Zm2.49,11h-2.39v-8.73h2.39Z"/><path class="cls-9" d="M449.74,318.28h-2.38v-5.1a2.5,2.5,0,0,0-.34-1.42,1.23,1.23,0,0,0-1.07-.47,1.61,1.61,0,0,0-1.45.67,4.19,4.19,0,0,0-.44,2.21v4.11h-2.38v-8.73h1.82l.32,1.12H444a2.45,2.45,0,0,1,1.1-1,3.64,3.64,0,0,1,1.59-.33,3.06,3.06,0,0,1,2.31.83,3.29,3.29,0,0,1,.79,2.38Z"/><path class="cls-9" d="M32.42,610.22A3.48,3.48,0,0,1,31.27,613,4.94,4.94,0,0,1,28,614H27v4.06H24.53V606.66h3.65a4.88,4.88,0,0,1,3.16.89A3.28,3.28,0,0,1,32.42,610.22ZM27,612h.8a2.6,2.6,0,0,0,1.67-.45,1.54,1.54,0,0,0,.56-1.28,1.59,1.59,0,0,0-.47-1.26,2.16,2.16,0,0,0-1.45-.41H27Z"/><path class="cls-9" d="M38.87,609.18a4.32,4.32,0,0,1,.8.07l-.18,2.24a2.81,2.81,0,0,0-.7-.08A2.55,2.55,0,0,0,37,612a2.12,2.12,0,0,0-.64,1.64v4.44H34v-8.73H35.8l.35,1.47h.11a3.4,3.4,0,0,1,1.1-1.19A2.7,2.7,0,0,1,38.87,609.18Z"/><path class="cls-9" d="M48.8,613.7A4.72,4.72,0,0,1,47.67,617a4.08,4.08,0,0,1-3.13,1.2,4.46,4.46,0,0,1-2.22-.55,3.77,3.77,0,0,1-1.48-1.58,5.38,5.38,0,0,1-.51-2.41,4.68,4.68,0,0,1,1.11-3.33,4.13,4.13,0,0,1,3.14-1.19,4.46,4.46,0,0,1,2.22.55,3.63,3.63,0,0,1,1.48,1.57A5.31,5.31,0,0,1,48.8,613.7Zm-6,0a3.71,3.71,0,0,0,.42,2,1.54,1.54,0,0,0,1.39.66,1.5,1.5,0,0,0,1.37-.66,3.68,3.68,0,0,0,.42-2,3.64,3.64,0,0,0-.42-2,1.55,1.55,0,0,0-1.39-.64,1.51,1.51,0,0,0-1.37.64A3.62,3.62,0,0,0,42.76,613.7Z"/><path class="cls-9" d="M54,616.34a5.19,5.19,0,0,0,1.5-.27v1.77a5.24,5.24,0,0,1-2.18.4,2.7,2.7,0,0,1-2.09-.72,3.2,3.2,0,0,1-.65-2.17v-4.21H49.48v-1l1.31-.8.69-1.84H53v1.86h2.45v1.79H53v4.21a.93.93,0,0,0,.29.75A1.13,1.13,0,0,0,54,616.34Z"/><path class="cls-9" d="M60.86,618.24a4.49,4.49,0,0,1-3.29-1.17,4.35,4.35,0,0,1-1.19-3.29,4.81,4.81,0,0,1,1.1-3.4,3.9,3.9,0,0,1,3-1.2,3.84,3.84,0,0,1,2.88,1.06,4,4,0,0,1,1,2.91v1.16H58.79a2.31,2.31,0,0,0,.6,1.58,2.14,2.14,0,0,0,1.58.57,6.42,6.42,0,0,0,1.49-.16,7.43,7.43,0,0,0,1.47-.52v1.84a5.82,5.82,0,0,1-1.33.47A8.6,8.6,0,0,1,60.86,618.24Zm-.33-7.36a1.52,1.52,0,0,0-1.19.48,2.18,2.18,0,0,0-.49,1.36h3.34a2,2,0,0,0-.46-1.36A1.57,1.57,0,0,0,60.53,610.88Z"/><path class="cls-9" d="M69.51,618.24q-4.08,0-4.08-4.48a4.77,4.77,0,0,1,1.11-3.4,4.18,4.18,0,0,1,3.18-1.18,6,6,0,0,1,2.72.6l-.7,1.84c-.38-.15-.73-.27-1-.37a3.25,3.25,0,0,0-1-.14q-1.86,0-1.86,2.64c0,1.7.62,2.56,1.86,2.56a4,4,0,0,0,1.27-.19,4.72,4.72,0,0,0,1.18-.57v2a4.25,4.25,0,0,1-1.17.51A6.85,6.85,0,0,1,69.51,618.24Z"/><path class="cls-9" d="M77.47,616.34a5.19,5.19,0,0,0,1.5-.27v1.77a5.32,5.32,0,0,1-2.19.4,2.68,2.68,0,0,1-2.08-.72,3.15,3.15,0,0,1-.65-2.17v-4.21H72.91v-1l1.31-.8.69-1.84h1.52v1.86h2.44v1.79H76.43v4.21a.92.92,0,0,0,.28.75A1.15,1.15,0,0,0,77.47,616.34Z"/><path class="cls-9" d="M80.23,607.09c0-.78.44-1.16,1.3-1.16s1.3.38,1.3,1.16a1.11,1.11,0,0,1-.33.86,1.33,1.33,0,0,1-1,.31C80.67,608.26,80.23,607.87,80.23,607.09Zm2.49,11H80.33v-8.73h2.39Z"/><path class="cls-9" d="M92.75,613.7A4.72,4.72,0,0,1,91.63,617a4.08,4.08,0,0,1-3.13,1.2,4.46,4.46,0,0,1-2.22-.55,3.71,3.71,0,0,1-1.48-1.58,5.38,5.38,0,0,1-.51-2.41,4.68,4.68,0,0,1,1.11-3.33,4.11,4.11,0,0,1,3.14-1.19,4.46,4.46,0,0,1,2.22.55,3.68,3.68,0,0,1,1.48,1.57A5.31,5.31,0,0,1,92.75,613.7Zm-6,0a3.71,3.71,0,0,0,.42,2,1.54,1.54,0,0,0,1.39.66,1.5,1.5,0,0,0,1.37-.66,3.68,3.68,0,0,0,.42-2,3.55,3.55,0,0,0-.43-2,1.8,1.8,0,0,0-2.75,0A3.62,3.62,0,0,0,86.72,613.7Z"/><path class="cls-9" d="M102.39,618.08H100V613a2.5,2.5,0,0,0-.33-1.42,1.24,1.24,0,0,0-1.07-.47,1.61,1.61,0,0,0-1.45.67,4.09,4.09,0,0,0-.44,2.21v4.11H94.32v-8.73h1.82l.32,1.11h.14a2.46,2.46,0,0,1,1.09-1,3.71,3.71,0,0,1,1.59-.33,3.07,3.07,0,0,1,2.32.83,3.33,3.33,0,0,1,.79,2.38Z"/><path class="cls-9" d="M116.13,613.7A4.72,4.72,0,0,1,115,617a4.1,4.1,0,0,1-3.14,1.2,4.44,4.44,0,0,1-2.21-.55,3.65,3.65,0,0,1-1.48-1.58,5.38,5.38,0,0,1-.52-2.41,4.69,4.69,0,0,1,1.12-3.33,4.11,4.11,0,0,1,3.14-1.19,4.46,4.46,0,0,1,2.22.55,3.68,3.68,0,0,1,1.48,1.57A5.31,5.31,0,0,1,116.13,613.7Zm-6,0a3.61,3.61,0,0,0,.43,2,1.77,1.77,0,0,0,2.76,0,3.79,3.79,0,0,0,.41-2,3.64,3.64,0,0,0-.42-2,1.81,1.81,0,0,0-2.76,0A3.62,3.62,0,0,0,110.09,613.7Z"/><path class="cls-9" d="M122.53,611.14h-2.06v6.94h-2.39v-6.94h-1.31V610l1.31-.64v-.64a2.86,2.86,0,0,1,.74-2.18,3.35,3.35,0,0,1,2.35-.69,6.08,6.08,0,0,1,2.2.37l-.61,1.75a4.54,4.54,0,0,0-1.33-.23.88.88,0,0,0-.74.3,1.25,1.25,0,0,0-.22.77v.55h2.06Z"/><path class="cls-9" d="M30.65,637.28V625.86H32v10.22h5v1.2Z"/><path class="cls-9" d="M45.75,633a4.68,4.68,0,0,1-1.06,3.27,3.68,3.68,0,0,1-2.91,1.18,3.84,3.84,0,0,1-2-.54,3.57,3.57,0,0,1-1.37-1.55,5.29,5.29,0,0,1-.49-2.36,4.71,4.71,0,0,1,1-3.26,3.7,3.7,0,0,1,2.9-1.17,3.63,3.63,0,0,1,2.86,1.2A4.68,4.68,0,0,1,45.75,633Zm-6.53,0a4,4,0,0,0,.66,2.5,2.61,2.61,0,0,0,3.86,0A4.06,4.06,0,0,0,44.4,633a4,4,0,0,0-.66-2.48,2.32,2.32,0,0,0-1.94-.84,2.3,2.3,0,0,0-1.93.83A4,4,0,0,0,39.22,633Z"/><path class="cls-9" d="M51,637.44a3.62,3.62,0,0,1-2.87-1.15,4.69,4.69,0,0,1-1-3.23,4.84,4.84,0,0,1,1-3.32,3.7,3.7,0,0,1,3-1.18,5.73,5.73,0,0,1,1.23.14,4,4,0,0,1,1,.31l-.4,1.1a5.66,5.66,0,0,0-.93-.28,4,4,0,0,0-.9-.12q-2.61,0-2.61,3.33a3.92,3.92,0,0,0,.64,2.42,2.21,2.21,0,0,0,1.88.85,5.73,5.73,0,0,0,2.2-.47V637A4.65,4.65,0,0,1,51,637.44Z"/><path class="cls-9" d="M60.1,637.28l-.25-1.22h-.07a3.53,3.53,0,0,1-1.27,1.09,3.93,3.93,0,0,1-1.59.29,2.86,2.86,0,0,1-2-.66,2.4,2.4,0,0,1-.72-1.86q0-2.59,4.15-2.72l1.45-.05v-.53a2.17,2.17,0,0,0-.43-1.49,1.79,1.79,0,0,0-1.39-.48,5.63,5.63,0,0,0-2.42.66l-.4-1a6.16,6.16,0,0,1,2.9-.73,3.28,3.28,0,0,1,2.27.68,2.84,2.84,0,0,1,.74,2.18v5.84Zm-2.92-.91a2.61,2.61,0,0,0,1.9-.67,2.45,2.45,0,0,0,.69-1.86v-.77l-1.3.06a4.58,4.58,0,0,0-2.23.48,1.45,1.45,0,0,0-.68,1.32A1.34,1.34,0,0,0,56,636,1.76,1.76,0,0,0,57.18,636.37Z"/><path class="cls-9" d="M64.64,637.28h-1.3V625.13h1.3Z"/><path class="cls-9" d="M80.05,631.46a5.79,5.79,0,0,1-1.53,4.33,6.12,6.12,0,0,1-4.42,1.49H70.94V625.86h3.5a5.12,5.12,0,0,1,5.61,5.6Zm-1.4,0a4.64,4.64,0,0,0-1.12-3.37A4.53,4.53,0,0,0,74.19,627H72.26v9.12h1.62A5,5,0,0,0,77.45,635,4.62,4.62,0,0,0,78.65,631.51Z"/><path class="cls-9" d="M85.62,637.44a3.93,3.93,0,0,1-3-1.16,4.44,4.44,0,0,1-1.1-3.21,5,5,0,0,1,1-3.29,3.39,3.39,0,0,1,2.74-1.22,3.23,3.23,0,0,1,2.54,1.06,4.05,4.05,0,0,1,.94,2.8v.82h-5.9a3.41,3.41,0,0,0,.76,2.28,2.66,2.66,0,0,0,2,.79,7,7,0,0,0,2.73-.58v1.15a6.81,6.81,0,0,1-1.3.43A7,7,0,0,1,85.62,637.44Zm-.35-7.79a2.1,2.1,0,0,0-1.64.67,3.15,3.15,0,0,0-.73,1.86h4.48a2.83,2.83,0,0,0-.55-1.88A1.92,1.92,0,0,0,85.27,629.65Z"/><path class="cls-9" d="M92.46,637.28l-3.25-8.56H90.6l1.84,5.08c.42,1.19.66,2,.74,2.31h.06q.09-.42.54-1.71t2-5.68h1.39L94,637.28Z"/><path class="cls-9" d="M98.09,626.4a.82.82,0,0,1,.22-.65.75.75,0,0,1,.54-.21.76.76,0,0,1,.54.21,1,1,0,0,1,0,1.3.73.73,0,0,1-.54.22.72.72,0,0,1-.54-.22A.85.85,0,0,1,98.09,626.4Zm1.4,10.88H98.2v-8.56h1.29Z"/><path class="cls-9" d="M105.27,637.44a3.64,3.64,0,0,1-2.88-1.15,4.69,4.69,0,0,1-1-3.23,4.84,4.84,0,0,1,1-3.32,3.71,3.71,0,0,1,2.95-1.18,5.82,5.82,0,0,1,1.24.14,4,4,0,0,1,1,.31l-.39,1.1a6.1,6.1,0,0,0-.94-.28,4,4,0,0,0-.9-.12q-2.61,0-2.61,3.33a3.92,3.92,0,0,0,.64,2.42,2.21,2.21,0,0,0,1.88.85,5.73,5.73,0,0,0,2.2-.47V637A4.61,4.61,0,0,1,105.27,637.44Z"/><path class="cls-9" d="M112.68,637.44a3.94,3.94,0,0,1-3-1.16,4.48,4.48,0,0,1-1.1-3.21,5,5,0,0,1,1-3.29,3.41,3.41,0,0,1,2.74-1.22,3.25,3.25,0,0,1,2.55,1.06,4.1,4.1,0,0,1,.94,2.8v.82h-5.9a3.36,3.36,0,0,0,.76,2.28,2.64,2.64,0,0,0,2,.79,7,7,0,0,0,2.74-.58v1.15a6.17,6.17,0,0,1-2.78.56Zm-.35-7.79a2.12,2.12,0,0,0-1.65.67,3.08,3.08,0,0,0-.72,1.86h4.48a2.89,2.89,0,0,0-.55-1.88A2,2,0,0,0,112.33,629.65Z"/><path class="cls-9" d="M365.72,610.22a3.49,3.49,0,0,1-1.16,2.82,4.93,4.93,0,0,1-3.27,1h-1v4.06h-2.43V606.66h3.65a4.88,4.88,0,0,1,3.16.89A3.28,3.28,0,0,1,365.72,610.22ZM360.25,612H361a2.63,2.63,0,0,0,1.68-.45,1.53,1.53,0,0,0,.55-1.28,1.59,1.59,0,0,0-.47-1.26,2.15,2.15,0,0,0-1.45-.41h-1.1Z"/><path class="cls-9" d="M372.16,609.18a4.32,4.32,0,0,1,.8.07l-.18,2.24a2.75,2.75,0,0,0-.7-.08,2.55,2.55,0,0,0-1.78.59,2.12,2.12,0,0,0-.63,1.64v4.44h-2.39v-8.73h1.81l.35,1.47h.12a3.28,3.28,0,0,1,1.09-1.19A2.75,2.75,0,0,1,372.16,609.18Z"/><path class="cls-9" d="M382.09,613.7A4.72,4.72,0,0,1,381,617a4.08,4.08,0,0,1-3.13,1.2,4.46,4.46,0,0,1-2.22-.55,3.77,3.77,0,0,1-1.48-1.58,5.38,5.38,0,0,1-.51-2.41,4.64,4.64,0,0,1,1.12-3.33,4.1,4.1,0,0,1,3.14-1.19,4.48,4.48,0,0,1,2.22.55,3.6,3.6,0,0,1,1.47,1.57A5.18,5.18,0,0,1,382.09,613.7Zm-6,0a3.71,3.71,0,0,0,.42,2,1.54,1.54,0,0,0,1.39.66,1.49,1.49,0,0,0,1.37-.66,3.68,3.68,0,0,0,.42-2,3.64,3.64,0,0,0-.42-2,1.81,1.81,0,0,0-2.76,0A3.62,3.62,0,0,0,376.05,613.7Z"/><path class="cls-9" d="M387.34,616.34a5.3,5.3,0,0,0,1.5-.27v1.77a5.32,5.32,0,0,1-2.19.4,2.66,2.66,0,0,1-2.08-.72,3.15,3.15,0,0,1-.66-2.17v-4.21h-1.14v-1l1.32-.8.68-1.84h1.53v1.86h2.44v1.79H386.3v4.21a.92.92,0,0,0,.28.75A1.14,1.14,0,0,0,387.34,616.34Z"/><path class="cls-9" d="M394.15,618.24a4.49,4.49,0,0,1-3.29-1.17,4.39,4.39,0,0,1-1.19-3.29,4.86,4.86,0,0,1,1.1-3.4,4.45,4.45,0,0,1,5.92-.14,4,4,0,0,1,1,2.91v1.16h-5.64a2.27,2.27,0,0,0,.61,1.58,2.1,2.1,0,0,0,1.57.57,6.57,6.57,0,0,0,1.5-.16,7.58,7.58,0,0,0,1.46-.52v1.84a5.82,5.82,0,0,1-1.33.47A8.53,8.53,0,0,1,394.15,618.24Zm-.33-7.36a1.52,1.52,0,0,0-1.19.48,2.24,2.24,0,0,0-.49,1.36h3.34a2,2,0,0,0-.46-1.36A1.57,1.57,0,0,0,393.82,610.88Z"/><path class="cls-9" d="M402.8,618.24q-4.08,0-4.08-4.48a4.77,4.77,0,0,1,1.11-3.4,4.18,4.18,0,0,1,3.18-1.18,6,6,0,0,1,2.72.6l-.7,1.84c-.38-.15-.73-.27-1-.37a3.21,3.21,0,0,0-1-.14q-1.86,0-1.86,2.64c0,1.7.62,2.56,1.86,2.56a4.09,4.09,0,0,0,1.28-.19,4.5,4.5,0,0,0,1.17-.57v2a4.25,4.25,0,0,1-1.17.51A6.79,6.79,0,0,1,402.8,618.24Z"/><path class="cls-9" d="M410.76,616.34a5.19,5.19,0,0,0,1.5-.27v1.77a5.26,5.26,0,0,1-2.19.4,2.69,2.69,0,0,1-2.08-.72,3.2,3.2,0,0,1-.65-2.17v-4.21H406.2v-1l1.31-.8.69-1.84h1.52v1.86h2.45v1.79h-2.45v4.21a.93.93,0,0,0,.29.75A1.13,1.13,0,0,0,410.76,616.34Z"/><path class="cls-9" d="M413.52,607.09c0-.78.44-1.16,1.3-1.16s1.3.38,1.3,1.16a1.11,1.11,0,0,1-.33.86,1.33,1.33,0,0,1-1,.31C414,608.26,413.52,607.87,413.52,607.09Zm2.49,11h-2.38v-8.73H416Z"/><path class="cls-9" d="M426.05,613.7a4.72,4.72,0,0,1-1.13,3.34,4.08,4.08,0,0,1-3.13,1.2,4.46,4.46,0,0,1-2.22-.55,3.77,3.77,0,0,1-1.48-1.58,5.38,5.38,0,0,1-.51-2.41,4.68,4.68,0,0,1,1.11-3.33,4.14,4.14,0,0,1,3.15-1.19,4.44,4.44,0,0,1,2.21.55,3.63,3.63,0,0,1,1.48,1.57A5.31,5.31,0,0,1,426.05,613.7Zm-6,0a3.71,3.71,0,0,0,.42,2,1.54,1.54,0,0,0,1.39.66,1.49,1.49,0,0,0,1.37-.66,3.68,3.68,0,0,0,.42-2,3.64,3.64,0,0,0-.42-2,1.54,1.54,0,0,0-1.39-.64,1.51,1.51,0,0,0-1.37.64A3.62,3.62,0,0,0,420,613.7Z"/><path class="cls-9" d="M435.68,618.08H433.3V613a2.5,2.5,0,0,0-.34-1.42,1.23,1.23,0,0,0-1.07-.47,1.61,1.61,0,0,0-1.45.67A4.19,4.19,0,0,0,430,614v4.11h-2.38v-8.73h1.82l.32,1.11h.13a2.43,2.43,0,0,1,1.1-1,3.64,3.64,0,0,1,1.59-.33,3.06,3.06,0,0,1,2.31.83,3.29,3.29,0,0,1,.79,2.38Z"/><path class="cls-9" d="M449.42,613.7A4.72,4.72,0,0,1,448.3,617a4.08,4.08,0,0,1-3.13,1.2,4.46,4.46,0,0,1-2.22-.55,3.71,3.71,0,0,1-1.48-1.58,5.38,5.38,0,0,1-.51-2.41,4.68,4.68,0,0,1,1.11-3.33,4.11,4.11,0,0,1,3.14-1.19,4.46,4.46,0,0,1,2.22.55,3.68,3.68,0,0,1,1.48,1.57A5.31,5.31,0,0,1,449.42,613.7Zm-6,0a3.71,3.71,0,0,0,.42,2,1.54,1.54,0,0,0,1.39.66,1.5,1.5,0,0,0,1.37-.66,3.68,3.68,0,0,0,.42-2,3.55,3.55,0,0,0-.43-2,1.8,1.8,0,0,0-2.75,0A3.62,3.62,0,0,0,443.39,613.7Z"/><path class="cls-9" d="M455.82,611.14h-2.06v6.94h-2.38v-6.94h-1.32V610l1.32-.64v-.64a2.85,2.85,0,0,1,.73-2.18,3.35,3.35,0,0,1,2.35-.69,6,6,0,0,1,2.2.37l-.61,1.75a4.48,4.48,0,0,0-1.33-.23.85.85,0,0,0-.73.3,1.2,1.2,0,0,0-.23.77v.55h2.06Z"/><path class="cls-9" d="M363.94,637.28V625.86h1.33v10.22h5v1.2Z"/><path class="cls-9" d="M379,633a4.72,4.72,0,0,1-1.05,3.27,3.72,3.72,0,0,1-2.92,1.18,3.89,3.89,0,0,1-2-.54,3.57,3.57,0,0,1-1.37-1.55,5.29,5.29,0,0,1-.49-2.36,4.71,4.71,0,0,1,1.05-3.26,3.71,3.71,0,0,1,2.91-1.17,3.61,3.61,0,0,1,2.85,1.2A4.68,4.68,0,0,1,379,633Zm-6.52,0a4.1,4.1,0,0,0,.65,2.5,2.26,2.26,0,0,0,1.93.86,2.3,2.3,0,0,0,1.94-.85,4.06,4.06,0,0,0,.66-2.51,4,4,0,0,0-.66-2.48,2.33,2.33,0,0,0-2-.84,2.26,2.26,0,0,0-1.92.83A4,4,0,0,0,372.52,633Z"/><path class="cls-9" d="M384.34,637.44a3.64,3.64,0,0,1-2.88-1.15,4.69,4.69,0,0,1-1-3.23,4.84,4.84,0,0,1,1-3.32,3.71,3.71,0,0,1,2.95-1.18,5.82,5.82,0,0,1,1.24.14,4.26,4.26,0,0,1,1,.31l-.4,1.1a6.1,6.1,0,0,0-.94-.28,4,4,0,0,0-.9-.12q-2.61,0-2.61,3.33a3.92,3.92,0,0,0,.64,2.42,2.21,2.21,0,0,0,1.88.85,5.73,5.73,0,0,0,2.2-.47V637A4.61,4.61,0,0,1,384.34,637.44Z"/><path class="cls-9" d="M393.4,637.28l-.26-1.22h-.06a3.63,3.63,0,0,1-1.28,1.09,3.89,3.89,0,0,1-1.59.29,2.86,2.86,0,0,1-2-.66,2.4,2.4,0,0,1-.72-1.86q0-2.59,4.15-2.72l1.45-.05v-.53a2.17,2.17,0,0,0-.43-1.49,1.79,1.79,0,0,0-1.39-.48,5.63,5.63,0,0,0-2.42.66l-.4-1a6.09,6.09,0,0,1,1.39-.54,6,6,0,0,1,1.51-.19,3.28,3.28,0,0,1,2.27.68,2.84,2.84,0,0,1,.74,2.18v5.84Zm-2.93-.91a2.61,2.61,0,0,0,1.9-.67,2.45,2.45,0,0,0,.69-1.86v-.77l-1.3.06a4.58,4.58,0,0,0-2.23.48,1.45,1.45,0,0,0-.68,1.32,1.31,1.31,0,0,0,.43,1.07A1.73,1.73,0,0,0,390.47,636.37Z"/><path class="cls-9" d="M397.93,637.28h-1.3V625.13h1.3Z"/><path class="cls-9" d="M413.35,631.46a5.79,5.79,0,0,1-1.54,4.33,6.11,6.11,0,0,1-4.42,1.49h-3.16V625.86h3.5a5.14,5.14,0,0,1,5.62,5.6Zm-1.41,0a4.64,4.64,0,0,0-1.12-3.37,4.52,4.52,0,0,0-3.33-1.13h-1.93v9.12h1.61a4.93,4.93,0,0,0,3.57-1.16A4.62,4.62,0,0,0,411.94,631.51Z"/><path class="cls-9" d="M418.91,637.44a3.93,3.93,0,0,1-3-1.16,4.48,4.48,0,0,1-1.1-3.21,5,5,0,0,1,1-3.29,3.39,3.39,0,0,1,2.74-1.22,3.27,3.27,0,0,1,2.55,1.06,4.1,4.1,0,0,1,.93,2.8v.82h-5.9a3.36,3.36,0,0,0,.77,2.28,2.64,2.64,0,0,0,2,.79,7.06,7.06,0,0,0,2.74-.58v1.15a7.13,7.13,0,0,1-1.31.43A7,7,0,0,1,418.91,637.44Zm-.35-7.79a2.11,2.11,0,0,0-1.64.67,3.08,3.08,0,0,0-.72,1.86h4.47a2.89,2.89,0,0,0-.54-1.88A2,2,0,0,0,418.56,629.65Z"/><path class="cls-9" d="M425.75,637.28l-3.25-8.56h1.39l1.84,5.08c.42,1.19.66,2,.74,2.31h.06q.09-.42.54-1.71t2.05-5.68h1.39l-3.25,8.56Z"/><path class="cls-9" d="M431.38,626.4a.82.82,0,0,1,.22-.65.8.8,0,0,1,1.08,0,1,1,0,0,1,0,1.3.77.77,0,0,1-1.08,0A.85.85,0,0,1,431.38,626.4Zm1.41,10.88h-1.3v-8.56h1.3Z"/><path class="cls-9" d="M438.56,637.44a3.64,3.64,0,0,1-2.88-1.15,4.69,4.69,0,0,1-1-3.23,4.84,4.84,0,0,1,1-3.32,3.73,3.73,0,0,1,2.95-1.18,5.82,5.82,0,0,1,1.24.14,4.26,4.26,0,0,1,1,.31l-.4,1.1a6.1,6.1,0,0,0-.94-.28,4,4,0,0,0-.9-.12q-2.61,0-2.61,3.33a4,4,0,0,0,.64,2.42,2.22,2.22,0,0,0,1.89.85,5.72,5.72,0,0,0,2.19-.47V637A4.61,4.61,0,0,1,438.56,637.44Z"/><path class="cls-9" d="M446,637.44a4,4,0,0,1-3-1.16,4.48,4.48,0,0,1-1.09-3.21,5,5,0,0,1,1-3.29,3.39,3.39,0,0,1,2.73-1.22,3.24,3.24,0,0,1,2.55,1.06,4.05,4.05,0,0,1,.94,2.8v.82h-5.9a3.41,3.41,0,0,0,.76,2.28,2.64,2.64,0,0,0,2,.79,7,7,0,0,0,2.73-.58v1.15a6.17,6.17,0,0,1-2.78.56Zm-.35-7.79a2.12,2.12,0,0,0-1.65.67,3.08,3.08,0,0,0-.72,1.86h4.48a2.83,2.83,0,0,0-.55-1.88A1.92,1.92,0,0,0,445.62,629.65Z"/><path class="cls-9" d="M210.41,376.16h1.43l-4.11,11.42h-1.32l-4.09-11.42h1.41l2.62,7.39a22,22,0,0,1,.72,2.48,21.33,21.33,0,0,1,.73-2.53Z"/><path class="cls-9" d="M214,379v5.55a2.3,2.3,0,0,0,.47,1.57,2,2,0,0,0,1.5.51,2.42,2.42,0,0,0,2-.73,3.73,3.73,0,0,0,.62-2.4V379h1.3v8.56h-1.07l-.19-1.15h-.07a2.5,2.5,0,0,1-1.11,1,3.6,3.6,0,0,1-1.61.34,3.3,3.3,0,0,1-2.34-.74,3.17,3.17,0,0,1-.78-2.38V379Z"/><path class="cls-9" d="M223.54,387.58h-1.3V375.43h1.3Z"/><path class="cls-9" d="M231.74,387.58V382a2.21,2.21,0,0,0-.47-1.56,2,2,0,0,0-1.49-.52,2.46,2.46,0,0,0-2,.73,3.67,3.67,0,0,0-.63,2.4v4.49h-1.29V379h1.05l.21,1.17h.06a2.68,2.68,0,0,1,1.12-1,3.65,3.65,0,0,1,1.6-.35,3.25,3.25,0,0,1,2.33.75A3.18,3.18,0,0,1,233,382v5.58Z"/><path class="cls-9" d="M238.92,387.74a3.93,3.93,0,0,1-3-1.16,4.48,4.48,0,0,1-1.1-3.21,5,5,0,0,1,1-3.29,3.39,3.39,0,0,1,2.74-1.22,3.23,3.23,0,0,1,2.54,1.06,4,4,0,0,1,.94,2.79v.83h-5.9a3.41,3.41,0,0,0,.76,2.28,2.67,2.67,0,0,0,2,.79,7,7,0,0,0,2.73-.58v1.15a6.81,6.81,0,0,1-1.3.43A7,7,0,0,1,238.92,387.74Zm-.35-7.79a2.1,2.1,0,0,0-1.64.67,3.15,3.15,0,0,0-.73,1.86h4.48a2.83,2.83,0,0,0-.55-1.88A1.92,1.92,0,0,0,238.57,380Z"/><path class="cls-9" d="M247.79,378.86a4.52,4.52,0,0,1,1,.1l-.18,1.2a4.24,4.24,0,0,0-.94-.12,2.25,2.25,0,0,0-1.77.85,3.08,3.08,0,0,0-.74,2.1v4.59h-1.3V379H245l.15,1.59h.06a3.73,3.73,0,0,1,1.15-1.29A2.54,2.54,0,0,1,247.79,378.86Z"/><path class="cls-9" d="M255.28,387.58l-.26-1.22H255a3.55,3.55,0,0,1-1.28,1.09,3.86,3.86,0,0,1-1.59.29,2.83,2.83,0,0,1-2-.66,2.38,2.38,0,0,1-.73-1.87c0-1.72,1.39-2.63,4.15-2.71l1.45-.05v-.53a2.17,2.17,0,0,0-.43-1.49,1.79,1.79,0,0,0-1.39-.48,5.63,5.63,0,0,0-2.42.66l-.4-1a6.27,6.27,0,0,1,1.39-.54,6,6,0,0,1,1.51-.19,3.28,3.28,0,0,1,2.27.68,2.84,2.84,0,0,1,.74,2.18v5.84Zm-2.93-.91a2.59,2.59,0,0,0,1.9-.67,2.45,2.45,0,0,0,.69-1.86v-.77l-1.29.06a4.52,4.52,0,0,0-2.23.48,1.43,1.43,0,0,0-.69,1.32,1.31,1.31,0,0,0,.43,1.07A1.73,1.73,0,0,0,252.35,386.67Z"/><path class="cls-9" d="M262.5,378.88a3.18,3.18,0,0,1,2.62,1.15,6.19,6.19,0,0,1,0,6.54,3.17,3.17,0,0,1-2.61,1.17,3.64,3.64,0,0,1-1.53-.31,2.87,2.87,0,0,1-1.16-.95h-.09l-.28,1.1h-.93V375.43h1.3v2.95c0,.66,0,1.25-.06,1.78h.06A3.08,3.08,0,0,1,262.5,378.88Zm-.19,1.08a2.28,2.28,0,0,0-1.92.77,5.89,5.89,0,0,0,0,5.14,2.28,2.28,0,0,0,1.93.78,2,2,0,0,0,1.78-.87,4.46,4.46,0,0,0,.59-2.5,4.27,4.27,0,0,0-.59-2.49A2.07,2.07,0,0,0,262.31,380Z"/><path class="cls-9" d="M269.21,387.58h-1.29V375.43h1.29Z"/><path class="cls-9" d="M275.18,387.74a4,4,0,0,1-3-1.16,4.48,4.48,0,0,1-1.09-3.21,5,5,0,0,1,1-3.29,3.39,3.39,0,0,1,2.74-1.22,3.23,3.23,0,0,1,2.54,1.06,4,4,0,0,1,.94,2.79v.83h-5.9a3.41,3.41,0,0,0,.76,2.28,2.64,2.64,0,0,0,2,.79A7,7,0,0,0,278,386v1.15a6.17,6.17,0,0,1-2.78.56Zm-.35-7.79a2.12,2.12,0,0,0-1.65.67,3.21,3.21,0,0,0-.72,1.86h4.48a2.83,2.83,0,0,0-.55-1.88A1.92,1.92,0,0,0,274.83,380Z"/><path class="cls-9" d="M188.86,401a5.62,5.62,0,0,1-1.6,4.32,6.56,6.56,0,0,1-4.64,1.5h-3.23V395.36H183a6,6,0,0,1,4.35,1.48A5.42,5.42,0,0,1,188.86,401Zm-2.51.06c0-2.45-1.09-3.68-3.25-3.68h-1.29v7.44h1Q186.35,404.78,186.35,401Z"/><path class="cls-9" d="M196.19,406.78l-.46-1.19h-.06a3.68,3.68,0,0,1-1.24,1.06,4.12,4.12,0,0,1-1.66.29,2.68,2.68,0,0,1-2-.72,2.73,2.73,0,0,1-.73-2.05,2.31,2.31,0,0,1,1-2.05,5.62,5.62,0,0,1,2.93-.73l1.52-.05V401a1.19,1.19,0,0,0-1.36-1.33,6.06,6.06,0,0,0-2.46.64l-.79-1.61a7,7,0,0,1,3.34-.79,4.19,4.19,0,0,1,2.7.76,2.85,2.85,0,0,1,.93,2.33v5.82Zm-.7-4-.93,0a2.92,2.92,0,0,0-1.54.37,1.18,1.18,0,0,0-.51,1.05c0,.67.38,1,1.16,1a1.82,1.82,0,0,0,1.32-.48,1.69,1.69,0,0,0,.5-1.27Z"/><path class="cls-9" d="M203.59,405a5.3,5.3,0,0,0,1.5-.27v1.77a5.32,5.32,0,0,1-2.19.4,2.68,2.68,0,0,1-2.08-.72,3.15,3.15,0,0,1-.66-2.17v-4.21H199v-1l1.32-.8.68-1.84h1.53v1.86H205v1.79h-2.44v4.21a.92.92,0,0,0,.28.75A1.14,1.14,0,0,0,203.59,405Z"/><path class="cls-9" d="M212,406.78l-.46-1.19h-.07a3.57,3.57,0,0,1-1.23,1.06,4.12,4.12,0,0,1-1.66.29,2.68,2.68,0,0,1-2-.72,2.73,2.73,0,0,1-.73-2.05,2.31,2.31,0,0,1,1-2.05,5.62,5.62,0,0,1,2.93-.73l1.52-.05V401a1.19,1.19,0,0,0-1.36-1.33,6.14,6.14,0,0,0-2.47.64l-.78-1.61a7,7,0,0,1,3.34-.79,4.15,4.15,0,0,1,2.69.76,2.82,2.82,0,0,1,.94,2.33v5.82Zm-.7-4-.93,0a2.92,2.92,0,0,0-1.54.37,1.18,1.18,0,0,0-.51,1.05c0,.67.38,1,1.15,1a1.82,1.82,0,0,0,1.33-.48,1.69,1.69,0,0,0,.5-1.27Z"/><path class="cls-9" d="M226.24,406.78h-6.58V395.36h6.58v2h-4.16v2.51H226v2h-3.87v2.94h4.16Z"/><path class="cls-9" d="M229.82,402.32,227,398.05h2.7l1.7,2.78,1.71-2.78h2.7L233,402.32l3,4.46h-2.71l-1.83-3-1.85,3h-2.7Z"/><path class="cls-9" d="M240.43,406.94q-4.08,0-4.08-4.48a4.77,4.77,0,0,1,1.11-3.4,4.18,4.18,0,0,1,3.18-1.18,6,6,0,0,1,2.72.6l-.7,1.84c-.38-.15-.73-.27-1-.37a3.25,3.25,0,0,0-1-.14q-1.86,0-1.86,2.64c0,1.7.62,2.56,1.86,2.56a4.28,4.28,0,0,0,1.27-.18,5,5,0,0,0,1.18-.58v2a4,4,0,0,1-1.17.51A6.85,6.85,0,0,1,240.43,406.94Z"/><path class="cls-9" d="M252.77,406.78h-2.38v-5.1q0-1.89-1.41-1.89a1.6,1.6,0,0,0-1.44.68,4.11,4.11,0,0,0-.45,2.2v4.11h-2.38V394.63h2.38v2.47c0,.19,0,.65-.05,1.36l-.06.71h.13a2.75,2.75,0,0,1,2.53-1.29,3.08,3.08,0,0,1,2.33.83,3.26,3.26,0,0,1,.8,2.38Z"/><path class="cls-9" d="M260.37,406.78l-.46-1.19h-.06a3.5,3.5,0,0,1-1.24,1.06,4.09,4.09,0,0,1-1.66.29,2.68,2.68,0,0,1-2-.72,2.77,2.77,0,0,1-.72-2.05,2.31,2.31,0,0,1,1-2.05,5.68,5.68,0,0,1,2.93-.73l1.52-.05V401a1.19,1.19,0,0,0-1.36-1.33,6.06,6.06,0,0,0-2.46.64l-.79-1.61a7,7,0,0,1,3.34-.79,4.18,4.18,0,0,1,2.7.76A2.85,2.85,0,0,1,262,401v5.82Zm-.7-4-.92,0a2.94,2.94,0,0,0-1.55.37,1.18,1.18,0,0,0-.51,1.05c0,.67.39,1,1.16,1a1.82,1.82,0,0,0,1.32-.48,1.69,1.69,0,0,0,.5-1.27Z"/><path class="cls-9" d="M272.15,406.78h-2.38v-5.1a2.42,2.42,0,0,0-.34-1.42,1.23,1.23,0,0,0-1.07-.47,1.59,1.59,0,0,0-1.44.67,4.08,4.08,0,0,0-.45,2.21v4.11h-2.38v-8.73h1.82l.32,1.12h.13a2.45,2.45,0,0,1,1.1-1,3.71,3.71,0,0,1,1.59-.33,3,3,0,0,1,2.31.83,3.29,3.29,0,0,1,.79,2.38Z"/><path class="cls-9" d="M281.81,398.05v1.21l-1.37.35a2.38,2.38,0,0,1,.37,1.31,2.62,2.62,0,0,1-1,2.19,4.2,4.2,0,0,1-2.72.79l-.43,0-.35,0a.76.76,0,0,0-.37.62c0,.35.44.52,1.31.52h1.49a3.38,3.38,0,0,1,2.19.61,2.23,2.23,0,0,1,.75,1.82,2.67,2.67,0,0,1-1.27,2.37,6.68,6.68,0,0,1-3.67.85A5.09,5.09,0,0,1,274,410a2,2,0,0,1-1-1.79,1.92,1.92,0,0,1,.49-1.32,2.82,2.82,0,0,1,1.45-.75,1.59,1.59,0,0,1-.64-.52,1.2,1.2,0,0,1-.28-.75,1.23,1.23,0,0,1,.29-.83,3.55,3.55,0,0,1,.84-.65,2.36,2.36,0,0,1-1.09-1,2.85,2.85,0,0,1-.4-1.54,2.72,2.72,0,0,1,.93-2.21,4,4,0,0,1,2.65-.79,7.56,7.56,0,0,1,.87.07c.34,0,.56.08.65.1Zm-6.75,10a.87.87,0,0,0,.48.77,2.54,2.54,0,0,0,1.32.28,4.77,4.77,0,0,0,2-.35,1.07,1.07,0,0,0,.73-1,.68.68,0,0,0-.43-.68,3.43,3.43,0,0,0-1.33-.19H276.6a1.82,1.82,0,0,0-1.09.31A1,1,0,0,0,275.06,408Zm.87-7.11a1.74,1.74,0,0,0,.33,1.12,1.37,1.37,0,0,0,2,0,1.8,1.8,0,0,0,.31-1.12c0-1.05-.43-1.58-1.3-1.58S275.93,399.86,275.93,400.91Z"/><path class="cls-9" d="M286.8,406.94a4.49,4.49,0,0,1-3.3-1.17,4.39,4.39,0,0,1-1.19-3.29,4.86,4.86,0,0,1,1.1-3.4,4.45,4.45,0,0,1,5.92-.14,4,4,0,0,1,1,2.91V403h-5.63a2.22,2.22,0,0,0,.6,1.58,2.11,2.11,0,0,0,1.58.58,6.54,6.54,0,0,0,1.49-.17,7.43,7.43,0,0,0,1.47-.52v1.84a5.91,5.91,0,0,1-1.34.47A8.49,8.49,0,0,1,286.8,406.94Zm-.34-7.36a1.53,1.53,0,0,0-1.19.48,2.24,2.24,0,0,0-.49,1.36h3.35a2,2,0,0,0-.47-1.36A1.54,1.54,0,0,0,286.46,399.58Z"/><path class="cls-9" d="M298.11,402h-3v-1.71h3v-3.05h1.72v3.05h3V402h-3v3h-1.72Z"/><path class="cls-9" d="M167.72,426V414.56h2.42V426Z"/><path class="cls-9" d="M180.49,426h-2.38v-5.1a2.5,2.5,0,0,0-.34-1.42,1.23,1.23,0,0,0-1.07-.47,1.61,1.61,0,0,0-1.45.67,4.19,4.19,0,0,0-.44,2.21V426h-2.38v-8.73h1.82l.32,1.12h.13a2.45,2.45,0,0,1,1.1-1,3.64,3.64,0,0,1,1.59-.33,3.06,3.06,0,0,1,2.31.83,3.29,3.29,0,0,1,.79,2.38Z"/><path class="cls-9" d="M186.22,424.24a5.19,5.19,0,0,0,1.5-.27v1.77a5.26,5.26,0,0,1-2.19.4,2.69,2.69,0,0,1-2.08-.72,3.2,3.2,0,0,1-.65-2.17V419h-1.14v-1l1.31-.8.69-1.84h1.52v1.86h2.45V419h-2.45v4.21a.93.93,0,0,0,.29.75A1.13,1.13,0,0,0,186.22,424.24Z"/><path class="cls-9" d="M194,417.08a4.43,4.43,0,0,1,.81.07l-.18,2.24a2.9,2.9,0,0,0-.71-.08,2.51,2.51,0,0,0-1.77.59,2.09,2.09,0,0,0-.64,1.64V426h-2.38v-8.73h1.8l.35,1.47h.12a3.31,3.31,0,0,1,1.1-1.19A2.69,2.69,0,0,1,194,417.08Z"/><path class="cls-9" d="M202.14,426l-.32-1.11h-.12a2.65,2.65,0,0,1-1.09.94,3.72,3.72,0,0,1-1.6.33,3,3,0,0,1-2.32-.83,3.32,3.32,0,0,1-.78-2.37v-5.69h2.38v5.1a2.42,2.42,0,0,0,.34,1.42,1.23,1.23,0,0,0,1.07.47,1.6,1.6,0,0,0,1.44-.67,4.08,4.08,0,0,0,.45-2.21v-4.11H204V426Z"/><path class="cls-9" d="M212.16,423.39a2.42,2.42,0,0,1-.93,2.05,4.66,4.66,0,0,1-2.79.7,8.46,8.46,0,0,1-1.63-.13,6.16,6.16,0,0,1-1.26-.38v-2a9.05,9.05,0,0,0,1.5.53,6,6,0,0,0,1.46.21c.87,0,1.3-.25,1.3-.75a.65.65,0,0,0-.17-.46,2.56,2.56,0,0,0-.59-.4c-.29-.15-.66-.32-1.13-.52a7.17,7.17,0,0,1-1.48-.78,2.22,2.22,0,0,1-.69-.82,2.81,2.81,0,0,1-.21-1.15,2.09,2.09,0,0,1,.9-1.8,4.42,4.42,0,0,1,2.56-.64,7.26,7.26,0,0,1,3.07.69l-.72,1.72a12.88,12.88,0,0,0-1.23-.46,3.85,3.85,0,0,0-1.16-.18c-.7,0-1.06.19-1.06.57a.68.68,0,0,0,.34.55,9.48,9.48,0,0,0,1.49.7,6.72,6.72,0,0,1,1.5.77,2.41,2.41,0,0,1,.71.83A2.57,2.57,0,0,1,212.16,423.39Z"/><path class="cls-9" d="M213.52,415c0-.78.43-1.16,1.3-1.16s1.29.38,1.29,1.16a1.1,1.1,0,0,1-.32.86,1.35,1.35,0,0,1-1,.31C214,416.16,213.52,415.77,213.52,415ZM216,426h-2.38v-8.73H216Z"/><path class="cls-9" d="M226,421.6a4.72,4.72,0,0,1-1.12,3.34,4.1,4.1,0,0,1-3.14,1.2,4.34,4.34,0,0,1-2.21-.55,3.71,3.71,0,0,1-1.48-1.58,5.38,5.38,0,0,1-.52-2.41,4.69,4.69,0,0,1,1.12-3.33,4.11,4.11,0,0,1,3.14-1.19,4.46,4.46,0,0,1,2.22.55,3.74,3.74,0,0,1,1.48,1.57A5.31,5.31,0,0,1,226,421.6Zm-6,0a3.61,3.61,0,0,0,.43,2,1.53,1.53,0,0,0,1.39.66,1.5,1.5,0,0,0,1.37-.66,4.81,4.81,0,0,0,0-3.91,1.52,1.52,0,0,0-1.38-.64,1.5,1.5,0,0,0-1.37.64A3.52,3.52,0,0,0,220,421.6Z"/><path class="cls-9" d="M235.67,426h-2.38v-5.1a2.42,2.42,0,0,0-.34-1.42,1.23,1.23,0,0,0-1.07-.47,1.6,1.6,0,0,0-1.44.67,4.08,4.08,0,0,0-.45,2.21V426h-2.38v-8.73h1.82l.32,1.12h.13a2.5,2.5,0,0,1,1.1-1,3.71,3.71,0,0,1,1.59-.33,3,3,0,0,1,2.31.83,3.29,3.29,0,0,1,.79,2.38Z"/><path class="cls-9" d="M251.15,420.16a5.63,5.63,0,0,1-1.61,4.32,6.54,6.54,0,0,1-4.64,1.5h-3.23V414.56h3.59A6,6,0,0,1,249.6,416,5.43,5.43,0,0,1,251.15,420.16Zm-2.52.06q0-3.68-3.25-3.68h-1.29V424h1Q248.63,424,248.63,420.22Z"/><path class="cls-9" d="M256.88,426.14a4.49,4.49,0,0,1-3.3-1.17,4.39,4.39,0,0,1-1.19-3.29,4.86,4.86,0,0,1,1.1-3.4,3.92,3.92,0,0,1,3-1.2,3.87,3.87,0,0,1,2.88,1.06,4,4,0,0,1,1,2.91v1.16h-5.63a2.29,2.29,0,0,0,.6,1.58,2.13,2.13,0,0,0,1.58.58,6.54,6.54,0,0,0,1.49-.17,7.43,7.43,0,0,0,1.47-.52v1.84a5.91,5.91,0,0,1-1.34.47A8.49,8.49,0,0,1,256.88,426.14Zm-.34-7.36a1.49,1.49,0,0,0-1.18.48,2.24,2.24,0,0,0-.5,1.36h3.35a2,2,0,0,0-.46-1.36A1.57,1.57,0,0,0,256.54,418.78Z"/><path class="cls-9" d="M265.66,424.24a5.19,5.19,0,0,0,1.5-.27v1.77a5.26,5.26,0,0,1-2.19.4,2.68,2.68,0,0,1-2.08-.72,3.2,3.2,0,0,1-.65-2.17V419H261.1v-1l1.31-.8.69-1.84h1.52v1.86h2.45V419h-2.45v4.21a.93.93,0,0,0,.29.75A1.13,1.13,0,0,0,265.66,424.24Z"/><path class="cls-9" d="M272.48,426.14a4.49,4.49,0,0,1-3.3-1.17,4.39,4.39,0,0,1-1.19-3.29,4.86,4.86,0,0,1,1.1-3.4,4.45,4.45,0,0,1,5.92-.14,4,4,0,0,1,1,2.91v1.16h-5.63a2.21,2.21,0,0,0,.6,1.58,2.11,2.11,0,0,0,1.58.58,6.54,6.54,0,0,0,1.49-.17,7.43,7.43,0,0,0,1.47-.52v1.84a5.91,5.91,0,0,1-1.34.47A8.49,8.49,0,0,1,272.48,426.14Zm-.34-7.36a1.53,1.53,0,0,0-1.19.48,2.24,2.24,0,0,0-.49,1.36h3.35a2,2,0,0,0-.46-1.36A1.57,1.57,0,0,0,272.14,418.78Z"/><path class="cls-9" d="M281.13,426.14q-4.08,0-4.08-4.48a4.77,4.77,0,0,1,1.11-3.4,4.18,4.18,0,0,1,3.18-1.18,6,6,0,0,1,2.71.6l-.7,1.84c-.37-.15-.72-.27-1.05-.37a3.19,3.19,0,0,0-1-.14q-1.86,0-1.86,2.64c0,1.7.62,2.56,1.86,2.56a4.33,4.33,0,0,0,1.27-.18,4.9,4.9,0,0,0,1.17-.58v2a3.76,3.76,0,0,1-1.17.51A6.75,6.75,0,0,1,281.13,426.14Z"/><path class="cls-9" d="M289.08,424.24a5.19,5.19,0,0,0,1.5-.27v1.77a5.24,5.24,0,0,1-2.18.4,2.7,2.7,0,0,1-2.09-.72,3.2,3.2,0,0,1-.65-2.17V419h-1.14v-1l1.31-.8.69-1.84h1.53v1.86h2.44V419h-2.44v4.21a.92.92,0,0,0,.28.75A1.13,1.13,0,0,0,289.08,424.24Z"/><path class="cls-9" d="M291.85,415c0-.78.43-1.16,1.29-1.16s1.3.38,1.3,1.16a1.14,1.14,0,0,1-.32.86,1.36,1.36,0,0,1-1,.31Q291.85,416.16,291.85,415Zm2.48,11H292v-8.73h2.38Z"/><path class="cls-9" d="M304.37,421.6a4.72,4.72,0,0,1-1.12,3.34,4.1,4.1,0,0,1-3.14,1.2,4.35,4.35,0,0,1-2.22-.55,3.68,3.68,0,0,1-1.47-1.58,5.25,5.25,0,0,1-.52-2.41,4.64,4.64,0,0,1,1.12-3.33,4.1,4.1,0,0,1,3.14-1.19,4.46,4.46,0,0,1,2.22.55,3.66,3.66,0,0,1,1.47,1.57A5.18,5.18,0,0,1,304.37,421.6Zm-6,0a3.61,3.61,0,0,0,.43,2,1.51,1.51,0,0,0,1.38.66,1.48,1.48,0,0,0,1.37-.66,4.76,4.76,0,0,0,0-3.91,1.81,1.81,0,0,0-2.76,0A3.62,3.62,0,0,0,298.33,421.6Z"/><path class="cls-9" d="M314,426h-2.38v-5.1a2.42,2.42,0,0,0-.34-1.42,1.23,1.23,0,0,0-1.07-.47,1.59,1.59,0,0,0-1.44.67,4.08,4.08,0,0,0-.45,2.21V426h-2.38v-8.73h1.82l.32,1.12h.13a2.45,2.45,0,0,1,1.1-1,3.71,3.71,0,0,1,1.59-.33,3,3,0,0,1,2.31.83,3.29,3.29,0,0,1,.79,2.38Z"/><path class="cls-9" d="M172.4,109.73h4a7.67,7.67,0,0,1,4,.78A2.69,2.69,0,0,1,181.6,113a3.11,3.11,0,0,1-.54,1.89,2.14,2.14,0,0,1-1.44.89v.09a2.82,2.82,0,0,1,1.76,1,3.33,3.33,0,0,1,.54,2,3.27,3.27,0,0,1-1.27,2.74,5.51,5.51,0,0,1-3.45,1h-4.8Zm2.72,5.09h1.58a2.92,2.92,0,0,0,1.61-.34,1.29,1.29,0,0,0,.49-1.14,1.12,1.12,0,0,0-.54-1,3.39,3.39,0,0,0-1.71-.33h-1.43Zm0,2.16v3.35h1.78a2.62,2.62,0,0,0,1.66-.43,1.62,1.62,0,0,0,.53-1.32c0-1.06-.76-1.6-2.28-1.6Z"/><path class="cls-9" d="M186.51,122.58h-2.68V108.91h2.68Z"/><path class="cls-9" d="M197.8,117.65a5.28,5.28,0,0,1-1.26,3.75,4.58,4.58,0,0,1-3.53,1.36,5,5,0,0,1-2.5-.62,4.2,4.2,0,0,1-1.66-1.78,6.11,6.11,0,0,1-.58-2.71,5.24,5.24,0,0,1,1.26-3.74,4.63,4.63,0,0,1,3.53-1.34,5,5,0,0,1,2.5.62,4.15,4.15,0,0,1,1.66,1.76A5.9,5.9,0,0,1,197.8,117.65Zm-6.79,0a4.14,4.14,0,0,0,.48,2.21,2,2,0,0,0,3.1,0,4.2,4.2,0,0,0,.47-2.21,4,4,0,0,0-.48-2.19,2,2,0,0,0-3.1,0A4.1,4.1,0,0,0,191,117.65Z"/><path class="cls-9" d="M203.56,122.76q-4.59,0-4.59-5a5.4,5.4,0,0,1,1.25-3.83,4.67,4.67,0,0,1,3.57-1.32,6.75,6.75,0,0,1,3.06.67l-.79,2.07a10.45,10.45,0,0,0-1.18-.41,3.7,3.7,0,0,0-1.09-.17c-1.39,0-2.09,1-2.09,3s.7,2.89,2.09,2.89a4.73,4.73,0,0,0,1.44-.21,5,5,0,0,0,1.32-.65V122a4.71,4.71,0,0,1-1.32.57A7.09,7.09,0,0,1,203.56,122.76Z"/><path class="cls-9" d="M211,117.24l1.17-1.5,2.75-3h3L214,117l4.14,5.56H215l-2.83-4-1.15.92v3.06h-2.68V108.91h2.68V115l-.14,2.23Z"/><path class="cls-9" d="M223.07,122.76c-3.06,0-4.58-1.68-4.58-5a5.4,5.4,0,0,1,1.24-3.83,4.71,4.71,0,0,1,3.58-1.32,6.75,6.75,0,0,1,3.06.67l-.79,2.07a11.19,11.19,0,0,0-1.18-.41,3.75,3.75,0,0,0-1.09-.17c-1.39,0-2.09,1-2.09,3s.7,2.89,2.09,2.89a4.66,4.66,0,0,0,1.43-.21,5,5,0,0,0,1.32-.65V122a4.54,4.54,0,0,1-1.31.57A7.19,7.19,0,0,1,223.07,122.76Z"/><path class="cls-9" d="M237,122.58h-2.68v-5.74c0-1.42-.53-2.12-1.58-2.12a1.8,1.8,0,0,0-1.63.76,4.72,4.72,0,0,0-.5,2.48v4.62h-2.68V108.91h2.68v2.78q0,.33-.06,1.53l-.06.79h.14a3.09,3.09,0,0,1,2.84-1.44,3.48,3.48,0,0,1,2.63.93,3.69,3.69,0,0,1,.9,2.67Z"/><path class="cls-9" d="M243.72,122.76a5.07,5.07,0,0,1-3.71-1.31,5,5,0,0,1-1.34-3.71,5.47,5.47,0,0,1,1.23-3.82,4.42,4.42,0,0,1,3.42-1.35,4.32,4.32,0,0,1,3.24,1.19,4.46,4.46,0,0,1,1.16,3.28v1.3h-6.33a2.59,2.59,0,0,0,.67,1.78,2.38,2.38,0,0,0,1.78.64,7.59,7.59,0,0,0,1.68-.18,8.24,8.24,0,0,0,1.65-.59v2.07a6.36,6.36,0,0,1-1.5.53A9.88,9.88,0,0,1,243.72,122.76Zm-.38-8.28A1.7,1.7,0,0,0,242,115a2.47,2.47,0,0,0-.55,1.53h3.76a2.24,2.24,0,0,0-.52-1.53A1.74,1.74,0,0,0,243.34,114.48Z"/><path class="cls-9" d="M249.34,110.22c0-.88.49-1.31,1.46-1.31s1.46.43,1.46,1.31a1.26,1.26,0,0,1-.37,1,1.53,1.53,0,0,1-1.09.34C249.83,111.53,249.34,111.09,249.34,110.22Zm2.79,12.36h-2.68v-9.82h2.68Z"/><path class="cls-9" d="M263.57,122.58h-2.68v-5.74a2.74,2.74,0,0,0-.38-1.59,1.37,1.37,0,0,0-1.21-.53,1.8,1.8,0,0,0-1.62.75,4.6,4.6,0,0,0-.5,2.49v4.62H254.5v-9.82h2l.36,1.25h.15a2.82,2.82,0,0,1,1.24-1.07,4.09,4.09,0,0,1,1.79-.37,3.43,3.43,0,0,1,2.6.93,3.73,3.73,0,0,1,.89,2.67Z"/><path class="cls-9" d="M281.71,122.58h-3.46l-5.59-9.72h-.08c.11,1.72.17,2.94.17,3.68v6h-2.44V109.73h3.44l5.58,9.63h.06c-.09-1.67-.13-2.85-.13-3.55v-6.08h2.45Z"/><path class="cls-9" d="M288.73,122.76a5.09,5.09,0,0,1-3.71-1.31,5,5,0,0,1-1.33-3.71,5.47,5.47,0,0,1,1.23-3.82,4.41,4.41,0,0,1,3.42-1.35,4.32,4.32,0,0,1,3.24,1.19,4.5,4.5,0,0,1,1.16,3.28v1.3H286.4a2.59,2.59,0,0,0,.68,1.78,2.37,2.37,0,0,0,1.78.64,7.44,7.44,0,0,0,1.67-.18,8.31,8.31,0,0,0,1.66-.59v2.07a6.28,6.28,0,0,1-1.51.53A9.74,9.74,0,0,1,288.73,122.76Zm-.38-8.28A1.7,1.7,0,0,0,287,115a2.47,2.47,0,0,0-.55,1.53h3.76a2.24,2.24,0,0,0-.52-1.53A1.78,1.78,0,0,0,288.35,114.48Z"/><path class="cls-9" d="M298.61,120.62a5.69,5.69,0,0,0,1.69-.31v2a6,6,0,0,1-2.46.45,3,3,0,0,1-2.35-.81,3.61,3.61,0,0,1-.73-2.44v-4.74h-1.28v-1.14l1.47-.89.78-2.08h1.71v2.1h2.75v2h-2.75v4.74a1,1,0,0,0,.32.84A1.29,1.29,0,0,0,298.61,120.62Z"/><path class="cls-9" d="M309.91,122.58l-.75-3.43-1-4.35h-.07l-1.79,7.78H303.4l-2.8-9.82h2.68l1.13,4.35c.18.78.37,1.85.55,3.22H305a17.51,17.51,0,0,1,.3-2.12l.14-.74,1.22-4.71h2.95l1.15,4.71c0,.13.06.32.11.57s.1.52.15.8.09.56.12.84.06.49.07.65h0c.06-.42.15-1,.28-1.73s.24-1.24.29-1.49l1.18-4.35h2.63l-2.83,9.82Z"/><path class="cls-9" d="M325.72,117.65a5.28,5.28,0,0,1-1.26,3.75,4.58,4.58,0,0,1-3.53,1.36,5,5,0,0,1-2.5-.62,4.2,4.2,0,0,1-1.66-1.78,6.11,6.11,0,0,1-.58-2.71,5.24,5.24,0,0,1,1.26-3.74,4.63,4.63,0,0,1,3.53-1.34,5,5,0,0,1,2.5.62,4.15,4.15,0,0,1,1.66,1.76A5.9,5.9,0,0,1,325.72,117.65Zm-6.79,0a4.14,4.14,0,0,0,.48,2.21,2,2,0,0,0,3.1,0,4.2,4.2,0,0,0,.47-2.21,4,4,0,0,0-.48-2.19,2,2,0,0,0-3.1,0A4.1,4.1,0,0,0,318.93,117.65Z"/><path class="cls-9" d="M333,112.57a4.58,4.58,0,0,1,.91.08l-.21,2.51a3.5,3.5,0,0,0-.79-.08,2.86,2.86,0,0,0-2,.66,2.35,2.35,0,0,0-.71,1.84v5h-2.68v-9.82h2l.39,1.65H330a3.69,3.69,0,0,1,1.24-1.33A3,3,0,0,1,333,112.57Z"/><path class="cls-9" d="M337.78,117.24l1.17-1.5,2.75-3h3l-3.9,4.26,4.14,5.56h-3.1l-2.83-4-1.15.92v3.06h-2.68V108.91h2.68V115l-.14,2.23Z"/><circle class="cls-10" cx="241.62" cy="232.83" r="13.75"/><circle class="cls-11" cx="319.18" cy="158.33" r="13.75"/><circle class="cls-12" cx="161.41" cy="158.33" r="13.75"/><circle class="cls-13" cx="43.18" cy="187.33" r="13.75"/><circle class="cls-14" cx="29.43" cy="91.33" r="13.75"/><circle class="cls-15" cx="135.82" cy="58.83" r="13.75"/><circle class="cls-16" cx="274.32" cy="77.58" r="13.75"/><circle class="cls-17" cx="436.32" cy="77.58" r="13.75"/><circle class="cls-18" cx="477.32" cy="149.58" r="13.75"/><circle class="cls-19" cx="415.02" cy="121.5" r="5.03"/><circle class="cls-20" cx="364.87" cy="174.35" r="5.26"/><circle class="cls-21" cx="318.02" cy="38.25" r="5.03"/><circle class="cls-22" cx="420.05" cy="13.5" r="5.03"/><circle class="cls-23" cx="291.3" cy="9.5" r="5.03"/><circle class="cls-24" cx="102.05" cy="129.25" r="5.03"/><line class="cls-25" x1="2.12" y1="68.83" x2="13.37" y2="77.33"/><line class="cls-25" x1="2.82" y1="107.47" x2="10.94" y2="102.29"/><line class="cls-25" x1="32.95" y1="112.76" x2="40.62" y2="165.61"/><line class="cls-25" x1="2.12" y1="173.58" x2="22.6" y2="180.41"/><line class="cls-25" x1="64.9" y1="183.08" x2="140.14" y2="162.73"/><line class="cls-25" x1="142.28" y1="148.05" x2="110.36" y2="132.69"/><line class="cls-25" x1="105.02" y1="120.76" x2="126.64" y2="78.52"/><line class="cls-25" x1="94.12" y1="125.33" x2="48.54" y2="101.66"/><line class="cls-25" x1="141.51" y1="79.8" x2="156.54" y2="136.61"/><line class="cls-25" x1="157.47" y1="60.6" x2="253.08" y2="73.08"/><line class="cls-25" x1="289.5" y1="18.32" x2="279.44" y2="56.47"/><line class="cls-25" x1="290.58" y1="63.19" x2="311.03" y2="43.92"/><line class="cls-25" x1="296.04" y1="75.33" x2="414.61" y2="75.58"/><line class="cls-25" x1="422.57" y1="22.13" x2="430.47" y2="56.67"/><line class="cls-25" x1="457.52" y1="72.86" x2="500.62" y2="65.83"/><line class="cls-25" x1="490.26" y1="132.14" x2="500.87" y2="118.08"/><line class="cls-25" x1="458.04" y1="139.59" x2="423.37" y2="124.84"/><line class="cls-25" x1="418.35" y1="113.14" x2="426.52" y2="96.96"/><line class="cls-25" x1="406.67" y1="124.87" x2="339.06" y2="149.58"/><line class="cls-25" x1="355.87" y1="171.3" x2="339.74" y2="165.35"/><line class="cls-25" x1="226.03" y1="217.72" x2="176.88" y2="174.35"/><line class="cls-25" x1="183.05" y1="156.55" x2="297.47" y2="157.08"/><line class="cls-25" x1="304.43" y1="174.35" x2="257.21" y2="217.72"/></g></g></svg>